<svg width="220" height="327" viewBox="0 0 220 327" fill="none" xmlns="http://www.w3.org/2000/svg">
<g clip-path="url(#clip0_201_326)">
<g clip-path="url(#clip1_201_326)">
<path d="M220 110C220 170.752 170.751 220 110 220C49.2487 220 0 170.752 0 110C0 49.2489 49.2487 0.000244141 110 0.000244141C170.751 0.000244141 220 49.2489 220 110ZM8.8 110C8.8 165.891 54.1088 211.2 110 211.2C165.891 211.2 211.2 165.891 211.2 110C211.2 54.109 165.891 8.80024 110 8.80024C54.1088 8.80024 8.8 54.109 8.8 110Z" fill="#FF459D"/>
</g>
<g clip-path="url(#clip2_201_326)">
<mask id="path-2-outside-1_201_326" maskUnits="userSpaceOnUse" x="8.01367" y="-1.81494" width="205" height="215" fill="black">
<rect fill="white" x="8.01367" y="-1.81494" width="205" height="215"/>
<path d="M97.7009 86.2675C87.19 89.1906 77.2397 84.5207 73.3607 75.4113C68.8561 64.8704 72.8602 51.9871 82.7454 46.1211C98.762 36.6112 131.876 42.2621 137.462 68.2139C140.76 83.5497 134.899 96.5832 124.674 107.575C113.022 120.087 97.6458 125.093 81.0887 126.334C70.4327 127.135 59.7867 126.834 49.3159 123.286C6.14126 108.581 5.27036 61.2217 26.9327 35.5952C43.1595 16.3903 64.7568 8.18687 88.5114 4.88346C115.775 1.11456 142.712 3.3819 168.379 14.0679C184.506 20.7899 197.804 31.4059 203.826 48.2282C211.368 69.305 206.508 88.7701 192.213 105.668C174.32 126.869 150.621 137.821 123.898 142.826C119.568 143.637 117.336 144.883 117.727 149.703C119.258 168.723 118.302 188.023 125.339 207.568C110.629 205.716 96.7299 204.209 82.7104 204.214C68.6158 204.214 54.6514 205.716 40.0913 207.588C40.9572 203.959 41.4177 201.276 42.2335 198.709C46.9762 183.907 48.8882 168.345 47.8694 152.836C47.464 146.49 48.9905 144.328 55.8776 144.277C84.1469 144.062 109.964 135.969 131.22 116.749C149.239 100.477 158.679 80.0461 153.804 55.5158C147.743 24.9842 117.682 14.3933 93.4965 17.4765C76.2337 19.7388 63.015 28.8082 56.0879 44.8848C46.2727 67.6583 61.9489 91.9634 86.7545 93.535C94.1272 94.0005 101.385 93.7202 107.871 89.5009C113.953 85.5468 117.146 79.0451 115.684 73.3642C114.253 67.8135 111.09 64.0546 104.998 63.449C99.818 62.9484 95.3234 64.0796 92.8859 69.1098C90.2381 74.5805 90.8838 79.7208 95.3484 84.1253C95.9841 84.766 96.6648 85.3216 97.7009 86.2675Z"/>
</mask>
<path d="M97.7009 86.2675C87.19 89.1906 77.2397 84.5207 73.3607 75.4113C68.8561 64.8704 72.8602 51.9871 82.7454 46.1211C98.762 36.6112 131.876 42.2621 137.462 68.2139C140.76 83.5497 134.899 96.5832 124.674 107.575C113.022 120.087 97.6458 125.093 81.0887 126.334C70.4327 127.135 59.7867 126.834 49.3159 123.286C6.14126 108.581 5.27036 61.2217 26.9327 35.5952C43.1595 16.3903 64.7568 8.18687 88.5114 4.88346C115.775 1.11456 142.712 3.3819 168.379 14.0679C184.506 20.7899 197.804 31.4059 203.826 48.2282C211.368 69.305 206.508 88.7701 192.213 105.668C174.32 126.869 150.621 137.821 123.898 142.826C119.568 143.637 117.336 144.883 117.727 149.703C119.258 168.723 118.302 188.023 125.339 207.568C110.629 205.716 96.7299 204.209 82.7104 204.214C68.6158 204.214 54.6514 205.716 40.0913 207.588C40.9572 203.959 41.4177 201.276 42.2335 198.709C46.9762 183.907 48.8882 168.345 47.8694 152.836C47.464 146.49 48.9905 144.328 55.8776 144.277C84.1469 144.062 109.964 135.969 131.22 116.749C149.239 100.477 158.679 80.0461 153.804 55.5158C147.743 24.9842 117.682 14.3933 93.4965 17.4765C76.2337 19.7388 63.015 28.8082 56.0879 44.8848C46.2727 67.6583 61.9489 91.9634 86.7545 93.535C94.1272 94.0005 101.385 93.7202 107.871 89.5009C113.953 85.5468 117.146 79.0451 115.684 73.3642C114.253 67.8135 111.09 64.0546 104.998 63.449C99.818 62.9484 95.3234 64.0796 92.8859 69.1098C90.2381 74.5805 90.8838 79.7208 95.3484 84.1253C95.9841 84.766 96.6648 85.3216 97.7009 86.2675Z" fill="#007AFF"/>
<path d="M97.7009 86.2675C87.19 89.1906 77.2397 84.5207 73.3607 75.4113C68.8561 64.8704 72.8602 51.9871 82.7454 46.1211C98.762 36.6112 131.876 42.2621 137.462 68.2139C140.76 83.5497 134.899 96.5832 124.674 107.575C113.022 120.087 97.6458 125.093 81.0887 126.334C70.4327 127.135 59.7867 126.834 49.3159 123.286C6.14126 108.581 5.27036 61.2217 26.9327 35.5952C43.1595 16.3903 64.7568 8.18687 88.5114 4.88346C115.775 1.11456 142.712 3.3819 168.379 14.0679C184.506 20.7899 197.804 31.4059 203.826 48.2282C211.368 69.305 206.508 88.7701 192.213 105.668C174.32 126.869 150.621 137.821 123.898 142.826C119.568 143.637 117.336 144.883 117.727 149.703C119.258 168.723 118.302 188.023 125.339 207.568C110.629 205.716 96.7299 204.209 82.7104 204.214C68.6158 204.214 54.6514 205.716 40.0913 207.588C40.9572 203.959 41.4177 201.276 42.2335 198.709C46.9762 183.907 48.8882 168.345 47.8694 152.836C47.464 146.49 48.9905 144.328 55.8776 144.277C84.1469 144.062 109.964 135.969 131.22 116.749C149.239 100.477 158.679 80.0461 153.804 55.5158C147.743 24.9842 117.682 14.3933 93.4965 17.4765C76.2337 19.7388 63.015 28.8082 56.0879 44.8848C46.2727 67.6583 61.9489 91.9634 86.7545 93.535C94.1272 94.0005 101.385 93.7202 107.871 89.5009C113.953 85.5468 117.146 79.0451 115.684 73.3642C114.253 67.8135 111.09 64.0546 104.998 63.449C99.818 62.9484 95.3234 64.0796 92.8859 69.1098C90.2381 74.5805 90.8838 79.7208 95.3484 84.1253C95.9841 84.766 96.6648 85.3216 97.7009 86.2675Z" stroke="#FEF2F8" stroke-width="9.55533" stroke-linejoin="round" mask="url(#path-2-outside-1_201_326)"/>
</g>
<g clip-path="url(#clip3_201_326)">
<path d="M220 110C220 170.751 170.751 220 110 220C49.2487 220 0 170.751 0 110C0 49.2487 49.2487 0 110 0C170.751 0 220 49.2487 220 110ZM8.8 110C8.8 165.891 54.1088 211.2 110 211.2C165.891 211.2 211.2 165.891 211.2 110C211.2 54.1088 165.891 8.8 110 8.8C54.1088 8.8 8.8 54.1088 8.8 110Z" fill="#FF459D"/>
</g>
<path d="M14 296.823C13.402 296.823 12.9172 297.308 12.9172 297.906C12.9172 298.504 13.402 298.988 14 298.988L14 296.823ZM200.595 297.906C200.595 301.095 203.18 303.68 206.37 303.68C209.559 303.68 212.144 301.095 212.144 297.906C212.144 294.716 209.559 292.131 206.37 292.131C203.18 292.131 200.595 294.716 200.595 297.906ZM14 298.988L206.37 298.988L206.37 296.823L14 296.823L14 298.988Z" fill="#FF459D"/>
<path d="M23.6545 313.226C20.8574 313.226 18.6919 310.88 18.6919 307.993V255.118C18.6919 255.028 18.6919 255.028 18.6919 255.028V250.066C18.6919 249.975 18.7821 249.885 18.8723 249.885H23.0229C24.5568 249.885 25.9103 250.607 26.8126 251.78C28.3465 250.607 30.2413 249.885 32.3166 249.885H36.8281C41.8809 249.885 46.0315 254.036 46.0315 259.089V286.067C46.0315 291.12 41.8809 295.18 36.8281 295.18H32.3166C30.7827 295.18 29.2488 294.82 27.9855 294.098V313.046C27.9855 313.136 27.8953 313.226 27.8051 313.226H23.6545ZM32.3166 250.246C30.3315 250.246 28.5269 250.878 26.993 252.051C27.6246 252.863 27.9855 253.945 27.9855 255.118V293.737C29.2488 294.459 30.7827 294.91 32.3166 294.91C34.7528 294.91 36.6476 292.925 36.6476 290.579V254.577C36.6476 252.141 34.7528 250.246 32.3166 250.246ZM68.5494 249.885C73.6023 249.885 77.7529 254.036 77.7529 259.089V286.067C77.7529 291.12 73.6023 295.18 68.5494 295.18H59.5265C54.4736 295.18 50.4133 291.12 50.4133 286.067V259.089C50.4133 254.036 54.4736 249.885 59.5265 249.885H68.5494ZM68.369 290.489V254.577C68.369 252.141 66.3839 250.246 64.0379 250.246C61.692 250.246 59.7069 252.141 59.7069 254.577V290.489V290.579C59.7069 292.925 61.692 294.91 64.0379 294.91C66.3839 294.91 68.369 292.925 68.369 290.579V290.489ZM82.1346 290.037V255.118V250.066C82.1346 249.975 82.1346 249.885 82.2249 249.885H86.4657C87.9996 249.885 89.353 250.607 90.2553 251.78C91.7892 250.607 93.684 249.885 95.7593 249.885H100.271C105.324 249.885 109.474 254.036 109.474 259.089V268.021C109.474 268.112 109.384 268.202 109.294 268.202C104.241 268.202 100.09 264.141 100.09 259.089V254.577C100.09 252.141 98.1955 250.246 95.7593 250.246C93.7743 250.246 91.9697 250.878 90.4358 252.051C91.0674 252.863 91.4283 253.945 91.4283 255.118V290.037V295.09C91.4283 295.18 91.3381 295.18 91.2478 295.18H87.0973C84.3001 295.18 82.1346 292.925 82.1346 290.037ZM118.187 249.885C120.894 249.885 123.15 252.231 123.15 255.118V295.09C123.15 295.18 123.059 295.18 122.969 295.18H118.819C116.022 295.18 113.856 292.925 113.856 290.037V255.118C113.856 255.028 113.856 255.028 113.856 255.028V250.066C113.856 249.975 113.856 249.885 114.036 249.885C118.007 249.885 121.435 247.178 122.518 243.389C121.706 244.832 120.172 245.735 118.458 245.735C115.931 245.735 113.856 243.659 113.856 241.043C113.856 238.516 115.931 236.351 118.458 236.351C121.074 236.351 123.15 238.516 123.15 241.043C123.15 245.283 120.262 248.802 116.473 249.885H118.187ZM124.083 250.246C123.993 250.246 123.993 250.156 123.993 250.066C123.993 249.975 123.993 249.885 124.083 249.885H127.692V237.073V232.02C127.692 231.929 127.782 231.929 127.873 231.929H132.023C134.82 231.929 136.986 234.185 136.986 237.073V249.885H140.595C140.685 249.885 140.775 249.975 140.775 250.066C140.775 250.156 140.685 250.246 140.595 250.246H136.986V290.037V295.09C136.986 295.18 136.986 295.18 136.805 295.18H132.655C129.948 295.18 127.692 292.925 127.692 290.037V250.246H124.083ZM159.748 249.885C164.801 249.885 168.952 254.036 168.952 259.089V286.067C168.952 291.12 164.801 295.18 159.748 295.18H150.725C145.673 295.18 141.612 291.12 141.612 286.067V259.089C141.612 254.036 145.673 249.885 150.725 249.885H159.748ZM159.568 290.489V254.577C159.568 252.141 157.583 250.246 155.237 250.246C152.891 250.246 150.906 252.141 150.906 254.577V290.489V290.579C150.906 292.925 152.891 294.91 155.237 294.91C157.583 294.91 159.568 292.925 159.568 290.579V290.489ZM191.47 249.885C196.523 249.885 200.583 254.036 200.583 259.089V268.021C200.583 268.112 200.583 268.202 200.493 268.202C195.44 268.202 191.289 264.141 191.289 259.089V254.577C191.289 252.141 189.304 250.246 186.958 250.246C184.522 250.246 182.627 252.141 182.627 254.577V263.51C182.627 265.946 184.522 267.841 186.958 267.841H191.47C196.523 267.931 200.583 271.991 200.583 277.044V286.067C200.583 291.12 196.523 295.18 191.47 295.18H186.958H182.447C177.394 295.18 173.334 291.12 173.334 286.067V277.044C173.334 276.954 173.334 276.864 173.424 276.864C178.477 276.864 182.627 281.014 182.627 286.067V290.579C182.627 292.925 184.522 294.91 186.958 294.91C189.304 294.91 191.289 292.925 191.289 290.579V272.533C191.289 270.187 189.304 268.202 186.958 268.202H182.447C177.394 268.202 173.334 264.141 173.334 259.089C173.334 254.036 177.394 249.885 182.447 249.885H186.958H191.47Z" fill="#007AFF"/>
<path d="M122.637 248.543C122.637 247.131 123.831 246.012 125.241 246.106L164.805 248.721C165.694 248.78 166.515 248.242 166.814 247.402V247.402C167.359 245.878 169.397 245.603 170.326 246.93L170.649 247.391C171.709 248.905 170.625 250.986 168.777 250.986H167.391H125.08C123.73 250.986 122.637 249.892 122.637 248.543V248.543Z" fill="#007AFF"/>
<path d="M103.166 320.906V303.867H109.211C112.458 303.867 114.678 305.981 114.678 309.145V309.169C114.678 312.333 112.458 314.482 109.211 314.482H104.783V320.906H103.166ZM108.833 305.308H104.783V313.042H108.833C111.455 313.042 113.037 311.589 113.037 309.181V309.157C113.037 306.76 111.455 305.308 108.833 305.308ZM122.648 321.118C119.082 321.118 116.886 318.579 116.886 314.589V314.565C116.886 310.598 119.106 307.976 122.518 307.976C125.93 307.976 128.032 310.527 128.032 314.293V314.955H118.48C118.527 317.93 120.157 319.713 122.683 319.713C124.537 319.713 125.812 318.839 126.226 317.847L126.273 317.765H127.843L127.808 317.859C127.312 319.583 125.458 321.118 122.648 321.118ZM122.518 309.37C120.322 309.37 118.693 310.928 118.492 313.679H126.45C126.273 310.857 124.703 309.37 122.518 309.37ZM135.589 320.988C133.157 320.988 132.153 320.055 132.153 317.741V309.5H130.11V308.189H132.153V304.883H133.771V308.189H136.675V309.5H133.771V317.387C133.771 318.945 134.326 319.595 135.766 319.595C136.12 319.595 136.356 319.583 136.675 319.548V320.894C136.321 320.953 135.967 320.988 135.589 320.988ZM152.119 321.26C148.518 321.26 146.074 319.323 145.826 316.596L145.814 316.466H147.432L147.444 316.596C147.621 318.473 149.581 319.76 152.202 319.76C154.764 319.76 156.606 318.367 156.606 316.454V316.431C156.606 314.86 155.484 313.786 152.863 313.195L151.116 312.806C147.692 312.026 146.251 310.574 146.251 308.224V308.213C146.251 305.509 148.672 303.513 152.072 303.513C155.402 303.513 157.716 305.45 157.917 307.894L157.929 308.047H156.311L156.299 307.906C156.051 306.264 154.445 305.001 152.025 305.013C149.675 305.013 147.892 306.276 147.892 308.177V308.189C147.892 309.688 148.943 310.645 151.529 311.235L153.276 311.637C156.819 312.44 158.247 313.868 158.247 316.242V316.253C158.247 319.264 155.791 321.26 152.119 321.26ZM161.731 320.906V303.124H163.289V310.421H163.443C164.116 308.874 165.485 307.976 167.469 307.976C170.303 307.976 171.92 309.677 171.92 312.64V320.906H170.362V313.03C170.362 310.609 169.252 309.37 167.056 309.37C164.812 309.37 163.289 310.952 163.289 313.349V320.906H161.731ZM180.941 321.118C177.387 321.118 175.167 318.603 175.167 314.553V314.53C175.167 310.48 177.387 307.976 180.941 307.976C184.495 307.976 186.727 310.48 186.727 314.53V314.553C186.727 318.603 184.495 321.118 180.941 321.118ZM180.941 319.725C183.562 319.725 185.121 317.765 185.121 314.553V314.53C185.121 311.318 183.562 309.37 180.941 309.37C178.32 309.37 176.761 311.318 176.761 314.53V314.553C176.761 317.765 178.32 319.725 180.941 319.725ZM190.068 325.121V308.189H191.627V310.716H191.78C192.524 309.015 194.095 307.976 196.043 307.976C199.266 307.976 201.427 310.609 201.427 314.53V314.553C201.427 318.497 199.266 321.118 196.043 321.118C194.118 321.118 192.477 320.067 191.78 318.426H191.627V325.121H190.068ZM195.724 319.725C198.239 319.725 199.833 317.706 199.833 314.553V314.53C199.833 311.389 198.239 309.37 195.724 309.37C193.221 309.37 191.603 311.401 191.603 314.53V314.553C191.603 317.694 193.221 319.725 195.724 319.725Z" fill="#FF459D"/>
</g>
<defs>
<clipPath id="clip0_201_326">
<rect width="220" height="326.906" fill="white"/>
</clipPath>
<clipPath id="clip1_201_326">
<rect width="220" height="163.123" fill="white" transform="translate(0 56.877)"/>
</clipPath>
<clipPath id="clip2_201_326">
<rect width="220" height="220" fill="white"/>
</clipPath>
<clipPath id="clip3_201_326">
<rect width="36.1737" height="47.7766" fill="white" transform="translate(106.019 172.223)"/>
</clipPath>
</defs>
</svg>
