<svg width="253" height="48" viewBox="0 0 253 48" fill="none" xmlns="http://www.w3.org/2000/svg">
<path d="M17.876 7.25098L15.7051 8.16504C15.5358 7.61491 15.3073 7.11133 15.0195 6.6543C14.7402 6.19727 14.4017 5.80794 14.0039 5.48633C13.6146 5.15625 13.1702 4.90234 12.6709 4.72461C12.1715 4.53841 11.6257 4.44531 11.0332 4.44531C10.3984 4.44531 9.81445 4.55111 9.28125 4.7627C8.75651 4.96582 8.28255 5.24935 7.85938 5.61328C7.44466 5.97721 7.08073 6.40039 6.76758 6.88281C6.45443 7.36523 6.19206 7.88151 5.98047 8.43164C5.76888 8.97331 5.6123 9.53613 5.51074 10.1201C5.40918 10.7041 5.3584 11.2754 5.3584 11.834C5.3584 12.7227 5.45996 13.6071 5.66309 14.4873C5.87467 15.3675 6.20475 16.1589 6.65332 16.8613C7.11035 17.5638 7.69857 18.1351 8.41797 18.5752C9.13737 19.0068 10.0091 19.2227 11.0332 19.2227C11.5749 19.2227 12.0869 19.1338 12.5693 18.9561C13.0518 18.7699 13.4876 18.5202 13.877 18.207C14.2747 17.8854 14.6217 17.5088 14.918 17.0771C15.2142 16.6455 15.4512 16.18 15.6289 15.6807L17.8252 16.5566C17.5036 17.3607 17.0635 18.0674 16.5049 18.6768C15.9463 19.2777 15.3073 19.777 14.5879 20.1748C13.877 20.5726 13.111 20.8688 12.29 21.0635C11.4775 21.2666 10.6566 21.3682 9.82715 21.3682C8.93001 21.3682 8.06673 21.2581 7.2373 21.0381C6.41634 20.818 5.65039 20.5049 4.93945 20.0986C4.22852 19.6924 3.58105 19.2015 2.99707 18.626C2.42155 18.0505 1.92643 17.4115 1.51172 16.709C1.10547 16.0065 0.788086 15.2448 0.55957 14.4238C0.339518 13.5944 0.229492 12.7311 0.229492 11.834C0.229492 10.9368 0.339518 10.0778 0.55957 9.25684C0.788086 8.42741 1.10547 7.66146 1.51172 6.95898C1.92643 6.24805 2.42155 5.60482 2.99707 5.0293C3.58105 4.45378 4.22852 3.96289 4.93945 3.55664C5.65039 3.15039 6.41634 2.83724 7.2373 2.61719C8.06673 2.39714 8.93001 2.28711 9.82715 2.28711C10.6904 2.28711 11.5326 2.38867 12.3535 2.5918C13.1829 2.79492 13.9531 3.10384 14.6641 3.51855C15.375 3.9248 16.0055 4.44108 16.5557 5.06738C17.1143 5.68522 17.5544 6.41309 17.876 7.25098ZM19.793 14.7285C19.793 14.0599 19.848 13.3659 19.958 12.6465C20.0765 11.9271 20.2415 11.2077 20.4531 10.4883C20.6732 9.76888 20.9355 9.05794 21.2402 8.35547C21.5449 7.65299 21.8877 6.98014 22.2686 6.33691H25.4043C25.1927 6.97168 25.0023 7.63607 24.833 8.33008C24.6722 9.01562 24.5326 9.7054 24.4141 10.3994C24.304 11.085 24.2152 11.7578 24.1475 12.418C24.0882 13.0781 24.0586 13.6917 24.0586 14.2588C24.0586 14.5889 24.0713 14.9443 24.0967 15.3252C24.1305 15.6976 24.1855 16.0742 24.2617 16.4551C24.3379 16.8275 24.4437 17.1872 24.5791 17.5342C24.723 17.8812 24.9049 18.1901 25.125 18.4609C25.3451 18.7233 25.6117 18.9349 25.9248 19.0957C26.2464 19.248 26.623 19.3242 27.0547 19.3242C27.4779 19.3242 27.8545 19.2311 28.1846 19.0449C28.5231 18.8503 28.8193 18.6006 29.0732 18.2959C29.3271 17.9827 29.543 17.6273 29.7207 17.2295C29.8984 16.8317 30.0423 16.4255 30.1523 16.0107C30.2708 15.5876 30.3555 15.1771 30.4062 14.7793C30.4655 14.373 30.4951 14.0091 30.4951 13.6875V6.33691H34.7861V21H33.1357L31.168 17.585C30.9225 18.152 30.6221 18.6683 30.2666 19.1338C29.9196 19.5908 29.5218 19.9844 29.0732 20.3145C28.6247 20.6445 28.1253 20.8984 27.5752 21.0762C27.0335 21.2539 26.4453 21.3428 25.8105 21.3428C24.7949 21.3428 23.9105 21.1777 23.1572 20.8477C22.404 20.5176 21.7777 20.0605 21.2783 19.4766C20.779 18.8926 20.4066 18.1986 20.1611 17.3945C19.9157 16.582 19.793 15.6934 19.793 14.7285ZM42.873 2.79492C42.873 3.11654 42.8096 3.42122 42.6826 3.70898C42.5641 3.99674 42.3991 4.24642 42.1875 4.45801C41.9759 4.6696 41.7262 4.83887 41.4385 4.96582C41.1507 5.08431 40.846 5.14355 40.5244 5.14355C40.2028 5.14355 39.8981 5.08431 39.6104 4.96582C39.3311 4.83887 39.0856 4.6696 38.874 4.45801C38.6624 4.24642 38.4932 3.99674 38.3662 3.70898C38.2477 3.42122 38.1885 3.11654 38.1885 2.79492C38.1885 2.47331 38.2477 2.17285 38.3662 1.89355C38.4932 1.60579 38.6624 1.35612 38.874 1.14453C39.0856 0.932943 39.3311 0.767904 39.6104 0.649414C39.8981 0.522461 40.2028 0.458984 40.5244 0.458984C40.846 0.458984 41.1507 0.522461 41.4385 0.649414C41.7262 0.767904 41.9759 0.932943 42.1875 1.14453C42.3991 1.35612 42.5641 1.60579 42.6826 1.89355C42.8096 2.17285 42.873 2.47331 42.873 2.79492ZM42.6826 21H38.3789V6.34961H42.6826V21ZM61.0654 21H59.415L57.5107 17.8135C57.3245 18.3467 57.0664 18.8291 56.7363 19.2607C56.4147 19.6924 56.0381 20.0648 55.6064 20.3779C55.1833 20.6826 54.7135 20.9196 54.1973 21.0889C53.6895 21.2581 53.152 21.3428 52.585 21.3428C51.4678 21.3428 50.4691 21.1439 49.5889 20.7461C48.7087 20.3483 47.9639 19.8066 47.3545 19.1211C46.7451 18.4271 46.2796 17.6146 45.958 16.6836C45.6364 15.7526 45.4756 14.7539 45.4756 13.6875C45.4756 12.6211 45.6364 11.6224 45.958 10.6914C46.2796 9.76042 46.7451 8.95215 47.3545 8.2666C47.9639 7.58105 48.7087 7.03939 49.5889 6.6416C50.4691 6.24382 51.4678 6.04492 52.585 6.04492C53.4398 6.04492 54.2227 6.20996 54.9336 6.54004C55.653 6.87012 56.2666 7.38639 56.7744 8.08887V0.941406H61.0654V21ZM56.749 13.6875C56.749 13.349 56.7236 12.9766 56.6729 12.5703C56.6221 12.1641 56.5417 11.7536 56.4316 11.3389C56.3216 10.9242 56.1777 10.5221 56 10.1328C55.8223 9.74349 55.6022 9.39648 55.3398 9.0918C55.0859 8.78711 54.7855 8.5459 54.4385 8.36816C54.0999 8.18197 53.7106 8.08887 53.2705 8.08887C52.7881 8.08887 52.3691 8.17773 52.0137 8.35547C51.6582 8.52474 51.3535 8.75749 51.0996 9.05371C50.8457 9.34147 50.6341 9.67578 50.4648 10.0566C50.304 10.4375 50.1771 10.8353 50.084 11.25C49.9909 11.6647 49.9232 12.0837 49.8809 12.5068C49.847 12.9215 49.8301 13.3151 49.8301 13.6875C49.8301 14.0599 49.847 14.4577 49.8809 14.8809C49.9232 15.2956 49.9909 15.7103 50.084 16.125C50.1771 16.5397 50.304 16.9417 50.4648 17.3311C50.6341 17.7119 50.8457 18.0505 51.0996 18.3467C51.3535 18.6344 51.6582 18.8672 52.0137 19.0449C52.3691 19.2142 52.7881 19.2988 53.2705 19.2988C53.7529 19.2988 54.1761 19.2142 54.54 19.0449C54.904 18.8757 55.2129 18.6471 55.4668 18.3594C55.7292 18.0632 55.9408 17.7288 56.1016 17.3564C56.2708 16.9756 56.402 16.5778 56.4951 16.1631C56.5882 15.7399 56.6517 15.3167 56.6855 14.8936C56.7279 14.4704 56.749 14.0684 56.749 13.6875ZM79.4102 21H75.1191V19.248C74.6113 19.9421 73.9977 20.4583 73.2783 20.7969C72.5674 21.127 71.7845 21.292 70.9297 21.292C69.8125 21.292 68.8138 21.0931 67.9336 20.6953C67.0534 20.2975 66.3086 19.7559 65.6992 19.0703C65.0898 18.3763 64.6243 17.5638 64.3027 16.6328C63.9811 15.7018 63.8203 14.7031 63.8203 13.6367C63.8203 12.5703 63.9811 11.5716 64.3027 10.6406C64.6243 9.70964 65.0898 8.90137 65.6992 8.21582C66.3086 7.52181 67.0534 6.97591 67.9336 6.57812C68.8138 6.18034 69.8125 5.98145 70.9297 5.98145C71.4967 5.98145 72.0342 6.06608 72.542 6.23535C73.0583 6.40462 73.528 6.64583 73.9512 6.95898C74.3828 7.26367 74.7594 7.63607 75.0811 8.07617C75.4111 8.50781 75.6693 8.99023 75.8555 9.52344L77.7598 6.33691H79.4102V21ZM75.0938 13.6367C75.0938 13.2559 75.0726 12.8538 75.0303 12.4307C74.9964 12.0075 74.9329 11.5885 74.8398 11.1738C74.7467 10.7591 74.6156 10.3656 74.4463 9.99316C74.2855 9.6123 74.0739 9.27799 73.8115 8.99023C73.5576 8.69401 73.2487 8.46126 72.8848 8.29199C72.5208 8.12272 72.0977 8.03809 71.6152 8.03809C71.1328 8.03809 70.7139 8.12695 70.3584 8.30469C70.0029 8.47396 69.6982 8.70671 69.4443 9.00293C69.1904 9.29069 68.9788 9.625 68.8096 10.0059C68.6488 10.3867 68.5218 10.7845 68.4287 11.1992C68.3356 11.6139 68.2679 12.0329 68.2256 12.4561C68.1917 12.8708 68.1748 13.2643 68.1748 13.6367C68.1748 14.0091 68.1917 14.4069 68.2256 14.8301C68.2679 15.2533 68.3356 15.6722 68.4287 16.0869C68.5218 16.5016 68.6488 16.8994 68.8096 17.2803C68.9788 17.6611 69.1904 17.9997 69.4443 18.2959C69.6982 18.5837 70.0029 18.8164 70.3584 18.9941C70.7139 19.1634 71.1328 19.248 71.6152 19.248C72.0553 19.248 72.4447 19.1592 72.7832 18.9814C73.1302 18.7952 73.4307 18.5498 73.6846 18.2451C73.9469 17.9404 74.167 17.5934 74.3447 17.2041C74.5225 16.8148 74.6663 16.4128 74.7764 15.998C74.8864 15.5833 74.9668 15.1729 75.0176 14.7666C75.0684 14.3519 75.0938 13.9753 75.0938 13.6367ZM97.7803 21H96.1299L94.2256 17.8135C94.0394 18.3467 93.7812 18.8291 93.4512 19.2607C93.1296 19.6924 92.7529 20.0648 92.3213 20.3779C91.8981 20.6826 91.4284 20.9196 90.9121 21.0889C90.4043 21.2581 89.8669 21.3428 89.2998 21.3428C88.1826 21.3428 87.1839 21.1439 86.3037 20.7461C85.4235 20.3483 84.6787 19.8066 84.0693 19.1211C83.46 18.4271 82.9945 17.6146 82.6729 16.6836C82.3512 15.7526 82.1904 14.7539 82.1904 13.6875C82.1904 12.6211 82.3512 11.6224 82.6729 10.6914C82.9945 9.76042 83.46 8.95215 84.0693 8.2666C84.6787 7.58105 85.4235 7.03939 86.3037 6.6416C87.1839 6.24382 88.1826 6.04492 89.2998 6.04492C90.1546 6.04492 90.9375 6.20996 91.6484 6.54004C92.3678 6.87012 92.9814 7.38639 93.4893 8.08887V0.941406H97.7803V21ZM93.4639 13.6875C93.4639 13.349 93.4385 12.9766 93.3877 12.5703C93.3369 12.1641 93.2565 11.7536 93.1465 11.3389C93.0365 10.9242 92.8926 10.5221 92.7148 10.1328C92.5371 9.74349 92.3171 9.39648 92.0547 9.0918C91.8008 8.78711 91.5003 8.5459 91.1533 8.36816C90.8148 8.18197 90.4255 8.08887 89.9854 8.08887C89.5029 8.08887 89.084 8.17773 88.7285 8.35547C88.373 8.52474 88.0684 8.75749 87.8145 9.05371C87.5605 9.34147 87.349 9.67578 87.1797 10.0566C87.0189 10.4375 86.8919 10.8353 86.7988 11.25C86.7057 11.6647 86.638 12.0837 86.5957 12.5068C86.5618 12.9215 86.5449 13.3151 86.5449 13.6875C86.5449 14.0599 86.5618 14.4577 86.5957 14.8809C86.638 15.2956 86.7057 15.7103 86.7988 16.125C86.8919 16.5397 87.0189 16.9417 87.1797 17.3311C87.349 17.7119 87.5605 18.0505 87.8145 18.3467C88.0684 18.6344 88.373 18.8672 88.7285 19.0449C89.084 19.2142 89.5029 19.2988 89.9854 19.2988C90.4678 19.2988 90.891 19.2142 91.2549 19.0449C91.6188 18.8757 91.9277 18.6471 92.1816 18.3594C92.444 18.0632 92.6556 17.7288 92.8164 17.3564C92.9857 16.9756 93.1169 16.5778 93.21 16.1631C93.3031 15.7399 93.3665 15.3167 93.4004 14.8936C93.4427 14.4704 93.4639 14.0684 93.4639 13.6875ZM116.849 13.6367C116.849 14.3984 116.747 15.1136 116.544 15.7822C116.341 16.4508 116.057 17.0687 115.693 17.6357C115.338 18.2028 114.906 18.7148 114.398 19.1719C113.891 19.6204 113.332 20.0013 112.723 20.3145C112.122 20.6276 111.474 20.8688 110.78 21.0381C110.095 21.2074 109.388 21.292 108.66 21.292C107.932 21.292 107.226 21.2074 106.54 21.0381C105.854 20.8688 105.207 20.6276 104.598 20.3145C103.997 20.0013 103.442 19.6204 102.935 19.1719C102.427 18.7148 101.991 18.2028 101.627 17.6357C101.271 17.0687 100.992 16.4508 100.789 15.7822C100.586 15.1051 100.484 14.39 100.484 13.6367C100.484 12.8835 100.586 12.1725 100.789 11.5039C100.992 10.8268 101.271 10.2048 101.627 9.6377C101.991 9.07064 102.427 8.56283 102.935 8.11426C103.442 7.65723 103.997 7.27214 104.598 6.95898C105.207 6.64583 105.854 6.40462 106.54 6.23535C107.226 6.06608 107.932 5.98145 108.66 5.98145C109.388 5.98145 110.095 6.06608 110.78 6.23535C111.474 6.40462 112.122 6.64583 112.723 6.95898C113.332 7.27214 113.891 7.65723 114.398 8.11426C114.906 8.56283 115.338 9.07064 115.693 9.6377C116.057 10.2048 116.341 10.8268 116.544 11.5039C116.747 12.1725 116.849 12.8835 116.849 13.6367ZM112.481 13.6367C112.481 13.2305 112.456 12.8031 112.405 12.3545C112.363 11.8975 112.287 11.4531 112.177 11.0215C112.067 10.5814 111.914 10.1624 111.72 9.76465C111.534 9.3584 111.301 9.00716 111.021 8.71094C110.742 8.40625 110.408 8.16504 110.019 7.9873C109.629 7.80111 109.176 7.70801 108.66 7.70801C108.169 7.70801 107.733 7.80111 107.353 7.9873C106.972 8.1735 106.637 8.42318 106.35 8.73633C106.07 9.04102 105.833 9.39648 105.639 9.80273C105.452 10.209 105.3 10.6322 105.182 11.0723C105.063 11.5039 104.979 11.944 104.928 12.3926C104.877 12.8327 104.852 13.2474 104.852 13.6367C104.852 14.026 104.877 14.445 104.928 14.8936C104.979 15.3337 105.063 15.7738 105.182 16.2139C105.3 16.654 105.452 17.0771 105.639 17.4834C105.833 17.8812 106.07 18.2367 106.35 18.5498C106.637 18.8545 106.972 19.0999 107.353 19.2861C107.733 19.4723 108.169 19.5654 108.66 19.5654C109.168 19.5654 109.617 19.4766 110.006 19.2988C110.395 19.1126 110.729 18.8672 111.009 18.5625C111.297 18.2578 111.534 17.9066 111.72 17.5088C111.906 17.111 112.054 16.6921 112.164 16.252C112.283 15.8118 112.363 15.3675 112.405 14.9189C112.456 14.4704 112.481 14.043 112.481 13.6367ZM130.722 21.1934C127.478 21.1934 125.479 18.8838 125.479 15.2529V15.2314C125.479 11.6221 127.499 9.2373 130.604 9.2373C133.708 9.2373 135.62 11.5576 135.62 14.9844V15.5859H126.93C126.973 18.293 128.455 19.915 130.754 19.915C132.44 19.915 133.601 19.1201 133.977 18.2178L134.02 18.1426H135.448L135.416 18.2285C134.965 19.7969 133.278 21.1934 130.722 21.1934ZM130.604 10.5049C128.605 10.5049 127.123 11.9229 126.94 14.4258H134.181C134.02 11.8584 132.591 10.5049 130.604 10.5049ZM158.647 9.96777L156.794 10.7041C156.498 9.77311 156.003 9.05794 155.309 8.55859C154.615 8.05924 153.781 7.80957 152.808 7.80957C152.283 7.80957 151.813 7.89421 151.398 8.06348C150.992 8.22428 150.632 8.44857 150.319 8.73633C150.015 9.02409 149.752 9.3584 149.532 9.73926C149.321 10.1201 149.147 10.5264 149.012 10.958C148.876 11.3896 148.779 11.8382 148.72 12.3037C148.66 12.7607 148.631 13.2051 148.631 13.6367C148.631 14.1022 148.656 14.5719 148.707 15.0459C148.758 15.5199 148.842 15.9769 148.961 16.417C149.088 16.8486 149.253 17.2549 149.456 17.6357C149.659 18.0081 149.913 18.334 150.218 18.6133C150.531 18.8926 150.899 19.1126 151.322 19.2734C151.754 19.4342 152.249 19.5146 152.808 19.5146C153.256 19.5146 153.684 19.4469 154.09 19.3115C154.496 19.1761 154.868 18.9857 155.207 18.7402C155.546 18.4948 155.846 18.2028 156.108 17.8643C156.371 17.5257 156.578 17.1491 156.73 16.7344L158.597 17.4199C158.317 18.0885 157.945 18.6683 157.479 19.1592C157.022 19.6416 156.502 20.0436 155.918 20.3652C155.334 20.6784 154.708 20.9111 154.039 21.0635C153.37 21.2158 152.693 21.292 152.008 21.292C150.899 21.292 149.871 21.1058 148.923 20.7334C147.975 20.3525 147.154 19.8236 146.46 19.1465C145.774 18.4609 145.237 17.6527 144.848 16.7217C144.458 15.7822 144.264 14.7539 144.264 13.6367C144.264 12.5111 144.454 11.4785 144.835 10.5391C145.224 9.59961 145.762 8.79134 146.447 8.11426C147.133 7.43717 147.95 6.91243 148.897 6.54004C149.845 6.16764 150.882 5.98145 152.008 5.98145C152.719 5.98145 153.413 6.06185 154.09 6.22266C154.767 6.375 155.393 6.61621 155.969 6.94629C156.553 7.2679 157.073 7.67839 157.53 8.17773C157.996 8.67708 158.368 9.27376 158.647 9.96777ZM175.951 21H171.66V19.248C171.152 19.9421 170.539 20.4583 169.819 20.7969C169.108 21.127 168.326 21.292 167.471 21.292C166.354 21.292 165.355 21.0931 164.475 20.6953C163.594 20.2975 162.85 19.7559 162.24 19.0703C161.631 18.3763 161.165 17.5638 160.844 16.6328C160.522 15.7018 160.361 14.7031 160.361 13.6367C160.361 12.5703 160.522 11.5716 160.844 10.6406C161.165 9.70964 161.631 8.90137 162.24 8.21582C162.85 7.52181 163.594 6.97591 164.475 6.57812C165.355 6.18034 166.354 5.98145 167.471 5.98145C168.038 5.98145 168.575 6.06608 169.083 6.23535C169.599 6.40462 170.069 6.64583 170.492 6.95898C170.924 7.26367 171.3 7.63607 171.622 8.07617C171.952 8.50781 172.21 8.99023 172.396 9.52344L174.301 6.33691H175.951V21ZM171.635 13.6367C171.635 13.2559 171.614 12.8538 171.571 12.4307C171.537 12.0075 171.474 11.5885 171.381 11.1738C171.288 10.7591 171.157 10.3656 170.987 9.99316C170.826 9.6123 170.615 9.27799 170.353 8.99023C170.099 8.69401 169.79 8.46126 169.426 8.29199C169.062 8.12272 168.639 8.03809 168.156 8.03809C167.674 8.03809 167.255 8.12695 166.899 8.30469C166.544 8.47396 166.239 8.70671 165.985 9.00293C165.731 9.29069 165.52 9.625 165.351 10.0059C165.19 10.3867 165.063 10.7845 164.97 11.1992C164.877 11.6139 164.809 12.0329 164.767 12.4561C164.733 12.8708 164.716 13.2643 164.716 13.6367C164.716 14.0091 164.733 14.4069 164.767 14.8301C164.809 15.2533 164.877 15.6722 164.97 16.0869C165.063 16.5016 165.19 16.8994 165.351 17.2803C165.52 17.6611 165.731 17.9997 165.985 18.2959C166.239 18.5837 166.544 18.8164 166.899 18.9941C167.255 19.1634 167.674 19.248 168.156 19.248C168.596 19.248 168.986 19.1592 169.324 18.9814C169.671 18.7952 169.972 18.5498 170.226 18.2451C170.488 17.9404 170.708 17.5934 170.886 17.2041C171.063 16.8148 171.207 16.4128 171.317 15.998C171.427 15.5833 171.508 15.1729 171.559 14.7666C171.609 14.3519 171.635 13.9753 171.635 13.6367ZM192.011 7.63184L189.599 11.6309C189.497 11.2923 189.366 10.9115 189.205 10.4883C189.044 10.0651 188.845 9.67155 188.608 9.30762C188.371 8.93522 188.088 8.6263 187.758 8.38086C187.428 8.12695 187.047 8 186.615 8C186.217 8 185.87 8.10156 185.574 8.30469C185.286 8.50781 185.041 8.77441 184.838 9.10449C184.635 9.42611 184.465 9.79427 184.33 10.209C184.203 10.6152 184.102 11.0299 184.025 11.4531C183.958 11.8678 183.911 12.2699 183.886 12.6592C183.86 13.04 183.848 13.3701 183.848 13.6494V21H179.544V6.33691H181.194L182.934 9.75195C183.171 9.20182 183.441 8.69824 183.746 8.24121C184.051 7.77572 184.402 7.37793 184.8 7.04785C185.198 6.70931 185.646 6.44694 186.146 6.26074C186.653 6.07454 187.225 5.98145 187.859 5.98145C188.189 5.98145 188.558 6.01107 188.964 6.07031C189.37 6.12109 189.768 6.21419 190.157 6.34961C190.547 6.47656 190.906 6.64583 191.236 6.85742C191.566 7.06901 191.825 7.32715 192.011 7.63184ZM198.32 2.79492C198.32 3.11654 198.257 3.42122 198.13 3.70898C198.011 3.99674 197.846 4.24642 197.635 4.45801C197.423 4.6696 197.174 4.83887 196.886 4.96582C196.598 5.08431 196.293 5.14355 195.972 5.14355C195.65 5.14355 195.345 5.08431 195.058 4.96582C194.778 4.83887 194.533 4.6696 194.321 4.45801C194.11 4.24642 193.94 3.99674 193.813 3.70898C193.695 3.42122 193.636 3.11654 193.636 2.79492C193.636 2.47331 193.695 2.17285 193.813 1.89355C193.94 1.60579 194.11 1.35612 194.321 1.14453C194.533 0.932943 194.778 0.767904 195.058 0.649414C195.345 0.522461 195.65 0.458984 195.972 0.458984C196.293 0.458984 196.598 0.522461 196.886 0.649414C197.174 0.767904 197.423 0.932943 197.635 1.14453C197.846 1.35612 198.011 1.60579 198.13 1.89355C198.257 2.17285 198.32 2.47331 198.32 2.79492ZM198.13 21H193.826V6.34961H198.13V21ZM216.729 12.5957C216.729 13.5859 216.606 14.6185 216.36 15.6934C216.123 16.7682 215.789 17.8219 215.357 18.8545C214.926 19.887 214.41 20.8561 213.809 21.7617C213.208 22.6758 212.548 23.4629 211.828 24.123L210.216 23.2471C210.444 22.8239 210.66 22.3499 210.863 21.8252C211.066 21.3005 211.248 20.7461 211.409 20.1621C211.578 19.5697 211.727 18.9603 211.854 18.334C211.989 17.7077 212.099 17.0898 212.184 16.4805C212.277 15.8626 212.344 15.266 212.387 14.6904C212.438 14.1064 212.463 13.5648 212.463 13.0654C212.463 12.7354 212.45 12.3841 212.425 12.0117C212.399 11.6309 212.344 11.2542 212.26 10.8818C212.184 10.501 212.078 10.137 211.942 9.79004C211.807 9.44303 211.625 9.13835 211.396 8.87598C211.176 8.61361 210.906 8.40202 210.584 8.24121C210.271 8.0804 209.898 8 209.467 8C209.044 8 208.667 8.09733 208.337 8.29199C208.007 8.47819 207.715 8.72786 207.461 9.04102C207.207 9.3457 206.987 9.69694 206.801 10.0947C206.623 10.4925 206.475 10.903 206.356 11.3262C206.246 11.7409 206.166 12.1514 206.115 12.5576C206.064 12.9639 206.039 13.3278 206.039 13.6494V21H201.735V6.33691H203.386L205.354 9.75195C205.59 9.1849 205.887 8.66862 206.242 8.20312C206.598 7.73763 207 7.33984 207.448 7.00977C207.897 6.67969 208.392 6.42578 208.934 6.24805C209.484 6.07031 210.076 5.98145 210.711 5.98145C211.727 5.98145 212.611 6.14648 213.364 6.47656C214.118 6.80664 214.744 7.2679 215.243 7.86035C215.743 8.44434 216.115 9.14258 216.36 9.95508C216.606 10.7591 216.729 11.6393 216.729 12.5957ZM234.553 12.5957C234.553 13.5859 234.43 14.6185 234.185 15.6934C233.948 16.7682 233.613 17.8219 233.182 18.8545C232.75 19.887 232.234 20.8561 231.633 21.7617C231.032 22.6758 230.372 23.4629 229.652 24.123L228.04 23.2471C228.269 22.8239 228.484 22.3499 228.688 21.8252C228.891 21.3005 229.073 20.7461 229.233 20.1621C229.403 19.5697 229.551 18.9603 229.678 18.334C229.813 17.7077 229.923 17.0898 230.008 16.4805C230.101 15.8626 230.169 15.266 230.211 14.6904C230.262 14.1064 230.287 13.5648 230.287 13.0654C230.287 12.7354 230.274 12.3841 230.249 12.0117C230.224 11.6309 230.169 11.2542 230.084 10.8818C230.008 10.501 229.902 10.137 229.767 9.79004C229.631 9.44303 229.449 9.13835 229.221 8.87598C229.001 8.61361 228.73 8.40202 228.408 8.24121C228.095 8.0804 227.723 8 227.291 8C226.868 8 226.491 8.09733 226.161 8.29199C225.831 8.47819 225.539 8.72786 225.285 9.04102C225.031 9.3457 224.811 9.69694 224.625 10.0947C224.447 10.4925 224.299 10.903 224.181 11.3262C224.071 11.7409 223.99 12.1514 223.939 12.5576C223.889 12.9639 223.863 13.3278 223.863 13.6494V21H219.56V0.941406H223.851V8.49512C224.401 7.69108 225.074 7.07324 225.869 6.6416C226.673 6.2015 227.562 5.98145 228.535 5.98145C229.551 5.98145 230.435 6.14648 231.188 6.47656C231.942 6.80664 232.568 7.2679 233.067 7.86035C233.567 8.44434 233.939 9.14258 234.185 9.95508C234.43 10.7591 234.553 11.6393 234.553 12.5957ZM252.872 13.6367C252.872 14.3984 252.771 15.1136 252.567 15.7822C252.364 16.4508 252.081 17.0687 251.717 17.6357C251.361 18.2028 250.93 18.7148 250.422 19.1719C249.914 19.6204 249.355 20.0013 248.746 20.3145C248.145 20.6276 247.498 20.8688 246.804 21.0381C246.118 21.2074 245.411 21.292 244.684 21.292C243.956 21.292 243.249 21.2074 242.563 21.0381C241.878 20.8688 241.23 20.6276 240.621 20.3145C240.02 20.0013 239.466 19.6204 238.958 19.1719C238.45 18.7148 238.014 18.2028 237.65 17.6357C237.295 17.0687 237.016 16.4508 236.812 15.7822C236.609 15.1051 236.508 14.39 236.508 13.6367C236.508 12.8835 236.609 12.1725 236.812 11.5039C237.016 10.8268 237.295 10.2048 237.65 9.6377C238.014 9.07064 238.45 8.56283 238.958 8.11426C239.466 7.65723 240.02 7.27214 240.621 6.95898C241.23 6.64583 241.878 6.40462 242.563 6.23535C243.249 6.06608 243.956 5.98145 244.684 5.98145C245.411 5.98145 246.118 6.06608 246.804 6.23535C247.498 6.40462 248.145 6.64583 248.746 6.95898C249.355 7.27214 249.914 7.65723 250.422 8.11426C250.93 8.56283 251.361 9.07064 251.717 9.6377C252.081 10.2048 252.364 10.8268 252.567 11.5039C252.771 12.1725 252.872 12.8835 252.872 13.6367ZM248.505 13.6367C248.505 13.2305 248.479 12.8031 248.429 12.3545C248.386 11.8975 248.31 11.4531 248.2 11.0215C248.09 10.5814 247.938 10.1624 247.743 9.76465C247.557 9.3584 247.324 9.00716 247.045 8.71094C246.766 8.40625 246.431 8.16504 246.042 7.9873C245.653 7.80111 245.2 7.70801 244.684 7.70801C244.193 7.70801 243.757 7.80111 243.376 7.9873C242.995 8.1735 242.661 8.42318 242.373 8.73633C242.094 9.04102 241.857 9.39648 241.662 9.80273C241.476 10.209 241.324 10.6322 241.205 11.0723C241.087 11.5039 241.002 11.944 240.951 12.3926C240.9 12.8327 240.875 13.2474 240.875 13.6367C240.875 14.026 240.9 14.445 240.951 14.8936C241.002 15.3337 241.087 15.7738 241.205 16.2139C241.324 16.654 241.476 17.0771 241.662 17.4834C241.857 17.8812 242.094 18.2367 242.373 18.5498C242.661 18.8545 242.995 19.0999 243.376 19.2861C243.757 19.4723 244.193 19.5654 244.684 19.5654C245.191 19.5654 245.64 19.4766 246.029 19.2988C246.419 19.1126 246.753 18.8672 247.032 18.5625C247.32 18.2578 247.557 17.9066 247.743 17.5088C247.929 17.111 248.077 16.6921 248.188 16.252C248.306 15.8118 248.386 15.3675 248.429 14.9189C248.479 14.4704 248.505 14.043 248.505 13.6367ZM1.9873 46.835V31.4307H3.40527V33.7295H3.54492C4.22168 32.1826 5.65039 31.2373 7.42285 31.2373C10.3555 31.2373 12.3213 33.6328 12.3213 37.1992V37.2207C12.3213 40.8086 10.3555 43.1934 7.42285 43.1934C5.67188 43.1934 4.17871 42.2373 3.54492 40.7441H3.40527V46.835H1.9873ZM7.13281 41.9258C9.4209 41.9258 10.8711 40.0889 10.8711 37.2207V37.1992C10.8711 34.3418 9.4209 32.5049 7.13281 32.5049C4.85547 32.5049 3.38379 34.3525 3.38379 37.1992V37.2207C3.38379 40.0781 4.85547 41.9258 7.13281 41.9258ZM18.541 43.1934C16.3066 43.1934 14.6738 41.8721 14.6738 39.8096V39.7881C14.6738 37.7793 16.167 36.6084 18.8418 36.4258L22.4512 36.1895V35.1045C22.4512 33.4072 21.4199 32.5049 19.5508 32.5049C17.9824 32.5049 16.876 33.1387 16.5752 34.2881L16.5645 34.3096H15.1357L15.1465 34.2666C15.4473 32.4189 17.1982 31.2373 19.5938 31.2373C22.3008 31.2373 23.8799 32.6553 23.8799 35.0938V43H22.4512V41.0127H22.3223C21.6348 42.3877 20.249 43.1934 18.541 43.1934ZM16.124 39.7881C16.124 41.1094 17.252 41.9473 18.8096 41.9473C20.8828 41.9473 22.4512 40.5293 22.4512 38.6924V37.3496L19.0352 37.5859C17.0693 37.7148 16.124 38.4561 16.124 39.7666V39.7881ZM27.4463 43V31.4307H28.8643V33.332H29.0039C29.4551 32.0107 30.583 31.2373 32.1514 31.2373C32.5703 31.2373 32.957 31.2803 33.2363 31.3447V32.7412C32.8174 32.6338 32.4414 32.5908 32.001 32.5908C30.1963 32.5908 28.8643 33.9121 28.8643 35.7812V43H27.4463ZM38.6289 43.1934C36.3945 43.1934 34.7617 41.8721 34.7617 39.8096V39.7881C34.7617 37.7793 36.2549 36.6084 38.9297 36.4258L42.5391 36.1895V35.1045C42.5391 33.4072 41.5078 32.5049 39.6387 32.5049C38.0703 32.5049 36.9639 33.1387 36.6631 34.2881L36.6523 34.3096H35.2236L35.2344 34.2666C35.5352 32.4189 37.2861 31.2373 39.6816 31.2373C42.3887 31.2373 43.9678 32.6553 43.9678 35.0938V43H42.5391V41.0127H42.4102C41.7227 42.3877 40.3369 43.1934 38.6289 43.1934ZM36.2119 39.7881C36.2119 41.1094 37.3398 41.9473 38.8975 41.9473C40.9707 41.9473 42.5391 40.5293 42.5391 38.6924V37.3496L39.123 37.5859C37.1572 37.7148 36.2119 38.4561 36.2119 39.7666V39.7881ZM58.1367 43.1934C54.9033 43.1934 52.8838 40.9053 52.8838 37.2207V37.1992C52.8838 33.5146 54.9033 31.2373 58.1367 31.2373C61.3701 31.2373 63.4004 33.5146 63.4004 37.1992V37.2207C63.4004 40.9053 61.3701 43.1934 58.1367 43.1934ZM58.1367 41.9258C60.5215 41.9258 61.9395 40.1426 61.9395 37.2207V37.1992C61.9395 34.2773 60.5215 32.5049 58.1367 32.5049C55.752 32.5049 54.334 34.2773 54.334 37.1992V37.2207C54.334 40.1426 55.752 41.9258 58.1367 41.9258ZM76.2588 43.1934C73.7344 43.1934 71.9834 41.9902 71.7471 40.0996H73.208C73.5195 41.249 74.626 41.9902 76.3018 41.9902C77.999 41.9902 79.2773 41.1201 79.2773 39.917V39.8955C79.2773 38.8965 78.5576 38.3057 76.8711 37.9082L75.2598 37.5215C73.1113 37.0166 72.1123 36.125 72.1123 34.5029V34.4922C72.1123 32.623 73.9492 31.2373 76.2803 31.2373C78.6113 31.2373 80.2656 32.4082 80.5342 34.2344H79.1377C78.8799 33.1602 77.8057 32.4297 76.2695 32.4297C74.7549 32.4297 73.5625 33.2783 73.5625 34.4277V34.4492C73.5625 35.3945 74.2715 35.9424 75.8076 36.3076L77.4082 36.6836C79.6426 37.2207 80.7275 38.123 80.7275 39.7881V39.8096C80.7275 41.7969 78.7832 43.1934 76.2588 43.1934ZM88.3975 43.1934C85.1533 43.1934 83.1553 40.8838 83.1553 37.2529V37.2314C83.1553 33.6221 85.1748 31.2373 88.2793 31.2373C91.3838 31.2373 93.2959 33.5576 93.2959 36.9844V37.5859H84.6055C84.6484 40.293 86.1309 41.915 88.4297 41.915C90.1162 41.915 91.2764 41.1201 91.6523 40.2178L91.6953 40.1426H93.124L93.0918 40.2285C92.6406 41.7969 90.9541 43.1934 88.3975 43.1934ZM88.2793 32.5049C86.2812 32.5049 84.7988 33.9229 84.6162 36.4258H91.8564C91.6953 33.8584 90.2666 32.5049 88.2793 32.5049ZM100.311 43.1934C97.7109 43.1934 96.25 41.6035 96.25 38.9502V31.4307H97.668V38.5957C97.668 40.7549 98.667 41.9258 100.654 41.9258C102.813 41.9258 104.103 40.4971 104.103 38.3057V31.4307H105.521V43H104.103V40.9805H103.974C103.404 42.377 102.104 43.1934 100.311 43.1934ZM115.081 43V31.4307H116.499V33.4717H116.639C117.133 32.0859 118.325 31.2373 119.904 31.2373C121.526 31.2373 122.687 32.1289 123.181 33.5146H123.32C123.911 32.1289 125.265 31.2373 126.93 31.2373C129.25 31.2373 130.593 32.6338 130.593 35.083V43H129.164V35.4053C129.164 33.5146 128.251 32.5049 126.511 32.5049C124.728 32.5049 123.535 33.8691 123.535 35.6631V43H122.117V35.2549C122.117 33.5898 121.064 32.5049 119.464 32.5049C117.788 32.5049 116.499 34.0088 116.499 35.8994V43H115.081ZM138.778 43.1934C135.534 43.1934 133.536 40.8838 133.536 37.2529V37.2314C133.536 33.6221 135.556 31.2373 138.66 31.2373C141.765 31.2373 143.677 33.5576 143.677 36.9844V37.5859H134.986C135.029 40.293 136.512 41.915 138.811 41.915C140.497 41.915 141.657 41.1201 142.033 40.2178L142.076 40.1426H143.505L143.473 40.2285C143.021 41.7969 141.335 43.1934 138.778 43.1934ZM138.66 32.5049C136.662 32.5049 135.18 33.9229 134.997 36.4258H142.237C142.076 33.8584 140.647 32.5049 138.66 32.5049ZM146.835 43V26.8223H148.253V43H146.835ZM152.099 43V26.8223H153.517V33.4609H153.656C154.269 32.0537 155.515 31.2373 157.319 31.2373C159.897 31.2373 161.369 32.7842 161.369 35.4805V43H159.951V35.835C159.951 33.6328 158.941 32.5049 156.943 32.5049C154.902 32.5049 153.517 33.9443 153.517 36.125V43H152.099ZM169.576 43.1934C166.343 43.1934 164.323 40.9053 164.323 37.2207V37.1992C164.323 33.5146 166.343 31.2373 169.576 31.2373C172.81 31.2373 174.84 33.5146 174.84 37.1992V37.2207C174.84 40.9053 172.81 43.1934 169.576 43.1934ZM169.576 41.9258C171.961 41.9258 173.379 40.1426 173.379 37.2207V37.1992C173.379 34.2773 171.961 32.5049 169.576 32.5049C167.191 32.5049 165.773 34.2773 165.773 37.1992V37.2207C165.773 40.1426 167.191 41.9258 169.576 41.9258ZM177.88 43V31.4307H179.298V33.332H179.438C179.889 32.0107 181.017 31.2373 182.585 31.2373C183.004 31.2373 183.391 31.2803 183.67 31.3447V32.7412C183.251 32.6338 182.875 32.5908 182.435 32.5908C180.63 32.5908 179.298 33.9121 179.298 35.7812V43H177.88ZM195.207 43.1934C192.973 43.1934 191.34 41.8721 191.34 39.8096V39.7881C191.34 37.7793 192.833 36.6084 195.508 36.4258L199.117 36.1895V35.1045C199.117 33.4072 198.086 32.5049 196.217 32.5049C194.648 32.5049 193.542 33.1387 193.241 34.2881L193.23 34.3096H191.802L191.812 34.2666C192.113 32.4189 193.864 31.2373 196.26 31.2373C198.967 31.2373 200.546 32.6553 200.546 35.0938V43H199.117V41.0127H198.988C198.301 42.3877 196.915 43.1934 195.207 43.1934ZM192.79 39.7881C192.79 41.1094 193.918 41.9473 195.476 41.9473C197.549 41.9473 199.117 40.5293 199.117 38.6924V37.3496L195.701 37.5859C193.735 37.7148 192.79 38.4561 192.79 39.7666V39.7881ZM204.112 43V31.4307H205.53V33.4717H205.67C206.164 32.0859 207.356 31.2373 208.936 31.2373C210.558 31.2373 211.718 32.1289 212.212 33.5146H212.352C212.942 32.1289 214.296 31.2373 215.961 31.2373C218.281 31.2373 219.624 32.6338 219.624 35.083V43H218.195V35.4053C218.195 33.5146 217.282 32.5049 215.542 32.5049C213.759 32.5049 212.566 33.8691 212.566 35.6631V43H211.148V35.2549C211.148 33.5898 210.096 32.5049 208.495 32.5049C206.819 32.5049 205.53 34.0088 205.53 35.8994V43H204.112ZM223.932 29.0244C223.352 29.0244 222.879 28.5625 222.879 27.9824C222.879 27.4023 223.352 26.9404 223.932 26.9404C224.501 26.9404 224.974 27.4023 224.974 27.9824C224.974 28.5625 224.501 29.0244 223.932 29.0244ZM223.212 43V31.4307H224.63V43H223.212ZM233.02 47.0391C230.366 47.0391 228.604 45.8574 228.304 44.0635L228.314 44.0527H229.786L229.797 44.0635C230.055 45.0732 231.258 45.7715 233.02 45.7715C235.254 45.7715 236.64 44.6328 236.64 42.7637V40.1748H236.5C235.812 41.7002 234.395 42.5811 232.622 42.5811C229.646 42.5811 227.745 40.25 227.745 36.9307V36.9092C227.745 33.6006 229.657 31.2373 232.644 31.2373C234.427 31.2373 235.855 32.2256 236.521 33.7725H236.618V31.4307H238.047V42.8604C238.047 45.3848 236.06 47.0391 233.02 47.0391ZM232.901 41.3135C235.222 41.3135 236.661 39.541 236.661 36.9521V36.9307C236.661 34.3418 235.189 32.5049 232.901 32.5049C230.592 32.5049 229.195 34.3203 229.195 36.9092V36.9307C229.195 39.5195 230.592 41.3135 232.901 41.3135ZM246.34 43.1934C243.106 43.1934 241.087 40.9053 241.087 37.2207V37.1992C241.087 33.5146 243.106 31.2373 246.34 31.2373C249.573 31.2373 251.604 33.5146 251.604 37.1992V37.2207C251.604 40.9053 249.573 43.1934 246.34 43.1934ZM246.34 41.9258C248.725 41.9258 250.143 40.1426 250.143 37.2207V37.1992C250.143 34.2773 248.725 32.5049 246.34 32.5049C243.955 32.5049 242.537 34.2773 242.537 37.1992V37.2207C242.537 40.1426 243.955 41.9258 246.34 41.9258Z" fill="white"/>
</svg>
