<svg width="348" height="178" viewBox="0 0 348 178" fill="none" xmlns="http://www.w3.org/2000/svg">
<path d="M2 125.075C0.958638 125.075 0.114447 125.919 0.114447 126.961C0.114447 128.002 0.958637 128.846 2 128.846L2 125.075ZM326.944 126.961C326.944 132.515 331.446 137.017 337 137.017C342.554 137.017 347.056 132.515 347.056 126.961C347.056 121.407 342.554 116.904 337 116.904C331.446 116.904 326.944 121.407 326.944 126.961ZM2 128.846L337 128.846L337 125.075L2 125.075L2 128.846Z" fill="#F57EB6"/>
<path d="M18.8126 153.74C13.9416 153.74 10.1705 149.655 10.1705 144.627V52.5488C10.1705 52.3917 10.1705 52.3917 10.1705 52.3917V43.7495C10.1705 43.5924 10.3276 43.4353 10.4848 43.4353H17.7127C20.3839 43.4353 22.7409 44.6923 24.3122 46.735C26.9834 44.6923 30.2831 43.4353 33.8971 43.4353H41.7535C50.5528 43.4353 57.7807 50.6632 57.7807 59.4625V106.444C57.7807 115.243 50.5528 122.314 41.7535 122.314H33.8971C31.2259 122.314 28.5547 121.686 26.3549 120.429V153.426C26.3549 153.583 26.1977 153.74 26.0406 153.74H18.8126ZM33.8971 44.0638C30.4402 44.0638 27.2976 45.1637 24.6264 47.2064C25.7263 48.6206 26.3549 50.5061 26.3549 52.5488V119.8C28.5547 121.057 31.2259 121.843 33.8971 121.843C38.1396 121.843 41.4393 118.386 41.4393 114.301V51.606C41.4393 47.3635 38.1396 44.0638 33.8971 44.0638ZM96.9944 43.4353C105.794 43.4353 113.022 50.6632 113.022 59.4625V106.444C113.022 115.243 105.794 122.314 96.9944 122.314H81.2814C72.4822 122.314 65.4113 115.243 65.4113 106.444V59.4625C65.4113 50.6632 72.4822 43.4353 81.2814 43.4353H96.9944ZM96.6801 114.144V51.606C96.6801 47.3635 93.2233 44.0638 89.1379 44.0638C85.0525 44.0638 81.5957 47.3635 81.5957 51.606V114.144V114.301C81.5957 118.386 85.0525 121.843 89.1379 121.843C93.2233 121.843 96.6801 118.386 96.6801 114.301V114.144ZM120.652 113.358V52.5488V43.7495C120.652 43.5924 120.652 43.4353 120.809 43.4353H128.194C130.866 43.4353 133.223 44.6923 134.794 46.735C137.465 44.6923 140.765 43.4353 144.379 43.4353H152.235C161.034 43.4353 168.262 50.6632 168.262 59.4625V75.0183C168.262 75.1754 168.105 75.3326 167.948 75.3326C159.149 75.3326 151.921 68.2617 151.921 59.4625V51.606C151.921 47.3635 148.621 44.0638 144.379 44.0638C140.922 44.0638 137.779 45.1637 135.108 47.2064C136.208 48.6206 136.836 50.5061 136.836 52.5488V113.358V122.157C136.836 122.314 136.679 122.314 136.522 122.314H129.294C124.423 122.314 120.652 118.386 120.652 113.358ZM183.435 43.4353C188.149 43.4353 192.077 47.5206 192.077 52.5488V122.157C192.077 122.314 191.92 122.314 191.763 122.314H184.535C179.664 122.314 175.893 118.386 175.893 113.358V52.5488C175.893 52.3917 175.893 52.3917 175.893 52.3917V43.7495C175.893 43.5924 175.893 43.4353 176.207 43.4353C183.121 43.4353 189.092 38.7214 190.977 32.122C189.563 34.636 186.892 36.2073 183.907 36.2073C179.507 36.2073 175.893 32.5934 175.893 28.0366C175.893 23.637 179.507 19.8659 183.907 19.8659C188.463 19.8659 192.077 23.637 192.077 28.0366C192.077 35.4217 187.049 41.5497 180.45 43.4353H183.435ZM193.703 44.0638C193.546 44.0638 193.546 43.9067 193.546 43.7495C193.546 43.5924 193.546 43.4353 193.703 43.4353H199.988V21.1229V12.3237C199.988 12.1665 200.145 12.1665 200.302 12.1665H207.53C212.401 12.1665 216.172 16.0948 216.172 21.1229V43.4353H222.457C222.615 43.4353 222.772 43.5924 222.772 43.7495C222.772 43.9067 222.615 44.0638 222.457 44.0638H216.172V113.358V122.157C216.172 122.314 216.172 122.314 215.858 122.314H208.63C203.916 122.314 199.988 118.386 199.988 113.358V44.0638H193.703ZM255.812 43.4353C264.611 43.4353 271.839 50.6632 271.839 59.4625V106.444C271.839 115.243 264.611 122.314 255.812 122.314H240.099C231.3 122.314 224.229 115.243 224.229 106.444V59.4625C224.229 50.6632 231.3 43.4353 240.099 43.4353H255.812ZM255.497 114.144V51.606C255.497 47.3635 252.041 44.0638 247.955 44.0638C243.87 44.0638 240.413 47.3635 240.413 51.606V114.144V114.301C240.413 118.386 243.87 121.843 247.955 121.843C252.041 121.843 255.497 118.386 255.497 114.301V114.144ZM311.053 43.4353C319.852 43.4353 326.923 50.6632 326.923 59.4625V75.0183C326.923 75.1754 326.923 75.3326 326.766 75.3326C317.966 75.3326 310.738 68.2617 310.738 59.4625V51.606C310.738 47.3635 307.281 44.0638 303.196 44.0638C298.954 44.0638 295.654 47.3635 295.654 51.606V67.1618C295.654 71.4043 298.954 74.704 303.196 74.704H311.053C319.852 74.8612 326.923 81.932 326.923 90.7312V106.444C326.923 115.243 319.852 122.314 311.053 122.314H303.196H295.34C286.54 122.314 279.47 115.243 279.47 106.444V90.7312C279.47 90.5741 279.47 90.417 279.627 90.417C288.426 90.417 295.654 97.6449 295.654 106.444V114.301C295.654 118.386 298.954 121.843 303.196 121.843C307.281 121.843 310.738 118.386 310.738 114.301V82.8748C310.738 78.7894 307.281 75.3326 303.196 75.3326H295.34C286.54 75.3326 279.47 68.2617 279.47 59.4625C279.47 50.6632 286.54 43.4353 295.34 43.4353H303.196H311.053Z" fill="#7CA5D8"/>
<path d="M191.184 40.9989C191.184 38.5388 193.264 36.5915 195.719 36.7538L264.617 41.3091C266.166 41.4115 267.594 40.4738 268.116 39.0122V39.0122C269.065 36.3572 272.614 35.8792 274.231 38.1888L274.793 38.9923C276.64 41.6296 274.753 45.2532 271.534 45.2532H269.12H195.438C193.088 45.2532 191.184 43.3485 191.184 40.9989V40.9989Z" fill="#7CA5D8"/>
<path d="M157.277 166.961V137.29H167.805C173.459 137.29 177.325 140.971 177.325 146.481V146.522C177.325 152.033 173.459 155.775 167.805 155.775H160.094V166.961H157.277ZM167.147 139.798H160.094V153.266H167.147C171.712 153.266 174.467 150.737 174.467 146.543V146.502C174.467 142.328 171.712 139.798 167.147 139.798ZM191.204 167.331C184.994 167.331 181.17 162.91 181.17 155.96V155.919C181.17 149.01 185.036 144.445 190.978 144.445C196.92 144.445 200.58 148.887 200.58 155.446V156.598H183.946C184.028 161.779 186.866 164.884 191.266 164.884C194.494 164.884 196.715 163.362 197.434 161.635L197.517 161.491H200.251L200.19 161.656C199.326 164.658 196.098 167.331 191.204 167.331ZM190.978 146.872C187.153 146.872 184.316 149.586 183.966 154.377H197.825C197.517 149.463 194.782 146.872 190.978 146.872ZM213.74 167.105C209.504 167.105 207.756 165.48 207.756 161.45V147.098H204.199V144.816H207.756V139.058H210.573V144.816H215.632V147.098H210.573V160.833C210.573 163.547 211.54 164.678 214.048 164.678C214.665 164.678 215.076 164.658 215.632 164.596V166.94C215.015 167.043 214.398 167.105 213.74 167.105ZM242.527 167.578C236.255 167.578 231.999 164.205 231.567 159.456L231.547 159.229H234.363L234.384 159.456C234.692 162.725 238.106 164.966 242.67 164.966C247.132 164.966 250.34 162.54 250.34 159.209V159.168C250.34 156.433 248.387 154.562 243.822 153.534L240.779 152.855C234.816 151.498 232.307 148.969 232.307 144.877V144.857C232.307 140.148 236.522 136.673 242.444 136.673C248.243 136.673 252.273 140.045 252.622 144.302L252.643 144.569H249.826L249.805 144.322C249.374 141.464 246.577 139.264 242.362 139.284C238.27 139.284 235.165 141.485 235.165 144.795V144.816C235.165 147.427 236.995 149.092 241.498 150.121L244.542 150.82C250.71 152.218 253.198 154.706 253.198 158.839V158.859C253.198 164.103 248.921 167.578 242.527 167.578ZM259.264 166.961V135.995H261.978V148.702H262.245C263.417 146.008 265.803 144.445 269.257 144.445C274.192 144.445 277.009 147.406 277.009 152.567V166.961H274.295V153.246C274.295 149.031 272.362 146.872 268.537 146.872C264.631 146.872 261.978 149.627 261.978 153.801V166.961H259.264ZM292.718 167.331C286.529 167.331 282.663 162.951 282.663 155.898V155.857C282.663 148.805 286.529 144.445 292.718 144.445C298.907 144.445 302.793 148.805 302.793 155.857V155.898C302.793 162.951 298.907 167.331 292.718 167.331ZM292.718 164.905C297.283 164.905 299.997 161.491 299.997 155.898V155.857C299.997 150.264 297.283 146.872 292.718 146.872C288.153 146.872 285.439 150.264 285.439 155.857V155.898C285.439 161.491 288.153 164.905 292.718 164.905ZM308.612 174.301V144.816H311.327V149.216H311.594C312.889 146.255 315.624 144.445 319.017 144.445C324.63 144.445 328.393 149.031 328.393 155.857V155.898C328.393 162.766 324.63 167.331 319.017 167.331C315.665 167.331 312.807 165.501 311.594 162.643H311.327V174.301H308.612ZM318.462 164.905C322.841 164.905 325.617 161.388 325.617 155.898V155.857C325.617 150.388 322.841 146.872 318.462 146.872C314.102 146.872 311.285 150.408 311.285 155.857V155.898C311.285 161.368 314.102 164.905 318.462 164.905Z" fill="#F57EB6"/>
</svg>
