<svg width="261" height="134" viewBox="0 0 261 134" fill="none" xmlns="http://www.w3.org/2000/svg">
<path d="M2 93.713C1.21976 93.713 0.587242 94.3455 0.587242 95.1257C0.587242 95.906 1.21976 96.5385 2 96.5385L2 93.713ZM245.465 95.1258C245.465 99.2871 248.839 102.66 253 102.66C257.161 102.66 260.535 99.2871 260.535 95.1258C260.535 90.9645 257.161 87.591 253 87.591C248.839 87.591 245.465 90.9644 245.465 95.1258ZM2 96.5385L253 96.5385L253 93.713L2 93.713L2 96.5385Z" fill="#FF459D"/>
<path d="M14.597 114.781C10.9474 114.781 8.1219 111.72 8.1219 107.953V38.9634C8.1219 38.8457 8.1219 38.8457 8.1219 38.8457V32.3705C8.1219 32.2528 8.23963 32.1351 8.35736 32.1351H13.7729C15.7743 32.1351 17.5403 33.0769 18.7176 34.6074C20.719 33.0769 23.1913 32.1351 25.8991 32.1351H31.7856C38.3785 32.1351 43.794 37.5507 43.794 44.1435V79.3447C43.794 85.9376 38.3785 91.2355 31.7856 91.2355H25.8991C23.8977 91.2355 21.8963 90.7645 20.2481 89.8227V114.546C20.2481 114.664 20.1303 114.781 20.0126 114.781H14.597ZM25.8991 32.606C23.3091 32.606 20.9545 33.4301 18.953 34.9606C19.7772 36.0202 20.2481 37.4329 20.2481 38.9634V89.3518C21.8963 90.2936 23.8977 90.8823 25.8991 90.8823C29.0778 90.8823 31.5501 88.2922 31.5501 85.2312V38.257C31.5501 35.0783 29.0778 32.606 25.8991 32.606ZM73.175 32.1351C79.7679 32.1351 85.1834 37.5507 85.1834 44.1435V79.3447C85.1834 85.9376 79.7679 91.2355 73.175 91.2355H61.402C54.8091 91.2355 49.5113 85.9376 49.5113 79.3447V44.1435C49.5113 37.5507 54.8091 32.1351 61.402 32.1351H73.175ZM72.9395 85.1135V38.257C72.9395 35.0783 70.3495 32.606 67.2885 32.606C64.2275 32.606 61.6375 35.0783 61.6375 38.257V85.1135V85.2312C61.6375 88.2922 64.2275 90.8823 67.2885 90.8823C70.3495 90.8823 72.9395 88.2922 72.9395 85.2312V85.1135ZM90.9007 84.5249V38.9634V32.3705C90.9007 32.2528 90.9007 32.1351 91.0184 32.1351H96.5517C98.5531 32.1351 100.319 33.0769 101.496 34.6074C103.498 33.0769 105.97 32.1351 108.678 32.1351H114.564C121.157 32.1351 126.573 37.5507 126.573 44.1435V55.7988C126.573 55.9165 126.455 56.0342 126.337 56.0342C119.744 56.0342 114.329 50.7364 114.329 44.1435V38.257C114.329 35.0783 111.857 32.606 108.678 32.606C106.088 32.606 103.733 33.4301 101.732 34.9606C102.556 36.0202 103.027 37.4329 103.027 38.9634V84.5249V91.1177C103.027 91.2355 102.909 91.2355 102.791 91.2355H97.3758C93.7262 91.2355 90.9007 88.2922 90.9007 84.5249ZM137.941 32.1351C141.473 32.1351 144.416 35.1961 144.416 38.9634V91.1177C144.416 91.2355 144.299 91.2355 144.181 91.2355H138.765C135.116 91.2355 132.29 88.2922 132.29 84.5249V38.9634C132.29 38.8457 132.29 38.8457 132.29 38.8457V32.3705C132.29 32.2528 132.29 32.1351 132.526 32.1351C137.706 32.1351 142.179 28.6032 143.592 23.6585C142.533 25.5422 140.531 26.7195 138.294 26.7195C134.998 26.7195 132.29 24.0117 132.29 20.5976C132.29 17.3011 134.998 14.4756 138.294 14.4756C141.708 14.4756 144.416 17.3011 144.416 20.5976C144.416 26.1309 140.649 30.7223 135.704 32.1351H137.941ZM145.634 32.606C145.516 32.606 145.516 32.4883 145.516 32.3705C145.516 32.2528 145.516 32.1351 145.634 32.1351H150.343V15.4174V8.82458C150.343 8.70684 150.461 8.70684 150.579 8.70684H155.994C159.644 8.70684 162.469 11.6501 162.469 15.4174V32.1351H167.179C167.296 32.1351 167.414 32.2528 167.414 32.3705C167.414 32.4883 167.296 32.606 167.179 32.606H162.469V84.5249V91.1177C162.469 91.2355 162.469 91.2355 162.234 91.2355H156.818C153.286 91.2355 150.343 88.2922 150.343 84.5249V32.606H145.634ZM192.169 32.1351C198.762 32.1351 204.178 37.5507 204.178 44.1435V79.3447C204.178 85.9376 198.762 91.2355 192.169 91.2355H180.397C173.804 91.2355 168.506 85.9376 168.506 79.3447V44.1435C168.506 37.5507 173.804 32.1351 180.397 32.1351H192.169ZM191.934 85.1135V38.257C191.934 35.0783 189.344 32.606 186.283 32.606C183.222 32.606 180.632 35.0783 180.632 38.257V85.1135V85.2312C180.632 88.2922 183.222 90.8823 186.283 90.8823C189.344 90.8823 191.934 88.2922 191.934 85.2312V85.1135ZM233.559 32.1351C240.152 32.1351 245.45 37.5507 245.45 44.1435V55.7988C245.45 55.9165 245.45 56.0342 245.332 56.0342C238.739 56.0342 233.323 50.7364 233.323 44.1435V38.257C233.323 35.0783 230.733 32.606 227.672 32.606C224.494 32.606 222.021 35.0783 222.021 38.257V49.9123C222.021 53.091 224.494 55.5633 227.672 55.5633H233.559C240.152 55.6811 245.45 60.9789 245.45 67.5718V79.3447C245.45 85.9376 240.152 91.2355 233.559 91.2355H227.672H221.786C215.193 91.2355 209.895 85.9376 209.895 79.3447V67.5718C209.895 67.454 209.895 67.3363 210.013 67.3363C216.606 67.3363 222.021 72.7519 222.021 79.3447V85.2312C222.021 88.2922 224.494 90.8823 227.672 90.8823C230.733 90.8823 233.323 88.2922 233.323 85.2312V61.6853C233.323 58.6243 230.733 56.0342 227.672 56.0342H221.786C215.193 56.0342 209.895 50.7364 209.895 44.1435C209.895 37.5507 215.193 32.1351 221.786 32.1351H227.672H233.559Z" fill="#007AFF"/>
<path d="M143.747 30.7186C143.747 28.8754 145.306 27.4164 147.145 27.538L198.767 30.951C199.928 31.0277 200.998 30.3252 201.389 29.2301C202.099 27.2408 204.759 26.8827 205.97 28.6132L206.392 29.2152C207.775 31.1911 206.361 33.9062 203.949 33.9062H202.141H146.934C145.174 33.9062 143.747 32.4791 143.747 30.7186Z" fill="#007AFF"/>
<path d="M118.342 125.126V102.895H126.229C130.466 102.895 133.362 105.652 133.362 109.781V109.812C133.362 113.941 130.466 116.745 126.229 116.745H120.452V125.126H118.342ZM125.736 104.774H120.452V114.865H125.736C129.157 114.865 131.221 112.97 131.221 109.828V109.797C131.221 106.669 129.157 104.774 125.736 104.774ZM143.762 125.403C139.109 125.403 136.243 122.091 136.243 116.883V116.853C136.243 111.676 139.14 108.256 143.592 108.256C148.044 108.256 150.787 111.584 150.787 116.498V117.361H138.323C138.385 121.243 140.511 123.57 143.808 123.57C146.227 123.57 147.89 122.43 148.43 121.136L148.491 121.028H150.54L150.494 121.151C149.847 123.4 147.428 125.403 143.762 125.403ZM143.592 110.074C140.727 110.074 138.601 112.108 138.339 115.697H148.722C148.491 112.015 146.442 110.074 143.592 110.074ZM160.647 125.234C157.473 125.234 156.163 124.016 156.163 120.997V110.243H153.498V108.533H156.163V104.22H158.274V108.533H162.064V110.243H158.274V120.535C158.274 122.568 158.998 123.416 160.878 123.416C161.34 123.416 161.648 123.4 162.064 123.354V125.11C161.602 125.187 161.14 125.234 160.647 125.234ZM182.215 125.588C177.516 125.588 174.327 123.061 174.004 119.503L173.988 119.333H176.099L176.114 119.503C176.345 121.952 178.903 123.631 182.323 123.631C185.666 123.631 188.069 121.813 188.069 119.318V119.287C188.069 117.238 186.606 115.836 183.186 115.066L180.906 114.557C176.438 113.54 174.558 111.645 174.558 108.58V108.564C174.558 105.036 177.716 102.433 182.153 102.433C186.498 102.433 189.518 104.959 189.779 108.148L189.795 108.349H187.684L187.669 108.164C187.345 106.022 185.25 104.374 182.092 104.389C179.026 104.389 176.7 106.038 176.7 108.518V108.533C176.7 110.49 178.071 111.738 181.445 112.508L183.725 113.032C188.347 114.08 190.211 115.944 190.211 119.04V119.056C190.211 122.984 187.006 125.588 182.215 125.588ZM194.756 125.126V101.924H196.789V111.445H196.989C197.868 109.427 199.655 108.256 202.243 108.256C205.94 108.256 208.051 110.475 208.051 114.341V125.126H206.017V114.85C206.017 111.692 204.569 110.074 201.704 110.074C198.777 110.074 196.789 112.138 196.789 115.266V125.126H194.756ZM219.821 125.403C215.184 125.403 212.288 122.122 212.288 116.837V116.806C212.288 111.522 215.184 108.256 219.821 108.256C224.458 108.256 227.37 111.522 227.37 116.806V116.837C227.37 122.122 224.458 125.403 219.821 125.403ZM219.821 123.585C223.241 123.585 225.275 121.028 225.275 116.837V116.806C225.275 112.616 223.241 110.074 219.821 110.074C216.401 110.074 214.367 112.616 214.367 116.806V116.837C214.367 121.028 216.401 123.585 219.821 123.585ZM231.73 130.626V108.533H233.764V111.83H233.964C234.935 109.612 236.984 108.256 239.526 108.256C243.731 108.256 246.551 111.692 246.551 116.806V116.837C246.551 121.983 243.731 125.403 239.526 125.403C237.014 125.403 234.873 124.032 233.964 121.89H233.764V130.626H231.73ZM239.11 123.585C242.391 123.585 244.471 120.951 244.471 116.837V116.806C244.471 112.708 242.391 110.074 239.11 110.074C235.844 110.074 233.733 112.724 233.733 116.806V116.837C233.733 120.935 235.844 123.585 239.11 123.585Z" fill="#FF459D"/>
</svg>
