<svg width="436" height="462" viewBox="0 0 436 462" fill="none" xmlns="http://www.w3.org/2000/svg">
<path d="M420.547 112.125C420.576 112.127 420.604 112.129 420.632 112.134C424.306 112.644 427.902 113.541 431.318 114.799C431.778 114.969 432.013 115.476 431.841 115.93C431.67 116.385 431.159 116.614 430.697 116.447C427.402 115.232 423.932 114.367 420.385 113.874C419.899 113.807 419.559 113.363 419.627 112.882C419.692 112.429 420.094 112.105 420.547 112.125ZM409.728 111.763C410.172 111.783 410.541 112.128 410.575 112.577C410.611 113.061 410.243 113.483 409.753 113.518C406.177 113.773 402.659 114.41 399.298 115.408C398.827 115.552 398.331 115.285 398.189 114.821C398.047 114.356 398.312 113.866 398.783 113.725C402.268 112.689 405.915 112.029 409.622 111.764C409.657 111.762 409.692 111.762 409.728 111.763ZM389.157 117.947C389.448 117.96 389.726 118.114 389.885 118.38C390.134 118.8 389.993 119.338 389.57 119.583C388.758 120.054 387.959 120.553 387.193 121.069C385.12 122.462 383.118 124.039 381.068 125.893C380.706 126.22 380.143 126.195 379.811 125.837C379.48 125.479 379.504 124.924 379.866 124.595C381.979 122.685 384.048 121.055 386.191 119.616C386.989 119.078 387.823 118.557 388.668 118.067C388.822 117.978 388.991 117.94 389.157 117.947ZM373.024 132.108C373.217 132.117 373.407 132.187 373.564 132.321C373.938 132.637 373.98 133.193 373.659 133.56C371.601 135.926 369.574 138.416 367.613 140.825L366.801 141.823C366.493 142.198 365.933 142.258 365.55 141.955C365.168 141.65 365.107 141.097 365.415 140.718L366.227 139.722C368.196 137.303 370.233 134.801 372.31 132.414C372.496 132.2 372.761 132.097 373.024 132.108ZM359.186 148.606C359.384 148.614 359.581 148.688 359.74 148.83C360.106 149.154 360.137 149.709 359.81 150.071C357.087 153.075 354.535 155.56 352.007 157.668C351.63 157.98 351.069 157.934 350.753 157.562C350.436 157.192 350.483 156.637 350.858 156.324C353.323 154.269 355.817 151.84 358.483 148.897C358.669 148.692 358.929 148.594 359.186 148.606ZM342.544 162.164C342.844 162.177 343.13 162.34 343.286 162.62C343.523 163.045 343.365 163.58 342.934 163.813C339.887 165.465 336.51 166.941 332.898 168.198C332.433 168.356 331.927 168.119 331.762 167.661C331.599 167.203 331.842 166.701 332.305 166.54C335.826 165.314 339.114 163.878 342.077 162.271C342.225 162.191 342.387 162.157 342.544 162.164ZM322.218 169.424C322.608 169.442 322.954 169.713 323.046 170.107C323.156 170.582 322.856 171.052 322.377 171.16C319.134 171.89 315.626 172.537 311.654 173.14C311.169 173.219 310.714 172.885 310.64 172.405C310.565 171.925 310.898 171.476 311.383 171.402C315.312 170.806 318.779 170.166 321.981 169.446C322.06 169.427 322.14 169.421 322.218 169.424ZM300.808 172.817C301.234 172.836 301.597 173.156 301.651 173.588C301.712 174.07 301.365 174.508 300.878 174.567L299.608 174.721C296.499 175.095 293.285 175.484 290.132 175.917C289.645 175.992 289.196 175.647 289.127 175.166C289.059 174.685 289.399 174.241 289.885 174.174C293.052 173.74 296.274 173.35 299.39 172.974L300.659 172.821C300.709 172.817 300.759 172.815 300.808 172.817ZM279.346 175.911C279.746 175.929 280.096 176.212 280.179 176.617C280.275 177.094 279.962 177.556 279.48 177.651C275.661 178.402 272.25 179.242 269.052 180.22C268.585 180.364 268.084 180.104 267.939 179.64C267.792 179.177 268.055 178.684 268.524 178.541C271.781 177.545 275.251 176.69 279.132 175.928C279.205 175.912 279.276 175.908 279.346 175.911ZM258.734 182.385C259.05 182.399 259.349 182.58 259.496 182.881C259.71 183.318 259.525 183.844 259.083 184.055C258.694 184.241 258.307 184.431 257.922 184.624C255.163 186.011 252.507 187.676 250.028 189.574C249.64 189.871 249.082 189.799 248.781 189.417C248.479 189.033 248.55 188.48 248.938 188.183C251.505 186.218 254.256 184.493 257.115 183.056C257.512 182.857 257.909 182.663 258.308 182.473C258.445 182.406 258.591 182.379 258.734 182.385ZM241.746 195.436C241.931 195.444 242.116 195.51 242.271 195.635C242.651 195.944 242.705 196.497 242.394 196.872C240.06 199.679 238.17 202.657 236.777 205.727C236.575 206.17 236.051 206.367 235.601 206.168C235.152 205.969 234.952 205.448 235.153 205.006C236.611 201.795 238.584 198.682 241.019 195.755C241.204 195.532 241.476 195.424 241.746 195.436Z" fill="#BBD6FA"/>
<path d="M233.225 214.844C233.237 214.845 233.25 214.846 233.262 214.847C233.751 214.889 234.114 215.315 234.072 215.799C233.925 217.501 233.936 219.219 234.104 220.904C234.153 221.387 233.794 221.818 233.306 221.865C232.821 221.914 232.381 221.559 232.334 221.075C232.155 219.282 232.143 217.455 232.3 215.646C232.341 215.176 232.751 214.823 233.225 214.844Z" fill="#BBD6FA"/>
<path d="M50.9042 151.343C52.7978 152.022 54.4353 153.095 55.163 155.02C55.9239 157.032 55.5484 159.323 56.2194 161.367C56.7332 162.931 57.8372 164.278 58.1576 165.892C58.6511 168.377 57.0105 170.995 54.6877 172.005C52.3648 173.014 49.575 172.571 47.4199 171.24C45.9781 170.35 44.7517 169.085 43.1701 168.477C41.491 167.833 39.5944 168.001 37.8927 167.422C36.0632 166.798 34.5625 165.279 33.9625 163.441C33.3625 161.603 33.6776 159.491 34.7869 157.908C35.9521 156.246 37.8473 155.251 39.7463 154.532C41.6452 153.814 43.6378 153.299 45.403 152.296C46.2826 151.796 47.1078 151.174 48.0697 150.859C49.0309 150.545 50.0276 150.922 50.9042 151.343Z" fill="#BBD6FA"/>
<path d="M68.849 154.417C69.1399 155.486 68.988 156.643 68.5792 157.673C68.1712 158.703 67.519 159.62 66.8027 160.465C65.7826 161.669 64.5675 162.782 63.0698 163.279C61.5721 163.776 59.7442 163.527 58.6991 162.344C57.6473 161.153 57.6352 159.295 58.3236 157.863C59.012 156.431 60.2769 155.361 61.6038 154.487C62.627 153.813 63.7348 153.218 64.9438 153.02C66.1513 152.822 67.5863 152.58 68.849 154.417Z" fill="#BBD6FA"/>
<path d="M60.8811 138.695C62.9871 138.822 64.2762 140.752 64.58 142.368C64.8837 143.983 64.5044 145.657 63.9044 147.188C63.4495 148.349 62.8624 149.469 62.0599 150.422C61.2566 151.375 60.2282 152.159 59.0471 152.559C58.2665 152.823 57.393 152.911 56.6275 152.608C55.4079 152.126 54.7543 150.789 54.4626 149.51C53.8928 147.008 54.3107 144.296 55.6066 142.082C56.162 141.133 56.8807 140.266 57.7837 139.64C58.6867 139.014 59.7839 138.638 60.8811 138.695Z" fill="#BBD6FA"/>
<path d="M36.0035 140.478C35.0325 141.012 34.3063 141.924 33.8492 142.934C33.392 143.943 33.1857 145.049 33.0754 146.151C32.9182 147.722 32.962 149.369 33.6451 150.791C34.329 152.214 35.7776 153.355 37.3546 153.285C38.9415 153.214 40.2873 151.931 40.8389 150.442C41.3905 148.952 41.281 147.299 40.9878 145.737C40.7618 144.534 40.4203 143.323 39.7221 142.317C39.0246 141.31 38.2017 140.109 36.0035 140.478Z" fill="#BBD6FA"/>
<path d="M52.8469 135.286C51.2925 133.859 49.0089 134.273 47.6359 135.177C46.2629 136.081 45.3229 137.517 44.6383 139.012C44.1191 140.146 43.7224 141.346 43.594 142.586C43.4663 143.826 43.6174 145.11 44.1501 146.237C44.5023 146.982 45.0456 147.672 45.7959 148.012C46.9906 148.554 48.4059 148.096 49.5288 147.416C51.724 146.088 53.3849 143.903 54.0771 141.432C54.3733 140.374 54.4972 139.255 54.3204 138.17C54.1428 137.084 53.6509 136.035 52.8469 135.286Z" fill="#BBD6FA"/>
<path d="M233.265 76.8381C235.65 77.1561 237.835 78.0001 239.169 80.0681C240.564 82.2301 240.7 85.0031 241.999 87.2251C242.992 88.9241 244.622 90.2231 245.402 92.0301C246.603 94.8111 245.343 98.2851 242.88 100.05C240.417 101.814 237.044 101.996 234.189 100.982C232.279 100.304 230.528 99.1321 228.526 98.8191C226.401 98.4871 224.226 99.1611 222.089 98.9101C219.793 98.6411 217.657 97.2411 216.494 95.2431C215.331 93.2451 215.168 90.6961 216.068 88.5671C217.013 86.3301 218.979 84.6921 221.019 83.3741C223.059 82.0561 225.259 80.9531 227.072 79.3371C227.975 78.5311 228.784 77.5971 229.829 76.9871C230.874 76.3761 232.134 76.5661 233.265 76.8381Z" fill="#BBD6FA"/>
<path d="M255.02 75.9252C255.629 77.1022 255.742 78.4932 255.523 79.8002C255.304 81.1072 254.772 82.3432 254.147 83.5112C253.256 85.1752 252.115 86.7822 250.488 87.7392C248.861 88.6962 246.661 88.8642 245.142 87.7432C243.613 86.6152 243.132 84.4452 243.577 82.5982C244.022 80.7512 245.233 79.1822 246.565 77.8272C247.592 76.7822 248.738 75.8082 250.102 75.2732C251.466 74.7382 253.083 74.0942 255.02 75.9252Z" fill="#BBD6FA"/>
<path d="M241.754 59.5431C244.249 59.1621 246.241 61.0951 247.002 62.9081C247.763 64.7211 247.739 66.7731 247.423 68.7141C247.183 70.1861 246.777 71.6421 246.078 72.9591C245.379 74.2761 244.372 75.4501 243.092 76.2151C242.246 76.7201 241.247 77.0431 240.275 76.8811C238.727 76.6231 237.627 75.2241 236.965 73.8021C235.67 71.0201 235.477 67.7421 236.437 64.8271C236.848 63.5781 237.471 62.3851 238.37 61.4251C239.268 60.4651 240.456 59.7511 241.754 59.5431Z" fill="#BBD6FA"/>
<path d="M213.112 67.8772C212.111 68.7452 211.491 69.9952 211.21 71.2902C210.929 72.5852 210.966 73.9302 211.114 75.2472C211.325 77.1232 211.789 79.0382 212.946 80.5302C214.103 82.0222 216.084 82.9932 217.91 82.5142C219.748 82.0322 220.999 80.1952 221.27 78.3142C221.541 76.4332 220.997 74.5282 220.262 72.7752C219.695 71.4242 218.992 70.0952 217.923 69.0932C216.853 68.0912 215.589 66.8942 213.112 67.8772Z" fill="#BBD6FA"/>
<path d="M231.503 57.5742C229.327 56.2972 226.76 57.3542 225.382 58.7562C224.003 60.1582 223.265 62.0732 222.84 63.9932C222.518 65.4492 222.355 66.9522 222.517 68.4342C222.679 69.9162 223.179 71.3802 224.084 72.5642C224.683 73.3472 225.491 74.0172 226.454 74.2262C227.987 74.5592 229.527 73.6682 230.669 72.5922C232.902 70.4872 234.296 67.5152 234.484 64.4522C234.565 63.1402 234.428 61.8002 233.949 60.5762C233.47 59.3522 232.631 58.2482 231.503 57.5742Z" fill="#BBD6FA"/>
<path d="M11.4949 117.932C11.4662 117.932 11.4384 117.931 11.4097 117.928C7.71718 117.581 4.0848 116.844 0.61626 115.738C0.148789 115.589 -0.107625 115.093 0.0432614 114.631C0.194148 114.169 0.694943 113.918 1.16334 114.064C4.50969 115.132 8.01433 115.843 11.5791 116.178C12.0679 116.223 12.4271 116.652 12.3808 117.135C12.3354 117.591 11.9485 117.932 11.4949 117.932ZM22.3199 117.815C21.8755 117.815 21.4914 117.487 21.4377 117.039C21.3803 116.557 21.7293 116.12 22.2171 116.063C25.7782 115.65 29.2643 114.858 32.5783 113.712C33.042 113.547 33.5493 113.792 33.7122 114.25C33.8742 114.708 33.6308 115.209 33.167 115.37C29.7309 116.56 26.117 117.381 22.4254 117.81C22.3902 117.813 22.355 117.815 22.3199 117.815ZM42.597 110.726C42.3054 110.726 42.0203 110.584 41.8499 110.326C41.5824 109.918 41.7 109.373 42.1119 109.11C42.9015 108.604 43.6782 108.07 44.4206 107.52C46.4293 106.037 48.3603 104.373 50.3255 102.43C50.6726 102.087 51.2364 102.087 51.5835 102.43C51.9306 102.773 51.9306 103.329 51.5835 103.673C49.5581 105.675 47.5633 107.395 45.486 108.928C44.7121 109.501 43.9022 110.058 43.0792 110.584C42.9302 110.68 42.7627 110.726 42.597 110.726ZM58.0864 95.8644C57.8939 95.8644 57.7004 95.8031 57.5375 95.676C57.1506 95.3769 57.0839 94.8235 57.3875 94.4421C59.3389 91.988 61.2541 89.4104 63.1064 86.917L63.8738 85.8843C64.1645 85.4956 64.7208 85.4105 65.117 85.6968C65.5123 85.984 65.5974 86.5346 65.3068 86.9261L64.5403 87.957C62.6797 90.4614 60.7552 93.0509 58.7863 95.5278C58.6104 95.7492 58.3503 95.8644 58.0864 95.8644ZM71.1802 78.7708C70.9821 78.7708 70.7822 78.7059 70.6174 78.5714C70.237 78.2641 70.1814 77.7107 70.4925 77.3348C73.0797 74.2129 75.5189 71.6171 77.9516 69.399C78.3136 69.0706 78.8764 69.0925 79.2087 69.4493C79.5419 69.8051 79.5197 70.3621 79.1587 70.6914C76.7871 72.8528 74.4035 75.3901 71.8699 78.4488C71.6931 78.661 71.4376 78.7708 71.1802 78.7708ZM87.2057 64.4889C86.9058 64.4889 86.6123 64.3389 86.4448 64.0664C86.1893 63.652 86.3226 63.1105 86.7428 62.859C89.7143 61.0735 93.0227 59.449 96.5755 58.0331C97.0327 57.8547 97.5493 58.0697 97.7335 58.5197C97.9168 58.9697 97.6965 59.482 97.241 59.664C93.778 61.0442 90.5567 62.6248 87.6676 64.3609C87.5232 64.4478 87.363 64.4889 87.2057 64.4889ZM107.19 56.3354C106.8 56.3354 106.442 56.0793 106.333 55.6897C106.203 55.2204 106.481 54.7375 106.955 54.6085C110.163 53.7359 113.638 52.9337 117.579 52.1553C118.061 52.0556 118.53 52.3685 118.625 52.845C118.722 53.3216 118.409 53.7844 117.927 53.8795C114.028 54.6497 110.593 55.4427 107.426 56.3034C107.349 56.3254 107.269 56.3354 107.19 56.3354ZM128.429 51.998C128.002 51.998 127.626 51.6943 127.553 51.2654C127.471 50.7861 127.798 50.3333 128.282 50.2528L129.544 50.0433C132.633 49.5311 135.826 49.0006 138.958 48.4289C139.441 48.332 139.905 48.6567 139.995 49.1341C140.084 49.6116 139.764 50.0699 139.282 50.1586C136.136 50.733 132.935 51.2644 129.839 51.7785L128.578 51.988C128.528 51.9934 128.478 51.998 128.429 51.998ZM149.733 47.9569C149.333 47.9569 148.97 47.6889 148.87 47.2883C148.753 46.8163 149.045 46.3407 149.522 46.2245C153.304 45.3053 156.675 44.3147 159.827 43.196C160.287 43.0314 160.798 43.2692 160.964 43.7265C161.131 44.183 160.89 44.6869 160.428 44.8507C157.218 45.9895 153.789 46.9974 149.947 47.9304C149.874 47.9496 149.803 47.9569 149.733 47.9569ZM170.039 40.5764C169.722 40.5764 169.416 40.409 169.255 40.1144C169.022 39.6873 169.183 39.154 169.616 38.9235C169.996 38.7205 170.375 38.5137 170.751 38.3034C173.445 36.796 176.025 35.0151 178.417 33.0092C178.792 32.6954 179.353 32.7421 179.67 33.1107C179.989 33.4812 179.943 34.0364 179.568 34.3501C177.091 36.4274 174.419 38.2723 171.626 39.8345C171.238 40.0504 170.85 40.2626 170.46 40.4703C170.326 40.5425 170.181 40.5764 170.039 40.5764ZM186.432 26.7866C186.246 26.7866 186.059 26.729 185.898 26.611C185.505 26.3192 185.426 25.7685 185.721 25.3798C187.928 22.4729 189.684 19.4142 190.941 16.2851C191.122 15.8342 191.637 15.6137 192.096 15.7921C192.553 15.9714 192.776 16.4827 192.595 16.9336C191.28 20.2063 189.447 23.4032 187.144 26.4353C186.969 26.6658 186.702 26.7866 186.432 26.7866Z" fill="#BBD6FA"/>
<path d="M194.085 7.01947C194.073 7.01947 194.06 7.01948 194.048 7.01856C193.557 6.99844 193.176 6.58866 193.196 6.10388C193.268 4.39616 193.181 2.68022 192.939 1.00451C192.869 0.524305 193.207 0.0779395 193.693 0.00933822C194.176 -0.0610924 194.631 0.274597 194.7 0.75572C194.958 2.53844 195.05 4.36323 194.974 6.17797C194.953 6.64903 194.56 7.01947 194.085 7.01947Z" fill="#BBD6FA"/>
<path d="M252.495 461.932C252.466 461.932 252.438 461.931 252.41 461.928C248.717 461.581 245.085 460.844 241.616 459.738C241.149 459.589 240.892 459.093 241.043 458.631C241.194 458.169 241.695 457.918 242.163 458.064C245.51 459.132 249.014 459.843 252.579 460.178C253.068 460.223 253.427 460.652 253.381 461.135C253.335 461.591 252.948 461.932 252.495 461.932ZM263.32 461.815C262.876 461.815 262.491 461.487 262.438 461.039C262.38 460.557 262.729 460.12 263.217 460.063C266.778 459.65 270.264 458.858 273.578 457.712C274.042 457.547 274.549 457.792 274.712 458.25C274.874 458.708 274.631 459.209 274.167 459.37C270.731 460.56 267.117 461.381 263.425 461.81C263.39 461.813 263.355 461.815 263.32 461.815ZM283.597 454.726C283.305 454.726 283.02 454.584 282.85 454.326C282.582 453.918 282.7 453.373 283.112 453.11C283.902 452.604 284.678 452.07 285.421 451.52C287.429 450.037 289.36 448.373 291.325 446.43C291.673 446.087 292.236 446.087 292.584 446.43C292.931 446.773 292.931 447.329 292.584 447.673C290.558 449.675 288.563 451.395 286.486 452.928C285.712 453.501 284.902 454.058 284.079 454.584C283.93 454.68 283.763 454.726 283.597 454.726ZM299.086 439.864C298.894 439.864 298.7 439.803 298.538 439.676C298.151 439.377 298.084 438.824 298.388 438.442C300.339 435.988 302.254 433.41 304.106 430.917L304.874 429.884C305.164 429.496 305.721 429.411 306.117 429.697C306.512 429.984 306.597 430.535 306.307 430.926L305.54 431.957C303.68 434.461 301.755 437.051 299.786 439.528C299.61 439.749 299.35 439.864 299.086 439.864ZM312.18 422.771C311.982 422.771 311.782 422.706 311.617 422.571C311.237 422.264 311.181 421.711 311.492 421.335C314.08 418.213 316.519 415.617 318.952 413.399C319.314 413.071 319.876 413.093 320.209 413.449C320.542 413.805 320.52 414.362 320.159 414.691C317.787 416.853 315.403 419.39 312.87 422.449C312.693 422.661 312.438 422.771 312.18 422.771ZM328.206 408.489C327.906 408.489 327.612 408.339 327.445 408.066C327.189 407.652 327.323 407.111 327.743 406.859C330.714 405.074 334.023 403.449 337.575 402.033C338.033 401.855 338.549 402.07 338.733 402.52C338.917 402.97 338.696 403.482 338.241 403.664C334.778 405.044 331.557 406.625 328.668 408.361C328.523 408.448 328.363 408.489 328.206 408.489ZM348.19 400.335C347.8 400.335 347.442 400.079 347.333 399.69C347.203 399.22 347.481 398.737 347.955 398.609C351.163 397.736 354.638 396.934 358.579 396.155C359.061 396.056 359.53 396.368 359.625 396.845C359.722 397.322 359.409 397.784 358.927 397.88C355.028 398.65 351.593 399.443 348.426 400.303C348.349 400.325 348.269 400.335 348.19 400.335ZM369.429 395.998C369.002 395.998 368.626 395.694 368.553 395.265C368.471 394.786 368.798 394.333 369.282 394.253L370.544 394.043C373.633 393.531 376.826 393.001 379.958 392.429C380.441 392.332 380.905 392.657 380.995 393.134C381.084 393.612 380.764 394.07 380.282 394.159C377.136 394.733 373.935 395.264 370.839 395.778L369.578 395.988C369.528 395.993 369.478 395.998 369.429 395.998ZM390.733 391.957C390.333 391.957 389.97 391.689 389.87 391.288C389.753 390.816 390.045 390.341 390.522 390.225C394.304 389.305 397.675 388.315 400.827 387.196C401.287 387.031 401.798 387.269 401.964 387.727C402.131 388.183 401.89 388.687 401.428 388.851C398.218 389.989 394.789 390.997 390.947 391.93C390.874 391.95 390.803 391.957 390.733 391.957ZM411.039 384.576C410.722 384.576 410.416 384.409 410.255 384.114C410.022 383.687 410.183 383.154 410.616 382.924C410.996 382.72 411.375 382.514 411.751 382.303C414.445 380.796 417.025 379.015 419.417 377.009C419.792 376.695 420.353 376.742 420.67 377.111C420.989 377.481 420.943 378.036 420.568 378.35C418.091 380.427 415.419 382.272 412.626 383.835C412.238 384.05 411.85 384.263 411.46 384.47C411.326 384.543 411.181 384.576 411.039 384.576ZM427.432 370.787C427.246 370.787 427.059 370.729 426.898 370.611C426.505 370.319 426.426 369.769 426.721 369.38C428.928 366.473 430.684 363.414 431.941 360.285C432.122 359.834 432.637 359.614 433.096 359.792C433.553 359.971 433.776 360.483 433.595 360.934C432.28 364.206 430.447 367.403 428.144 370.435C427.969 370.666 427.702 370.787 427.432 370.787Z" fill="#BBD6FA"/>
<path d="M435.085 351.019C435.073 351.019 435.06 351.019 435.048 351.019C434.558 350.998 434.176 350.589 434.197 350.104C434.269 348.396 434.182 346.68 433.939 345.005C433.869 344.524 434.208 344.078 434.694 344.009C435.176 343.939 435.631 344.275 435.7 344.756C435.958 346.538 436.051 348.363 435.974 350.178C435.953 350.649 435.56 351.019 435.085 351.019Z" fill="#BBD6FA"/>
<path d="M16.676 277.932C16.6418 277.932 16.6088 277.931 16.5747 277.928C12.1815 277.647 7.85986 277.047 3.73319 276.147C3.17702 276.026 2.87195 275.623 3.05147 275.247C3.23099 274.871 3.8268 274.667 4.38408 274.786C8.36537 275.655 12.535 276.233 16.7762 276.505C17.3577 276.542 17.785 276.891 17.73 277.284C17.676 277.655 17.2156 277.932 16.676 277.932ZM29.5549 277.837C29.0263 277.837 28.5692 277.57 28.5053 277.206C28.4371 276.814 28.8523 276.458 29.4326 276.412C33.6695 276.076 37.817 275.431 41.7598 274.499C42.3116 274.365 42.9151 274.565 43.1089 274.937C43.3017 275.309 43.012 275.717 42.4602 275.848C38.3721 276.816 34.0725 277.484 29.6804 277.833C29.6386 277.835 29.5967 277.837 29.5549 277.837ZM53.6795 272.071C53.3325 272.071 52.9933 271.955 52.7907 271.745C52.4724 271.413 52.6123 270.97 53.1024 270.756C54.0418 270.344 54.9658 269.91 55.8491 269.463C58.239 268.256 60.5363 266.902 62.8744 265.322C63.2874 265.043 63.9581 265.043 64.3711 265.322C64.7841 265.601 64.7841 266.053 64.3711 266.333C61.9614 267.962 59.5881 269.361 57.1167 270.608C56.196 271.074 55.2323 271.527 54.2533 271.955C54.0759 272.033 53.8766 272.071 53.6795 272.071ZM72.108 259.981C71.8789 259.981 71.6487 259.931 71.4549 259.828C70.9945 259.585 70.9152 259.134 71.2765 258.824C73.5981 256.828 75.8767 254.731 78.0804 252.703L78.9934 251.863C79.3393 251.547 80.0012 251.477 80.4725 251.71C80.9428 251.944 81.0441 252.392 80.6983 252.71L79.7864 253.549C77.5727 255.586 75.2831 257.693 72.9406 259.707C72.7313 259.887 72.4218 259.981 72.108 259.981ZM87.6862 246.076C87.4505 246.076 87.2126 246.024 87.0166 245.914C86.564 245.664 86.4979 245.214 86.8679 244.908C89.9461 242.369 92.8481 240.257 95.7424 238.453C96.173 238.186 96.8427 238.204 97.238 238.494C97.6345 238.783 97.6081 239.236 97.1786 239.504C94.357 241.262 91.521 243.326 88.5067 245.814C88.2964 245.987 87.9924 246.076 87.6862 246.076ZM106.752 234.459C106.396 234.459 106.046 234.337 105.847 234.115C105.543 233.778 105.702 233.337 106.202 233.133C109.737 231.68 113.673 230.359 117.9 229.207C118.444 229.062 119.059 229.237 119.278 229.603C119.496 229.969 119.234 230.386 118.692 230.534C114.572 231.657 110.739 232.942 107.302 234.355C107.13 234.425 106.94 234.459 106.752 234.459ZM130.529 227.826C130.064 227.826 129.639 227.618 129.509 227.301C129.354 226.919 129.685 226.526 130.249 226.422C134.065 225.712 138.2 225.059 142.889 224.426C143.462 224.345 144.02 224.599 144.134 224.987C144.248 225.375 143.876 225.751 143.303 225.829C138.664 226.455 134.577 227.1 130.81 227.8C130.717 227.818 130.623 227.826 130.529 227.826ZM155.798 224.298C155.29 224.298 154.842 224.051 154.755 223.702C154.658 223.312 155.047 222.944 155.623 222.878L157.124 222.708C160.799 222.291 164.598 221.86 168.324 221.395C168.899 221.316 169.451 221.58 169.558 221.968C169.665 222.357 169.284 222.73 168.71 222.802C164.967 223.269 161.159 223.701 157.475 224.119L155.975 224.29C155.916 224.294 155.856 224.298 155.798 224.298ZM181.144 221.011C180.668 221.011 180.236 220.793 180.117 220.467C179.977 220.083 180.325 219.696 180.893 219.602C185.393 218.854 189.403 218.048 193.153 217.138C193.7 217.004 194.309 217.198 194.506 217.57C194.704 217.941 194.418 218.351 193.868 218.484C190.049 219.41 185.97 220.23 181.398 220.989C181.312 221.005 181.227 221.011 181.144 221.011ZM205.302 215.007C204.926 215.007 204.561 214.871 204.37 214.631C204.093 214.284 204.285 213.85 204.799 213.663C205.252 213.497 205.702 213.329 206.149 213.158C209.355 211.932 212.425 210.483 215.271 208.852C215.717 208.596 216.384 208.634 216.762 208.934C217.141 209.235 217.086 209.687 216.639 209.942C213.692 211.632 210.514 213.133 207.191 214.404C206.73 214.579 206.268 214.752 205.804 214.921C205.644 214.98 205.472 215.007 205.302 215.007ZM224.806 203.79C224.586 203.79 224.362 203.743 224.171 203.647C223.703 203.41 223.61 202.962 223.96 202.645C226.587 200.281 228.676 197.793 230.17 195.247C230.386 194.88 230.999 194.701 231.545 194.846C232.089 194.992 232.354 195.408 232.138 195.775C230.575 198.437 228.393 201.037 225.654 203.504C225.446 203.692 225.127 203.79 224.806 203.79Z" fill="#BBD6FA"/>
<path d="M233.912 187.71C233.897 187.71 233.882 187.71 233.867 187.709C233.284 187.693 232.83 187.36 232.854 186.965C232.94 185.576 232.837 184.18 232.548 182.817C232.464 182.426 232.867 182.063 233.446 182.008C234.019 181.95 234.561 182.223 234.643 182.615C234.95 184.065 235.06 185.549 234.969 187.025C234.945 187.409 234.477 187.71 233.912 187.71Z" fill="#BBD6FA"/>
<path d="M391.683 281.656C394.846 279.831 398.253 278.822 401.772 280.073C405.452 281.381 408.182 284.589 411.801 286.059C414.568 287.183 417.73 287.235 420.341 288.685C424.36 290.918 426.061 296.261 424.734 300.662C423.406 305.064 419.518 308.405 415.147 309.829C412.223 310.781 409.032 310.995 406.335 312.472C403.472 314.04 401.481 316.865 398.68 318.541C395.67 320.343 391.805 320.637 388.557 319.312C385.309 317.986 382.753 315.072 381.864 311.679C380.929 308.114 381.777 304.324 383.01 300.851C384.243 297.378 385.868 294.015 386.55 290.393C386.89 288.588 386.998 286.716 387.69 285.015C388.38 283.313 390.072 282.376 391.683 281.656Z" fill="#BBD6FA"/>
<path d="M416.997 260.416C418.819 261.268 420.242 262.836 421.189 264.61C422.136 266.384 422.64 268.362 422.97 270.346C423.44 273.172 423.556 276.16 422.485 278.817C421.415 281.474 418.925 283.713 416.061 283.771C413.178 283.829 410.59 281.666 409.415 279.033C408.24 276.4 408.244 273.392 408.59 270.53C408.857 268.323 409.333 266.091 410.478 264.185C411.624 262.279 412.972 260.008 416.997 260.416Z" fill="#BBD6FA"/>
<path d="M385.878 253C388.525 250.233 392.71 250.712 395.304 252.187C397.898 253.662 399.769 256.152 401.186 258.778C402.26 260.769 403.121 262.896 403.499 265.127C403.877 267.358 403.754 269.702 402.923 271.806C402.373 273.197 401.471 274.51 400.152 275.215C398.052 276.337 395.434 275.674 393.321 274.577C389.188 272.431 385.922 268.668 384.377 264.275C383.715 262.393 383.359 260.381 383.551 258.396C383.743 256.411 384.51 254.452 385.878 253Z" fill="#BBD6FA"/>
<path d="M359.154 289.539C358.754 291.51 359.165 293.587 360.027 295.404C360.888 297.221 362.177 298.804 363.574 300.251C365.564 302.311 367.896 304.184 370.668 304.907C373.44 305.63 376.721 304.963 378.473 302.697C380.237 300.416 380.04 297.049 378.625 294.537C377.209 292.025 374.791 290.237 372.286 288.81C370.354 287.71 368.277 286.764 366.064 286.548C363.851 286.332 361.223 286.063 359.154 289.539Z" fill="#BBD6FA"/>
<path d="M371.729 260.124C367.93 260.603 365.822 264.25 365.463 267.212C365.103 270.174 365.989 273.16 367.255 275.862C368.215 277.911 369.411 279.869 370.978 281.501C372.545 283.133 374.501 284.431 376.687 285.016C378.131 285.403 379.724 285.46 381.075 284.82C383.227 283.801 384.254 281.304 384.63 278.953C385.367 274.355 384.29 269.49 381.681 265.633C380.563 263.981 379.159 262.496 377.45 261.468C375.74 260.44 373.71 259.89 371.729 260.124Z" fill="#BBD6FA"/>
</svg>
