<svg width="322" height="162" viewBox="0 0 322 162" fill="none" xmlns="http://www.w3.org/2000/svg">
<g clip-path="url(#clip0_8_1275)">
<g filter="url(#filter0_d_8_1275)">
<path d="M319.725 82.9047C321.546 74.1285 322.087 63.7237 320.272 51.1078C320.597 46.4006 317.361 39.214 313.096 34.5865C313.102 34.3361 313.006 34.0798 312.755 33.8561C310.191 31.5959 307.206 29.0954 303.548 29.3937C302.04 29.5161 300.542 30.0445 299.454 31.137C298.228 32.3684 297.77 34.1276 297.871 35.8282C298.09 39.5123 300.067 42.988 301.848 46.1278C302.695 47.6206 303.516 49.1185 304.284 50.6431C304.598 51.4908 304.908 52.3386 305.206 53.1914C308.145 61.4839 310.377 69.9618 309.323 78.6629C312.031 81.2456 315.778 82.6224 319.725 82.9047Z" fill="#755A58"/>
<path d="M309.323 78.663C308.599 84.6404 306.324 90.7231 301.661 96.923C302.935 93.33 297.108 84.1974 299.571 82.1508C299.544 82.0284 299.512 81.9162 299.48 81.7938C302.162 78.7286 303.676 74.8475 304.609 70.918C305.696 66.3116 306.251 61.3488 305.766 56.6251C305.649 55.4682 305.435 54.3222 305.046 53.2508C304.662 52.1793 304.108 51.1767 303.303 50.3079C301.896 46.0699 288.349 52.1576 285.774 53.5382C282.394 55.9265 279.334 58.3524 276.087 59.77C275.943 59.9568 275.789 60.1378 275.624 60.3137C273.907 62.1316 271.556 61.5878 269.392 61.0709C269.109 61.0014 268.821 60.9377 268.533 60.8791C268.192 60.8255 267.845 60.7567 267.494 60.6713C265.905 60.3896 264.293 60.2328 262.682 60.2155C264.186 72.1858 261.008 84.5735 251.373 92.4236C243.377 99.354 230.049 102.553 220.986 95.0892C219.931 94.0343 218.922 92.9342 218 91.7703C215.345 103.382 218.057 116.981 231.177 119.724C229.024 123.984 228.282 128.862 229.061 133.569C212.615 138.223 225.772 159.639 237.831 149.349C239.937 151.3 243.595 150.778 245.337 148.608C245.668 151.497 250.156 148.251 250.556 146.646C257.225 146.689 263.895 146.736 270.569 146.784C273.73 150.106 279.733 150.628 283.582 147.968C285.384 150.975 289.425 152.158 292.592 150.746C297.752 152.585 301.212 146.262 300.449 141.811C288.918 125.362 313.022 115.196 319.723 82.9042C315.778 82.6224 312.031 81.2457 309.323 78.663Z" fill="#FFEBF5"/>
<path d="M251.374 92.4242C261.008 84.5741 264.187 72.1863 262.682 60.2161C262.374 60.2129 262.066 60.2059 261.758 60.2136C259.364 60.2671 256.89 60.981 254.614 59.8827C253.068 59.1313 252.178 57.6226 250.93 56.5294C244.756 52.4616 239.42 45.7288 231.397 43.7937C231.354 43.6815 231.295 43.5751 231.205 43.4737C230.48 42.6368 229.254 42.4609 228.246 42.8338C227.111 43.2602 226.444 44.236 226.018 45.3234C225.543 46.5281 225.245 47.8182 224.925 49.0713C224.562 50.4678 224.242 51.8758 223.965 53.2883C222.947 58.4862 222.349 64.073 223.283 69.3244C223.613 71.1799 224.269 73.0455 225.436 74.5275C223.773 77.4487 222.408 80.584 221.151 83.1852C219.783 85.7462 218.706 88.6897 218.001 91.7709C218.923 92.9354 219.932 94.0349 220.987 95.0898C230.049 102.553 243.377 99.3546 251.374 92.4242Z" fill="#E7B387"/>
<path d="M295.324 73.7536C296.783 74.899 297.729 76.3395 298.397 77.9292C298.693 77.4173 298.983 76.9081 299.272 76.4288C303.449 69.5079 306.142 59.6902 301.027 52.5571C300.288 52.7375 299.564 52.9759 298.861 53.278C294.106 55.3253 290.351 59.5264 288.015 64.2284C287.292 66.3809 286.905 68.5933 286.989 70.6858C289.986 71.0179 292.911 71.8587 295.324 73.7536Z" fill="#EAAC8E"/>
<path d="M239.805 59.3181C239.588 57.5531 238.928 55.8519 238.136 54.2725C237.293 52.5904 236.312 50.9402 235.124 49.4761C233.893 47.9585 232.485 46.7372 230.688 45.9443C229.882 45.5886 229.052 45.2954 228.22 45.0073C228.207 45.0379 228.199 45.0685 228.183 45.0997C227.052 47.2694 226.138 49.536 225.446 51.8829C224.899 53.7383 224.499 55.646 224.246 57.5729C224.176 59.7203 224.266 61.8766 224.461 64.0004C224.7 66.6098 225.279 69.1084 225.898 71.6465C225.974 71.9582 226.034 72.2986 226.092 72.6479C228.272 69.9166 231.058 67.8974 234.326 66.5741C235.827 65.9667 237.379 65.5231 238.956 65.1725C239.678 63.2986 240.054 61.336 239.805 59.3181Z" fill="#EAAC8E"/>
<path d="M227.349 69.4707C226.648 71.5269 225.586 73.4806 224.661 75.4431C223.76 77.3565 222.803 79.2439 221.874 81.1433C219.965 85.0448 218.094 89.0087 216.99 93.2257C215.956 97.175 215.603 101.367 216.558 105.369C217.344 108.663 218.971 111.729 221.158 114.306C223.606 117.191 226.895 119.579 230.545 120.662C231.493 120.943 231.834 119.549 230.946 119.208C224.86 116.871 220.02 111.946 218.273 105.594C216.085 97.6371 219.548 89.5448 222.961 82.4837C223.972 80.3924 224.995 78.3094 225.921 76.1786C226.842 74.0587 227.455 71.8896 228.105 69.6779C228.247 69.1915 227.51 68.9971 227.349 69.4707Z" fill="#49312C"/>
<path d="M254.122 60.2432C253.3 58.3221 251.807 56.6611 250.434 55.1065C249.022 53.5072 247.485 52.0253 245.858 50.6473C242.635 47.9179 239.056 45.6259 235.222 43.8552C234.261 43.4116 233.285 42.9979 232.297 42.618C231.299 42.2337 230.267 41.8614 229.184 41.8366C226.923 41.7849 225.7 43.5148 225.002 45.4385C223.321 50.0647 221.892 54.9184 221.4 59.8295C220.906 64.7706 221.523 70.2745 224.302 74.5138C224.842 75.3386 226.127 74.6056 225.633 73.7362C223.54 70.0533 222.714 66.0078 222.856 61.7889C223.013 57.1461 224.292 52.6123 225.677 48.2067C226.164 46.6565 226.599 43.7915 228.513 43.365C229.543 43.1356 230.655 43.576 231.604 43.9317C232.509 44.2701 233.403 44.6398 234.283 45.0401C237.844 46.6591 241.205 48.7466 244.246 51.2082C245.96 52.5951 247.564 54.1089 249.077 55.7107C250.606 57.329 251.868 59.2068 253.461 60.7544C253.828 61.1088 254.301 60.6613 254.122 60.2432Z" fill="#49312C"/>
<path d="M238.188 65.3966C237.31 63.9478 236.188 62.6634 234.909 61.5544C234.277 61.0049 233.609 60.4912 232.917 60.0189C232.193 59.5249 231.448 59.0392 230.615 58.7524C229.888 58.5019 229.559 59.5319 230.121 59.9246C230.777 60.3829 231.501 60.7372 232.171 61.1764C232.827 61.606 233.456 62.0726 234.053 62.5799C235.272 63.6151 236.379 64.777 237.41 65.997C237.775 66.4311 238.475 65.8714 238.188 65.3966Z" fill="#49312C"/>
<path d="M235.037 64.9924C234.208 64.8433 233.379 64.6941 232.55 64.5437C232.142 64.4698 231.732 64.4143 231.321 64.3563C230.878 64.2932 230.323 64.1179 229.889 64.2766C229.382 64.4627 229.312 65.0708 229.745 65.3806C230.109 65.6413 230.664 65.6209 231.094 65.677C231.521 65.7331 231.947 65.7917 232.376 65.8312C233.215 65.9084 234.054 65.9861 234.893 66.0639C235.499 66.1206 235.643 65.1014 235.037 64.9924Z" fill="#49312C"/>
<path d="M232.261 66.3204C231.704 66.3969 231.147 66.4733 230.589 66.5498C230.316 66.5874 230.042 66.6206 229.771 66.6652C229.488 66.7111 229.204 66.743 228.934 66.8379C228.63 66.9444 228.43 67.2127 228.474 67.5416C228.517 67.8616 228.782 68.0866 229.104 68.0974C229.428 68.1089 229.749 68.0426 230.069 67.9967C230.352 67.9565 230.634 67.9062 230.916 67.8584C231.479 67.7634 232.043 67.6678 232.606 67.5728C232.942 67.5161 233.16 67.084 233.06 66.7736C232.94 66.4026 232.623 66.2706 232.261 66.3204Z" fill="#49312C"/>
<path d="M244.605 150.833C246.765 151.283 249.263 151.026 250.738 149.2C252.202 147.389 252.317 144.941 251.578 142.801C250.102 138.526 246.398 135.021 242.306 133.242C237.853 131.306 232.706 131.286 228.235 133.187C224.077 134.956 220.569 138.491 220.027 143.128C219.734 145.641 220.449 148.251 222.191 150.117C223.796 151.838 226.194 152.865 228.555 152.573C229.547 152.45 229.561 150.875 228.555 150.998C224.642 151.478 221.588 148.079 221.552 144.327C221.514 140.291 224.262 137.017 227.68 135.196C231.398 133.215 235.906 132.838 239.922 134.078C243.513 135.187 246.672 137.634 248.698 140.794C249.888 142.65 250.9 145.028 250.041 147.224C249.138 149.532 246.677 149.552 244.607 150.022C244.209 150.112 244.2 150.748 244.605 150.833Z" fill="#49312C"/>
<path d="M226.631 148.06C226.821 149.363 227.267 150.504 228.262 151.416C229.249 152.321 230.474 152.886 231.812 152.996C234.425 153.212 237.165 151.48 238.046 149.008C238.362 148.12 236.901 147.487 236.508 148.359C235.675 150.21 233.99 151.527 231.884 151.395C230.94 151.335 229.981 150.917 229.251 150.324C228.48 149.697 227.681 148.815 227.385 147.851C227.234 147.357 226.559 147.573 226.631 148.06Z" fill="#49312C"/>
<path d="M237.015 149.335C237.216 149.613 237.319 149.915 237.552 150.179C237.743 150.395 237.969 150.588 238.193 150.768C238.697 151.174 239.235 151.467 239.84 151.698C241.038 152.157 242.39 152.227 243.625 151.875C244.859 151.524 245.927 150.778 246.659 149.723C247.32 148.768 247.863 147.155 247.415 146.01C247.096 145.193 245.884 145.276 245.844 146.222C245.826 146.667 245.913 147.093 245.814 147.538C245.71 148.006 245.538 148.43 245.277 148.832C244.77 149.615 243.95 150.132 243.06 150.372C242.153 150.617 241.197 150.571 240.307 150.28C239.838 150.127 239.386 149.903 238.955 149.663C238.743 149.544 238.544 149.409 238.341 149.275C238.124 149.132 237.822 149.028 237.63 148.86C237.317 148.586 236.737 148.954 237.015 149.335Z" fill="#49312C"/>
<path d="M236.726 145.449C236.78 146.082 236.875 146.717 236.896 147.353C236.906 147.677 236.895 148.001 236.861 148.324C236.828 148.64 236.728 148.961 236.725 149.282C236.722 149.753 237.439 149.996 237.657 149.535C237.823 149.181 237.859 148.779 237.892 148.393C237.921 148.048 237.925 147.7 237.903 147.354C237.857 146.615 237.71 145.924 237.316 145.29C237.161 145.04 236.699 145.12 236.726 145.449Z" fill="#49312C"/>
<path d="M297.487 76.1231C297.642 78.2093 297.738 80.2732 298.129 82.3345C298.526 84.4213 299.023 86.4846 299.53 88.5465C300.524 92.5883 301.503 96.6586 301.763 100.827C302.008 104.749 301.656 108.818 299.999 112.428C298.658 115.346 296.595 117.905 294.063 119.876C291.157 122.138 287.768 123.435 284.15 124.001C283.317 124.131 283.505 125.547 284.351 125.482C291.039 124.965 297.302 120.532 300.591 114.777C304.783 107.445 303.573 98.6881 301.707 90.8526C301.136 88.4573 300.512 86.0747 299.925 83.6832C299.623 82.4505 299.356 81.2095 299.064 79.9743C298.763 78.6995 298.421 77.4272 298.269 76.1231C298.213 75.6342 297.448 75.6126 297.487 76.1231Z" fill="#49312C"/>
<path d="M278.362 62.8459C277.241 62.2958 276.158 61.7999 274.966 61.4022C273.836 61.0249 272.69 60.7049 271.53 60.4302C269.123 59.8603 266.67 59.4792 264.205 59.2829C259.314 58.8934 254.273 59.2178 249.505 60.4072C248.775 60.5895 249.084 61.6916 249.815 61.5316C254.519 60.5009 259.276 60.0802 264.086 60.4531C268.879 60.8247 273.514 62.0664 278.07 63.5394C278.474 63.6688 278.751 63.0365 278.362 62.8459Z" fill="#49312C"/>
<path d="M274.553 62.1038C276.244 61.0439 277.706 59.6403 279.336 58.4847C280.977 57.3209 282.686 56.2437 284.456 55.2869C287.978 53.3843 291.739 51.9317 295.629 50.9884C297.487 50.5377 299.552 49.9838 301.478 50.0839C302.402 50.1323 303.206 50.5008 303.639 51.3498C304.068 52.1911 304.13 53.1931 304.222 54.116C304.688 58.8283 305.112 63.6406 304.465 68.3567C303.84 72.9096 302.149 77.1591 299.074 80.6054C298.418 81.341 299.452 82.3978 300.164 81.6954C303.234 78.6658 304.982 74.3673 305.767 70.1879C306.709 65.1748 306.356 60.068 305.823 55.032C305.618 53.0975 305.585 50.6837 303.882 49.3917C302.225 48.136 299.911 48.6466 298.032 48.9799C293.753 49.7397 289.575 51.1056 285.671 53.0159C283.503 54.0772 281.399 55.2952 279.43 56.6937C277.486 58.0742 275.366 59.5651 273.978 61.5283C273.73 61.8769 274.21 62.3186 274.553 62.1038Z" fill="#49312C"/>
<path d="M289.144 70.6042C290.404 69.6315 291.723 68.7315 293.126 67.9775C293.81 67.6103 294.513 67.2795 295.237 66.9997C295.995 66.7065 296.786 66.5096 297.534 66.1947C297.832 66.0691 298.04 65.8352 297.993 65.491C297.955 65.2067 297.68 64.8963 297.364 64.9352C295.701 65.1379 294.031 65.9531 292.576 66.7524C291.087 67.5695 289.71 68.5913 288.543 69.8259C288.176 70.2147 288.68 70.9617 289.144 70.6042Z" fill="#49312C"/>
<path d="M291.723 71.1979C292.567 71.2987 293.411 71.3994 294.256 71.5013C294.669 71.5511 295.083 71.5823 295.498 71.6161C295.98 71.6556 296.445 71.7435 296.902 71.546C297.343 71.3554 297.245 70.7205 296.902 70.5032C296.518 70.261 295.984 70.2999 295.546 70.2686C295.116 70.238 294.687 70.2042 294.256 70.1902C293.412 70.1628 292.568 70.1348 291.723 70.1067C291.429 70.0965 291.178 70.3649 291.178 70.6523C291.178 70.9761 291.429 71.1629 291.723 71.1979Z" fill="#49312C"/>
<path d="M293.655 73.1919C294.177 73.3996 294.699 73.6081 295.221 73.8159C295.473 73.9159 295.723 74.0198 295.977 74.1135C296.25 74.2142 296.518 74.3296 296.805 74.3806C297.123 74.438 297.43 74.3207 297.561 74.009C297.686 73.7139 297.573 73.3767 297.299 73.2078C297.019 73.0363 296.704 72.9324 296.399 72.8126C296.139 72.71 295.874 72.6176 295.61 72.522C295.073 72.3276 294.536 72.1332 294 71.9381C293.68 71.8221 293.274 72.0681 293.2 72.3919C293.115 72.7674 293.316 73.0567 293.655 73.1919Z" fill="#49312C"/>
<path d="M276.95 149.126C275.126 148.713 272.895 148.724 271.814 146.925C270.761 145.173 271.215 142.983 272.081 141.256C273.775 137.883 276.779 135.12 280.262 133.675C284.136 132.067 288.602 132.08 292.486 133.647C296.046 135.084 299.212 137.988 299.888 141.901C300.257 144.038 299.796 146.397 298.311 148.031C296.952 149.527 295.022 150.35 293.001 150.103C291.997 149.98 292.007 151.554 293.001 151.677C295.084 151.935 297.15 151.167 298.732 149.826C300.435 148.381 301.375 146.286 301.562 144.083C301.964 139.358 298.83 135.228 294.857 133.034C290.626 130.698 285.382 130.219 280.796 131.746C276.584 133.149 272.876 136.153 270.779 140.086C269.546 142.396 268.954 145.182 270.313 147.576C271.666 149.956 274.453 150.457 276.949 149.937C277.356 149.854 277.348 149.216 276.95 149.126Z" fill="#49312C"/>
<path d="M294.17 146.957C293.881 147.9 293.107 148.76 292.361 149.383C291.619 150.002 290.642 150.439 289.671 150.5C287.566 150.633 285.88 149.315 285.047 147.465C284.658 146.602 283.19 147.216 283.509 148.113C284.388 150.58 287.132 152.325 289.744 152.102C291.083 151.987 292.302 151.427 293.293 150.521C294.289 149.61 294.734 148.467 294.924 147.165C294.996 146.679 294.322 146.461 294.17 146.957Z" fill="#49312C"/>
<path d="M283.927 147.966C283.748 148.123 283.477 148.208 283.276 148.34C283.073 148.473 282.876 148.612 282.665 148.732C282.239 148.977 281.785 149.204 281.319 149.362C280.406 149.671 279.431 149.727 278.497 149.476C277.634 149.246 276.824 148.746 276.318 147.996C276.051 147.6 275.868 147.176 275.759 146.711C275.648 146.24 275.731 145.798 275.711 145.326C275.672 144.386 274.463 144.29 274.141 145.114C273.7 146.24 274.222 147.82 274.857 148.768C275.583 149.852 276.675 150.626 277.93 150.98C279.144 151.322 280.465 151.265 281.648 150.829C282.276 150.597 282.842 150.294 283.363 149.873C283.587 149.691 283.812 149.5 284.004 149.284C284.236 149.022 284.34 148.716 284.541 148.44C284.816 148.062 284.242 147.689 283.927 147.966Z" fill="#49312C"/>
<path d="M284.24 144.394C283.847 145.027 283.699 145.72 283.653 146.458C283.632 146.804 283.635 147.152 283.665 147.497C283.698 147.884 283.733 148.285 283.9 148.639C284.117 149.1 284.836 148.857 284.831 148.386C284.829 148.065 284.729 147.745 284.695 147.428C284.662 147.106 284.65 146.781 284.66 146.457C284.681 145.822 284.776 145.186 284.83 144.553C284.858 144.226 284.394 144.145 284.24 144.394Z" fill="#49312C"/>
<path d="M293.666 122.433C293.664 122.974 293.538 123.504 293.548 124.052C293.558 124.591 293.578 125.128 293.635 125.665C293.739 126.652 293.867 127.643 294.07 128.615C294.275 129.604 294.522 130.583 294.808 131.552C295.084 132.485 295.33 133.689 295.954 134.45C296.281 134.85 296.982 134.518 296.963 134.032C296.928 133.094 296.397 132.088 296.126 131.188C295.846 130.257 295.603 129.313 295.396 128.362C295.19 127.412 294.987 126.462 294.833 125.503C294.753 125.008 294.662 124.516 294.581 124.021C294.496 123.494 294.301 122.958 294.249 122.434C294.213 122.067 293.668 122.05 293.666 122.433Z" fill="#49312C"/>
<path d="M303.046 96.0183C309.256 85.6823 310.877 72.8172 308.583 61.0745C307.431 55.1812 305.247 49.4778 302.088 44.3678C300.423 41.6748 298.376 38.8939 298.537 35.5686C298.678 32.6564 300.846 30.7601 303.684 30.6046C309.634 30.2789 314.247 35.6024 316.451 40.5651C319.038 46.3877 319.808 53.037 320.244 59.3357C321.072 71.2734 319.297 83.5146 315.461 94.8308C311.627 106.141 305.649 116.816 297.769 125.807C296.797 126.917 295.797 127.999 294.772 129.058C294.227 129.621 295.09 130.485 295.631 129.918C304.154 121.005 310.798 110.406 315.238 98.9076C319.658 87.4594 321.927 75.187 321.694 62.9096C321.636 59.8227 321.458 56.7441 321.088 53.6776C320.689 50.3606 320.193 47.0162 319.296 43.7935C317.642 37.8505 313.93 31.9049 307.903 29.6715C305.457 28.7651 302.431 28.6733 300.131 30.0386C297.514 31.5919 296.734 34.6782 297.238 37.528C297.822 40.8245 300.032 43.5367 301.662 46.3648C303.223 49.0705 304.509 51.9279 305.51 54.8861C309.493 66.6523 309.096 79.9547 304.236 91.4061C303.635 92.8218 303.03 94.2317 302.333 95.6033C302.095 96.0731 302.771 96.4766 303.046 96.0183Z" fill="#49312C"/>
<path d="M264.616 101.172C263.683 102.292 262.74 103.422 261.519 104.216C260.304 105.005 258.752 105.416 257.372 104.952C256.572 104.68 255.89 104.136 255.239 103.587C254.146 102.66 253.069 101.663 252.36 100.41C251.652 99.1572 251.353 97.6052 251.875 96.2673L252.969 95.2647C256.386 94.545 259.995 94.7688 263.295 95.9154C264.42 96.3049 265.646 96.955 265.891 98.117C266.125 99.2369 265.347 100.292 264.616 101.172Z" fill="#EAAC8E"/>
<path d="M245.688 99.0093C245.219 99.1062 244.781 99.0565 244.312 99.2292C243.841 99.4026 243.4 99.648 243.043 100.007C242.35 100.706 242.099 101.688 242.08 102.648C242.042 104.498 242.649 106.59 243.473 108.235C244.335 109.955 245.76 111.423 247.629 111.994C249.655 112.613 251.902 112.166 253.745 111.205C255.922 110.069 257.863 108.192 259.345 106.256C259.819 105.636 258.833 104.969 258.305 105.453C256.576 107.039 255.156 108.882 253.03 109.982C251.051 111.006 248.53 111.294 246.63 109.944C245.003 108.788 244.212 106.705 243.781 104.83C243.566 103.89 243.36 102.811 243.587 101.858C243.715 101.319 244.004 100.883 244.452 100.559C244.663 100.407 244.899 100.288 245.129 100.167C245.369 100.042 245.636 99.8246 245.886 99.7341C246.339 99.5677 246.165 98.9105 245.688 99.0093Z" fill="#49312C"/>
<path d="M272.695 102.212C273.109 102.472 273.584 102.943 273.919 103.309C274.329 103.756 274.521 104.284 274.512 104.89C274.498 105.954 274.003 107.057 273.531 107.992C272.663 109.712 271.422 111.5 269.529 112.169C267.47 112.896 265.219 112.086 263.593 110.758C261.736 109.242 260.74 107.143 259.384 105.23C258.89 104.534 257.874 105.124 258.24 105.899C259.963 109.542 263.09 113.462 267.386 113.84C271.572 114.208 274.324 110.338 275.56 106.824C275.928 105.778 276.114 104.538 275.649 103.494C275.422 102.984 275.067 102.572 274.621 102.242C274.407 102.084 274.19 101.952 273.948 101.841C273.664 101.711 273.353 101.688 273.074 101.565C272.64 101.373 272.277 101.948 272.695 102.212Z" fill="#49312C"/>
<path d="M254.69 113.156C254.728 113.325 254.753 113.549 254.832 113.757C254.918 113.984 255.027 114.195 255.154 114.402C255.396 114.798 255.68 115.173 256.004 115.506C256.326 115.838 256.686 116.133 257.064 116.398C257.456 116.673 257.881 116.872 258.326 117.048C258.682 117.188 259.142 116.895 259.223 116.538C259.32 116.116 259.093 115.796 258.714 115.642C258.546 115.573 258.859 115.708 258.694 115.633C258.646 115.612 258.599 115.59 258.551 115.568C258.464 115.527 258.378 115.483 258.293 115.438C258.123 115.348 257.952 115.259 257.786 115.16C257.614 115.057 257.446 114.946 257.284 114.828C257.268 114.816 257.15 114.726 257.229 114.787C257.308 114.848 257.19 114.755 257.175 114.743C257.093 114.677 257.013 114.608 256.934 114.538C256.649 114.282 256.376 114.007 256.133 113.712C256.099 113.671 256.067 113.631 256.035 113.59C256.112 113.688 256.007 113.55 256.001 113.542C255.931 113.446 255.859 113.353 255.784 113.262C255.751 113.222 255.719 113.183 255.688 113.143C255.762 113.238 255.532 112.954 255.595 113.022C255.536 112.958 255.464 112.908 255.421 112.849C255.162 112.489 254.585 112.695 254.69 113.156Z" fill="#49312C"/>
<path d="M248.904 87.6631C248.886 93.9102 240.623 93.7891 240.789 87.5439C240.807 81.2975 249.07 81.4186 248.904 87.6631Z" fill="#49312C"/>
<path d="M279.047 91.3862C279.029 97.6327 270.766 97.5122 270.932 91.267C270.95 85.0199 279.213 85.1411 279.047 91.3862Z" fill="#49312C"/>
<path d="M239.535 79.758C240.131 79.7268 240.645 79.308 241.139 79.0072C241.648 78.6968 242.153 78.3965 242.697 78.148C243.129 77.9504 243.679 77.7515 244.2 77.596C244.476 77.5131 244.755 77.4411 245.036 77.3793C245.329 77.3149 245.653 77.3009 245.933 77.197C246.355 77.0402 246.653 76.6711 246.583 76.2007C246.514 75.7437 246.153 75.4359 245.691 75.4136C245.352 75.397 244.977 75.506 244.646 75.5837C244.349 75.6538 244.055 75.7354 243.764 75.8291C243.126 76.0337 242.505 76.2957 241.911 76.6036C241.369 76.884 240.845 77.2046 240.355 77.5679C239.86 77.9344 239.149 78.4749 239.048 79.1206C239.002 79.4221 239.177 79.7771 239.535 79.758Z" fill="#49312C"/>
<path d="M279.457 83.3563C279.627 82.6978 278.955 82.2395 278.49 81.9215C278.044 81.6168 277.588 81.3536 277.094 81.1362C276.051 80.6773 274.919 80.2515 273.774 80.1546C273.308 80.1151 272.907 80.5434 272.849 80.9711C272.788 81.4275 273.068 81.8801 273.524 82.0037C274.024 82.1401 274.538 82.2249 275.039 82.3658C275.539 82.5066 276.031 82.6762 276.511 82.875C276.419 82.8374 276.5 82.8706 276.544 82.8903C276.6 82.9152 276.656 82.9407 276.712 82.9655C276.868 83.0337 277.024 83.0981 277.182 83.1606C277.21 83.172 277.239 83.1835 277.267 83.195C277.21 83.1708 277.211 83.1714 277.267 83.1956C277.324 83.2199 277.38 83.2447 277.436 83.2702C277.548 83.3206 277.659 83.3722 277.77 83.4257C278.06 83.566 278.371 83.7247 278.694 83.7572C278.984 83.7859 279.373 83.6813 279.457 83.3563Z" fill="#49312C"/>
<path d="M230.713 120.511C229.4 121.391 228.48 122.636 227.73 124.016C227.363 124.691 227.062 125.406 226.812 126.132C226.562 126.858 226.247 127.725 226.283 128.502C226.319 129.263 227.286 129.335 227.551 128.673C227.811 128.025 227.885 127.286 228.103 126.618C228.324 125.937 228.603 125.28 228.922 124.641C229.56 123.364 230.429 122.206 231.232 121.03C231.444 120.719 231.023 120.303 230.713 120.511Z" fill="#49312C"/>
<path d="M229.844 125.947C229.478 126.378 229.101 126.781 228.816 127.274C228.522 127.783 228.309 128.351 228.15 128.916C227.831 130.05 227.776 131.288 228.032 132.441C228.114 132.816 228.55 133.037 228.908 132.938C229.318 132.825 229.459 132.445 229.406 132.062C229.273 131.12 229.273 130.161 229.455 129.224C229.549 128.743 229.696 128.28 229.859 127.818C230.025 127.343 230.2 126.855 230.473 126.431C230.714 126.056 230.141 125.598 229.844 125.947Z" fill="#49312C"/>
</g>
<g filter="url(#filter1_d_8_1275)">
<path d="M100.136 146.598C98.9446 146.469 48.1492 146.831 47.5149 146.482C45.2139 138.451 36.3271 129.329 39.496 121.041C45.5696 117.39 53.5564 123.631 60.4932 121.695C76.5459 121.597 84.5579 106.788 91.4246 113.599C99.3228 122.147 101.639 136.605 100.136 146.598Z" fill="#FAF1DD"/>
<path d="M109.145 146.824C107.505 152.807 98.7533 154.856 95.634 149.044C93.5137 152.558 87.9573 152.119 86.3431 148.365C76.5296 152.173 76.5766 135.322 84.1894 132.458C96.5845 129.415 99.2922 129.051 92.3363 116.461C80.397 131.067 56.8583 132.66 41.4257 122.78C41.1144 133.118 55.8976 133.227 58.2783 142.3C59.9469 146.765 54.9458 152.283 50.5122 149.818C48.629 152.129 44.966 153.865 42.1493 152.314C41.7739 152.231 41.3985 152.126 41.0333 151.994C32.2731 159.378 24.0193 147.303 27.7776 138.787C30.1351 131.921 36.0069 127.094 38.9122 120.526C20.466 110.474 29.8203 86.9342 27.6338 70.3174C25.7874 56.8737 16.3343 45.8161 4.34046 40.0321C-12.1217 23.497 36.1057 21.0551 48.7884 54.2709L66.2814 53.0002C61.8656 15.8175 112.807 -0.613258 99.5062 22.3122C90.7889 29.4091 85.4983 40.3789 87.0449 51.7356C87.7385 64.6643 100.091 71.5854 104.449 82.8543C108.279 93.3274 104.385 105.806 95.3015 112.262C95.4617 125.472 113.195 133.18 109.145 146.824Z" fill="#755A58"/>
<path d="M93.5237 104.867C90.9305 109.22 85.6997 109.307 81.228 109.656C76.4524 116.211 64.4545 119.421 57.8025 115.053C39.6036 125.067 31.8975 102.695 45.6472 92.3223C45.6983 77.6685 65.4554 73.9592 48.0735 55.9388C47.138 54.8569 49.4825 54.5094 50.1189 54.1605C78.2996 43.1376 53.4078 68.7741 72.4406 76.3821C84.2369 79.6267 79.9266 85.5013 90.1367 88.953C90.1312 88.9476 90.1258 88.9421 90.1204 88.9421C94.8523 92.2256 96.694 99.779 93.5237 104.867Z" fill="#FAF1DD"/>
<path d="M83.229 107.653C79.2172 105.941 75.4765 103.154 72.8452 99.6659C70.4379 96.4745 69.142 92.7182 68.6371 88.812C66.4555 91.5299 63.1087 93.1318 59.7128 91.008C60.0862 92.3039 60.3519 93.6339 60.5107 94.998C61.0489 99.6135 60.7566 104.711 58.8863 109.011C57.9672 111.124 56.5554 112.924 54.8282 114.438C53.2727 115.802 51.4357 117.115 49.4026 117.669C56.5779 119.58 66.3614 105.429 65.2263 94.5796C69.187 104.138 81.8499 114.912 87.9896 108.973C86.3584 108.751 84.7668 108.31 83.229 107.653Z" fill="#EAAC8E"/>
<path d="M46.4239 80.4621C47.8915 87.4289 38.9147 89.2127 37.6079 82.2139C36.1403 75.2477 45.1171 73.4633 46.4239 80.4621Z" fill="#49312C"/>
<path d="M77.3628 74.0274C78.6703 81.0263 87.6471 79.2425 86.1788 72.275C84.8713 65.2768 75.8952 67.0606 77.3628 74.0274Z" fill="#49312C"/>
<path d="M102.768 17.675C96.8686 34.0077 111.754 62.2572 94.7006 69.4339C92.3492 63.56 85.546 60.9184 83.2362 55.0192C79.3675 40.8287 86.8541 17.7882 102.768 17.675Z" fill="#EAAC8E"/>
<path d="M32.1279 58.8057C35.1374 63.1167 29.8992 86.7425 24.7386 82.1809C8.9933 73.5686 12.6596 52.1122 2.39305 39.3109C1.80777 34.9932 7.79821 37.0488 10.155 37.6157C20.3616 40.4863 28.9944 48.64 32.1279 58.8057Z" fill="#EAAC8E"/>
<path d="M31.6619 70.1069C31.2899 71.2148 30.7898 72.2811 30.3926 73.3836C29.9981 74.4792 29.6887 75.6089 29.346 76.7215C28.6497 78.9815 28.0147 81.2613 27.3742 83.5377C26.1341 87.9468 25.0283 92.4669 24.9677 97.0721C24.8614 105.184 28.388 113.151 34.5011 118.492C37.7294 121.313 41.5667 123.402 45.6944 124.559C46.5842 124.809 46.9617 123.433 46.0752 123.177C38.8291 121.081 32.7323 115.96 29.4625 109.155C27.7837 105.663 26.8584 101.766 26.8039 97.8911C26.7419 93.4855 27.7564 89.1807 28.8936 84.9529C29.5423 82.5402 30.2624 80.146 30.8832 77.7258C31.1836 76.5525 31.5107 75.3827 31.7866 74.2032C32.0851 72.9243 32.2104 71.6155 32.5041 70.3393C32.6301 69.7894 31.8405 69.5755 31.6619 70.1069Z" fill="#49312C"/>
<path d="M64.4368 93.0842C64.5179 92.8914 64.3156 93.3322 64.3258 93.3043C64.1922 93.6668 64.2093 94.0729 64.1405 94.4538C63.9415 95.5555 63.8604 96.6695 63.7541 97.7849C63.5095 100.352 63.2813 103.004 62.4425 105.46C61.4041 108.5 59.4643 111.158 57.0088 113.208C54.389 115.395 50.9127 117.133 47.4181 116.912C43.8921 116.69 40.4185 113.984 40.2019 110.297C40.1508 109.424 38.7833 109.42 38.8398 110.297C39.0572 113.705 41.5325 116.485 44.6415 117.698C48.3154 119.13 52.6951 118.281 56.0303 116.374C59.1427 114.596 61.6964 111.853 63.3283 108.666C64.7721 105.845 65.3062 102.727 65.5474 99.5939C65.6606 98.1242 65.775 96.6191 65.666 95.146C65.6122 94.4238 65.5611 93.6368 65.3301 93.0836C65.1475 92.6468 64.6201 92.6482 64.4368 93.0842Z" fill="#49312C"/>
<path d="M39.167 107.16C38.6969 106.105 38.6594 104.622 38.8727 103.508C39.1098 102.27 39.661 101.111 40.3975 100.093C42.0205 97.8495 44.502 96.3962 46.7539 94.8699C47.3548 94.4625 46.8138 93.5025 46.1788 93.8861C43.5331 95.4818 40.6558 97.053 38.8291 99.6319C37.9883 100.818 37.4466 102.244 37.2879 103.689C37.2143 104.36 37.232 105.048 37.3614 105.712C37.5086 106.467 37.9018 107.038 38.3365 107.645C38.7003 108.154 39.4191 107.726 39.167 107.16Z" fill="#49312C"/>
<path d="M49.099 54.2383C47.2689 46.7625 42.0136 40.163 35.985 35.5591C29.2669 30.4285 20.9095 27.622 12.4607 27.575C8.93062 27.5552 4.39214 27.6915 1.74237 30.3931C0.385797 31.7762 -0.162005 33.7317 0.0410379 35.6381C0.269972 37.7816 1.27973 39.6717 2.36308 41.497C4.69057 45.4189 6.66036 49.5016 8.10891 53.8322C9.53975 58.1111 10.3751 62.5528 11.6492 66.876C13.7621 74.0431 17.9258 81.9141 25.775 83.9146C26.6573 84.1394 27.5649 84.2634 28.4731 84.3084C29.5728 84.3629 29.5701 82.652 28.4731 82.5989C20.9592 82.2357 16.1168 75.0877 13.9031 68.6394C12.5411 64.6712 11.7357 60.5442 10.6061 56.5099C9.46004 52.4171 7.90791 48.4386 5.96402 44.6585C5.01762 42.8182 3.89884 41.0794 2.92587 39.2554C2.00401 37.5275 1.20478 35.4201 1.80369 33.4503C2.83593 30.0551 7.47185 29.7751 10.3846 29.6422C18.3053 29.2811 26.3759 31.4464 32.9905 35.8405C36.3823 38.093 39.4041 40.9383 41.8924 44.1598C44.3929 47.3975 46.2878 51.0019 47.9911 54.705C48.2875 55.3462 49.2564 54.8822 49.099 54.2383Z" fill="#49312C"/>
<path d="M35.4706 63.0188C34.2673 61.3543 33.1881 59.5692 32.2642 57.735C31.328 55.8756 30.7093 53.9453 30.0614 51.9762C29.7261 50.9576 28.2299 51.3691 28.4554 52.4191C28.9058 54.5135 29.8243 56.5821 30.8177 58.4702C31.8288 60.3936 33.0784 62.1324 34.5406 63.737C34.9855 64.2242 35.8692 63.5694 35.4706 63.0188Z" fill="#49312C"/>
<path d="M32.59 64.2893C31.7935 63.1794 31.027 62.0497 30.221 60.9459C29.4034 59.8265 28.613 58.6573 27.7088 57.6053C27.1433 56.9478 26.0041 57.8158 26.4995 58.5387C27.283 59.6827 28.2103 60.747 29.0818 61.8249C29.9403 62.8871 30.8349 63.9187 31.7022 64.9741C32.1056 65.4653 32.9648 64.8119 32.59 64.2893Z" fill="#49312C"/>
<path d="M30.7231 64.7835C30.0145 65.0356 29.3018 65.2612 28.5857 65.4901C27.8709 65.7184 27.1712 66.0066 26.4673 66.2662C26.0796 66.4093 25.7744 66.8099 25.9141 67.2412C26.034 67.6118 26.4769 67.96 26.8891 67.7944C27.6229 67.5001 28.371 67.2282 29.0926 66.9053C29.7651 66.6041 30.3899 66.3091 31.0665 66.0284C31.3881 65.8948 31.6177 65.6005 31.5175 65.2346C31.4296 64.9164 31.0528 64.6657 30.7231 64.7835Z" fill="#49312C"/>
<path d="M30.0151 69.0134C29.7685 69.0761 29.5157 69.1109 29.2698 69.1756C29.0047 69.2458 28.7451 69.3705 28.4971 69.4836C28.0058 69.7077 27.5582 70.032 27.1392 70.3686C26.3399 71.0098 25.6688 71.9126 25.2511 72.844C25.0849 73.2146 25.1319 73.6991 25.5305 73.9096C25.88 74.0943 26.406 74.0214 26.5961 73.6303C26.7999 73.2106 27.037 72.8017 27.3088 72.4215C27.3463 72.3698 27.3845 72.3187 27.4219 72.2676C27.317 72.4106 27.4451 72.2403 27.4587 72.2226C27.5262 72.1401 27.595 72.0584 27.6659 71.9794C27.8294 71.7961 28.0045 71.6257 28.1796 71.454C28.3465 71.2905 28.5182 71.1331 28.6988 70.9853C28.7397 70.9519 28.7805 70.9185 28.8228 70.8858C28.7097 70.9737 28.8766 70.8476 28.8848 70.8422C28.9802 70.7727 29.0749 70.7032 29.1703 70.6344C29.3604 70.4974 29.5641 70.3809 29.7549 70.2453C29.9559 70.1022 30.1514 69.9714 30.379 69.8753C30.5923 69.7847 30.6563 69.4774 30.5718 69.286C30.4771 69.0707 30.2482 68.9542 30.0151 69.0134Z" fill="#49312C"/>
<path d="M42.2112 58.507C42.7645 58.1977 43.4322 58.0253 44.0141 57.7603C44.6028 57.4925 45.1894 57.2206 45.7788 56.9556C46.9643 56.4221 48.1656 55.9213 49.3893 55.4818C51.8142 54.6117 54.3209 53.9535 56.8596 53.5182C59.4051 53.0814 61.9943 52.8906 64.5766 52.9295C65.865 52.9486 67.1528 53.0269 68.4344 53.1639C69.7106 53.3008 70.9779 53.6258 72.2547 53.7144C73.2066 53.7805 73.2979 52.4014 72.47 52.1227C71.4978 51.7957 70.409 51.7112 69.3944 51.5811C68.356 51.4475 67.3129 51.3521 66.267 51.2963C64.1753 51.1845 62.076 51.2275 59.9904 51.4223C55.8587 51.8086 51.7938 52.7544 47.9394 54.2969C46.8662 54.7269 45.806 55.1902 44.7813 55.7264C44.2839 55.9867 43.7906 56.2661 43.315 56.5638C42.7604 56.9113 42.3018 57.3835 41.7568 57.7296C41.2703 58.0403 41.7029 58.7911 42.2112 58.507Z" fill="#49312C"/>
<path d="M56.224 114.876C56.4618 115.302 56.5851 115.725 56.9244 116.093C57.1969 116.39 57.5492 116.644 57.8858 116.863C58.6285 117.346 59.4958 117.658 60.3421 117.908C62.2505 118.471 64.2932 118.682 66.2794 118.644C68.243 118.607 70.2142 118.308 72.0995 117.758C73.948 117.218 76.1358 116.501 77.5598 115.145C78.0844 114.645 77.5469 113.63 76.828 113.887C75.1689 114.481 73.6727 115.443 71.9754 115.973C70.2796 116.502 68.5271 116.816 66.7522 116.899C65.01 116.98 63.2889 116.829 61.5801 116.486C60.787 116.327 59.9898 116.15 59.2383 115.845C58.841 115.684 58.4527 115.49 58.0922 115.259C57.7577 115.044 57.2072 114.76 56.9714 114.44C56.6471 114.003 55.9467 114.38 56.224 114.876Z" fill="#49312C"/>
<path d="M37.9561 120.174C37.3422 120.997 37.0404 122.128 36.5852 123.05C36.1069 124.02 35.5489 124.947 34.9738 125.862C33.808 127.717 32.4678 129.453 31.1583 131.207C28.5882 134.649 26.0454 138.322 25.3157 142.65C24.9334 144.917 24.9634 147.521 26.1483 149.566C26.5523 150.263 27.5866 149.788 27.4176 149.031C27.1328 147.755 26.8698 146.517 26.8916 145.2C26.9134 143.89 27.1308 142.596 27.5015 141.341C28.2673 138.746 29.7049 136.414 31.2462 134.213C32.7996 131.995 34.5092 129.888 35.9836 127.614C36.7113 126.493 37.364 125.333 37.9057 124.11C38.3833 123.032 39.0442 121.637 38.9005 120.431C38.8405 119.917 38.2682 119.756 37.9561 120.174Z" fill="#49312C"/>
<path d="M28.2369 151.631C28.5531 152.104 28.8801 152.578 29.278 152.987C29.6841 153.405 30.1849 153.741 30.7089 153.99C31.7684 154.494 32.9839 154.794 34.1613 154.669C34.5367 154.629 34.8603 154.376 34.8603 153.97C34.8603 153.609 34.5401 153.248 34.1613 153.271C33.1672 153.33 32.2555 153.233 31.3337 152.838C30.4411 152.456 29.4708 151.918 28.8522 151.156C28.5735 150.812 27.991 151.262 28.2369 151.631Z" fill="#49312C"/>
<path d="M30.7549 140.859C31.6215 138 34.5405 136.276 37.1821 135.355C40.1984 134.301 43.4798 133.412 46.6978 133.598C49.6126 133.766 52.2747 134.998 53.9808 137.418C55.6542 139.792 56.8452 142.853 56.7852 145.78C56.7246 148.775 54.303 152.119 50.9821 151.031C50.1516 150.759 49.8007 152.06 50.6224 152.336C53.7648 153.393 56.914 151.246 58.0225 148.338C59.3096 144.962 58.1704 141.215 56.5651 138.152C54.9537 135.078 52.3789 132.868 48.9374 132.158C45.1695 131.381 41.2967 132.354 37.7128 133.518C34.1759 134.666 30.5184 136.614 29.8446 140.608C29.7458 141.197 30.575 141.452 30.7549 140.859Z" fill="#49312C"/>
<path d="M48.1159 146.642C48.7972 147.764 49.5801 149.278 49.2129 150.628C48.909 151.742 47.5435 152.14 46.5678 152.425C45.3946 152.768 43.9549 153.19 42.8272 152.495C42.4368 152.255 42.1193 151.851 41.9415 151.405C41.7425 150.904 41.8011 150.401 41.8093 149.873C41.8216 149.101 40.7471 148.821 40.3655 149.482C39.7339 150.575 40.0698 152.14 40.7804 153.123C41.6628 154.342 43.0364 154.888 44.5272 154.806C45.9144 154.731 47.3705 154.33 48.6283 153.745C49.9548 153.128 50.8317 151.988 50.9183 150.505C50.9666 149.684 50.735 148.886 50.3602 148.163C49.9555 147.383 49.3689 146.773 48.8279 146.093C48.5056 145.684 47.8529 146.209 48.1159 146.642Z" fill="#49312C"/>
<path d="M40.6898 149.925C40.531 150.504 40.1835 151.1 39.8626 151.603C39.5587 152.078 39.2078 152.531 38.769 152.891C37.9119 153.592 36.8585 153.902 35.7847 153.766C34.8519 153.648 33.9226 153.062 33.43 152.205C32.9081 151.297 32.9319 150.26 33.3264 149.262C33.4743 148.888 33.1949 148.433 32.8522 148.295C32.4522 148.135 32.0727 148.289 31.8295 148.631C30.3509 150.702 31.3696 153.846 33.4354 155.095C35.6675 156.446 38.7139 155.963 40.3845 153.962C40.8492 153.406 41.2056 152.818 41.4406 152.13C41.6777 151.434 41.6682 150.771 41.6171 150.051C41.5796 149.538 40.8369 149.389 40.6898 149.925Z" fill="#49312C"/>
<path d="M36.4279 75.0236C36.973 74.8785 37.405 74.5589 37.8874 74.2796C38.3698 74.0002 38.8617 73.7297 39.3755 73.511C39.5247 73.4476 39.2876 73.5458 39.4368 73.4865C39.4974 73.4626 39.5581 73.4381 39.6194 73.4149C39.7413 73.3686 39.8647 73.3243 39.988 73.2807C40.251 73.1881 40.516 73.1029 40.7852 73.03C41.0386 72.9612 41.2948 72.9012 41.5524 72.8515C41.6975 72.8235 41.8433 72.799 41.9898 72.7765C42.154 72.7513 41.8638 72.7908 42.028 72.7711C42.109 72.7615 42.1908 72.7527 42.2719 72.7445C42.8476 72.6859 43.3041 72.2703 43.221 71.6502C43.1372 71.0268 42.5894 70.7631 42.015 70.8469C40.8002 71.0241 39.6214 71.4056 38.5326 71.9746C37.9889 72.2587 37.4779 72.5878 36.9982 72.97C36.4886 73.3761 36.043 73.7897 35.8188 74.4158C35.6894 74.7811 36.0859 75.1149 36.4279 75.0236Z" fill="#49312C"/>
<path d="M86.3232 59.3036C86.9657 60.2064 87.5013 61.1828 88.1233 62.1019C88.7992 63.1008 89.5535 64.0492 90.2771 65.014C91.588 66.7617 92.95 68.4691 94.2937 70.1916C96.7792 73.3776 99.2477 76.6229 101.079 80.2408C104.755 87.5 105.065 96.3003 101.611 103.707C99.8412 107.501 97.2194 110.81 93.9489 113.422C93.226 113.999 94.2466 114.998 94.9627 114.436C101.186 109.548 105.151 102.121 105.731 94.2303C106.048 89.931 105.355 85.5711 103.706 81.5879C102.077 77.6544 99.6572 74.1387 97.0654 70.7837C95.5174 68.7805 93.9537 66.7821 92.3525 64.8205C91.5001 63.7767 90.6443 62.7322 89.7736 61.704C88.9035 60.6758 87.8896 59.7874 87.008 58.7742C86.687 58.4056 86.0343 58.8975 86.3232 59.3036Z" fill="#49312C"/>
<path d="M73.6221 90.3016C72.9272 90.7861 72.0496 91.0423 71.2177 90.8999C70.3796 90.752 69.6049 90.1647 69.3542 89.3552C69.2976 89.1672 69.2629 88.9791 69.2513 88.7856L69.1205 88.7972C68.9951 89.7715 65.6612 92.7177 64.7441 92.3764C64.0205 93.0434 60.1736 91.8122 59.6892 90.9571L59.5522 90.9687C59.6149 91.1622 59.666 91.3564 59.6831 91.5615C59.7628 92.405 59.2729 93.2485 58.5547 93.7043C57.8366 94.1547 56.9304 94.2514 56.0985 94.0688C53.8303 93.5789 52.3429 91.1111 52.4914 88.7918C52.6393 86.4779 54.1266 84.4039 55.9963 83.0357C57.8713 81.6621 60.1048 80.8874 62.3219 80.1979C64.6358 79.9873 67.2454 79.5138 69.5027 80.0671C71.7539 80.6142 73.9192 81.9592 74.9453 84.0448C75.9646 86.1304 75.5313 88.9798 73.6221 90.3016Z" fill="#49312C"/>
<path d="M64.4097 92.9227C64.4281 93.5195 64.6407 94.0115 64.8205 94.5797C65.2069 95.8 65.814 96.9651 66.402 98.0996C67.8185 100.833 69.421 103.604 71.6518 105.761C76.8661 110.805 85.7701 113.082 92.0875 108.686C95.1775 106.536 97.0648 102.47 95.8064 98.7748C95.525 97.949 94.2052 98.306 94.4927 99.1373C95.5699 102.248 94.0539 105.705 91.3892 107.492C88.5936 109.367 84.9109 109.458 81.7153 108.761C78.4646 108.051 75.4544 106.512 73.0472 104.207C71.0379 102.283 69.6295 99.8391 68.2532 97.4461C67.5896 96.2913 66.9913 95.0805 66.2337 93.9842C65.8644 93.4493 65.6027 92.9649 65.2001 92.5956C64.9166 92.3353 64.3961 92.5043 64.4097 92.9227Z" fill="#49312C"/>
<path d="M95.2164 96.1162C95.371 95.426 95.5134 94.8196 95.4228 94.1028C95.3356 93.4153 95.0692 92.7414 94.7578 92.1269C94.1126 90.8548 93.0783 89.7714 91.9098 88.9674C89.2702 87.1523 85.8744 86.8198 82.796 86.3524C82.0881 86.2448 81.7624 87.3009 82.4928 87.4514C85.2462 88.019 88.1596 88.4312 90.5818 89.9568C91.6154 90.6081 92.5475 91.47 93.1968 92.5105C93.8005 93.4773 94.3156 94.8271 94.2727 95.9881C94.2523 96.525 95.0971 96.6483 95.2164 96.1162Z" fill="#49312C"/>
<path d="M66.0715 50.7442C66.2282 46.7801 66.5886 42.8685 67.6052 39.0209C68.615 35.2019 70.2066 31.5505 72.3427 28.2262C76.24 22.1602 82.0281 17.3198 88.5827 14.3539C90.2016 13.6215 91.8886 12.9905 93.6022 12.5184C95.2361 12.0687 97.0709 11.743 98.7253 12.2642C102.951 13.5956 101.819 19.2378 101.389 22.4736C100.806 26.8642 100.685 31.31 101.051 35.7245C101.417 40.1315 102.331 44.4703 102.751 48.8705C103.154 53.0915 103.029 57.2804 101.519 61.2827C100.247 64.654 97.9676 67.6322 94.6617 69.1897C93.6676 69.6578 94.5343 71.1343 95.525 70.6662C102.267 67.4782 104.667 59.5023 104.58 52.5723C104.521 47.8267 103.536 43.1648 102.948 38.4717C102.356 33.7561 102.28 28.9887 102.772 24.2594C103.193 20.2129 104.572 15.5633 101.573 12.1402C98.8888 9.07685 94.2767 10.1159 90.9361 11.2544C83.6252 13.7461 77.0944 18.4856 72.4381 24.6423C67.4274 31.2664 64.5139 39.4869 64.5916 47.8137C64.6011 48.8521 64.7265 49.8796 64.8825 50.905C64.9888 51.6048 66.0456 51.3956 66.0715 50.7442Z" fill="#49312C"/>
<path d="M81.9724 53.9596C83.4148 49.9574 83.9852 45.3419 83.22 41.1257C83.0537 40.2093 81.5152 40.411 81.5847 41.3471C81.7374 43.4137 81.9043 45.4366 81.7646 47.512C81.6263 49.5697 81.3061 51.6383 80.8305 53.6449C80.6526 54.3943 81.7162 54.671 81.9724 53.9596Z" fill="#49312C"/>
<path d="M85.0682 54.0216C85.4627 52.729 85.8906 51.4481 86.2742 50.1515C86.6551 48.863 87.0946 47.5671 87.3719 46.2514C87.5763 45.2819 86.1972 44.8969 85.8865 45.8419C85.4661 47.1195 85.1956 48.4604 84.8781 49.7665C84.5586 51.0808 84.286 52.404 83.9781 53.7204C83.8118 54.429 84.8556 54.7186 85.0682 54.0216Z" fill="#49312C"/>
<path d="M85.956 54.8227C86.7109 54.8234 87.4604 54.8506 88.2147 54.8765C88.9648 54.9024 89.7225 54.8656 90.4733 54.8581C90.8876 54.854 91.2848 54.4963 91.2657 54.0657C91.2474 53.6501 90.9169 53.2556 90.4733 53.2733C89.7225 53.3026 88.9635 53.3033 88.2147 53.3659C87.4611 53.4293 86.7116 53.4934 85.956 53.5315C85.6078 53.5492 85.3101 53.8156 85.3101 54.1768C85.3107 54.5277 85.6058 54.8227 85.956 54.8227Z" fill="#49312C"/>
<path d="M88.206 58.1151C88.6318 58.1199 89.0849 58.2419 89.4992 58.3413C89.9509 58.4497 90.3925 58.5723 90.8258 58.7433C91.61 59.0527 92.4147 59.5528 92.9932 60.0645C93.308 60.3432 93.7849 60.3745 94.0949 60.0645C94.3865 59.7729 94.4029 59.2516 94.0949 58.9627C93.3011 58.216 92.3125 57.6239 91.2666 57.3064C90.7577 57.1517 90.2085 57.0475 89.677 57.0243C89.1258 57.0004 88.6209 57.1115 88.0806 57.1885C87.5423 57.2648 87.6909 58.109 88.206 58.1151Z" fill="#49312C"/>
<path d="M84.8088 64.3398C84.385 63.8718 83.7976 63.6721 83.2062 63.495C82.5903 63.311 81.9471 63.219 81.308 63.1611C80.0754 63.0487 78.8197 63.1822 77.6219 63.4841C77.1156 63.6115 76.8111 64.1777 76.9473 64.6723C77.0836 65.169 77.6341 65.4968 78.1356 65.3469C79.1774 65.0362 80.1606 64.9067 81.2494 64.9156C81.7945 64.9203 82.3395 64.9708 82.8799 65.0423C83.4113 65.1132 83.9223 65.2522 84.4592 65.1827C84.879 65.1295 85.1181 64.6819 84.8088 64.3398Z" fill="#49312C"/>
<path d="M97.4806 118.485C97.3375 119.691 97.9977 121.086 98.4753 122.164C99.017 123.387 99.6704 124.546 100.397 125.668C101.872 127.941 103.581 130.049 105.135 132.267C106.676 134.467 108.114 136.8 108.88 139.394C109.25 140.65 109.468 141.944 109.489 143.254C109.511 144.571 109.248 145.809 108.963 147.085C108.795 147.836 109.825 148.324 110.232 147.621C112.363 143.942 111.048 138.992 109.27 135.46C107.297 131.543 104.292 128.29 101.883 124.654C101.218 123.649 100.578 122.617 100.021 121.548C99.7542 121.036 99.5055 120.513 99.2637 119.989C98.9952 119.408 98.8106 118.745 98.4256 118.229C98.1149 117.812 97.5419 117.971 97.4806 118.485Z" fill="#49312C"/>
<path d="M107.53 149.21C106.912 149.973 105.941 150.511 105.049 150.893C104.127 151.286 103.214 151.385 102.221 151.325C101.844 151.302 101.522 151.662 101.522 152.024C101.522 152.434 101.844 152.683 102.221 152.723C103.398 152.848 104.614 152.548 105.673 152.044C106.185 151.801 106.675 151.475 107.075 151.071C107.486 150.656 107.822 150.169 108.145 149.685C108.389 149.321 107.812 148.863 107.53 149.21Z" fill="#49312C"/>
<path d="M106.538 138.663C105.945 135.146 102.994 133.159 99.8528 131.983C96.4066 130.692 92.4425 129.579 88.7339 130.012C87.0598 130.208 85.3796 130.672 83.9317 131.558C82.4961 132.437 81.346 133.708 80.4459 135.119C78.5858 138.036 77.2626 141.844 78.0326 145.304C78.7896 148.706 82.1588 151.602 85.7598 150.39C86.5801 150.114 86.2319 148.812 85.4 149.085C82.4975 150.036 80.172 147.52 79.691 144.848C79.1718 141.963 80.3893 138.778 81.8454 136.334C83.3539 133.801 85.68 132.19 88.6092 131.756C91.8231 131.28 95.0779 132.12 98.1304 133.06C101.131 133.984 104.635 135.637 105.628 138.914C105.806 139.506 106.637 139.253 106.538 138.663Z" fill="#49312C"/>
<path d="M87.553 144.147C87.0959 144.723 86.5951 145.242 86.2121 145.876C85.817 146.532 85.5574 147.228 85.4776 147.99C85.3243 149.454 86.0357 150.81 87.2894 151.556C88.4238 152.23 89.8451 152.602 91.1431 152.784C92.6012 152.988 94.1785 152.781 95.2257 151.646C96.1748 150.616 96.7649 148.832 96.0161 147.536C95.6352 146.876 94.5601 147.155 94.5723 147.927C94.5805 148.456 94.6377 148.957 94.4401 149.459C94.2643 149.906 93.9448 150.309 93.5544 150.549C92.4268 151.244 90.987 150.822 89.8138 150.479C88.8381 150.194 87.4726 149.797 87.1688 148.683C86.8008 147.333 87.5851 145.819 88.2657 144.697C88.5267 144.268 87.8801 143.735 87.553 144.147Z" fill="#49312C"/>
<path d="M94.7658 148.105C94.6752 149.374 94.8803 150.528 95.6543 151.576C96.4317 152.63 97.468 153.448 98.7606 153.752C100.044 154.054 101.371 153.914 102.562 153.355C103.74 152.803 104.528 151.792 104.967 150.59C105.419 149.35 105.333 147.776 104.553 146.685C104.317 146.354 103.926 146.176 103.531 146.349C103.191 146.499 102.905 146.931 103.056 147.316C103.45 148.313 103.473 149.355 102.953 150.259C102.458 151.119 101.529 151.702 100.598 151.82C99.5203 151.956 98.4696 151.645 97.6138 150.945C97.175 150.585 96.8248 150.132 96.5203 149.657C96.1987 149.154 95.8519 148.557 95.6931 147.979C95.5466 147.448 94.8026 147.588 94.7658 148.105Z" fill="#49312C"/>
</g>
<g filter="url(#filter2_d_8_1275)">
<path d="M213.926 83.2632C214.939 70.7719 224.878 62.9003 228.387 51.4856C230.986 39.6258 211.639 31.96 204.066 24.8251C187.755 5.02942 144.275 9.15433 125.211 25.9477C119.598 24.322 111.997 38.0413 107.758 41.7308C97.6062 46.9072 90.9521 64.9369 101.742 72.0704C113.031 77.3054 114.598 100.952 127.259 91.7007C128.681 94.7609 133.071 96.09 132.452 100.095C129.817 112.181 112.879 121.864 120.381 135.582C107.602 139.146 105.185 162.175 119.657 158.354C122.541 161.057 127.038 161.092 129.94 158.484C131.859 162.3 136.797 160.201 139.714 158.828C144.477 157.02 151.218 154.225 149.731 147.924H180.818C179.568 154.363 187.462 156.227 191.994 158.161C194.921 159.372 198.957 161.7 201.039 157.953C203.925 160.609 208.805 158.032 211.237 155.769C222.727 162.56 225.393 141.5 215.258 136.143C221.864 120.443 201.037 111.706 199.045 97.7206C198.646 96.7689 198.477 95.7461 198.664 94.6304C198.937 93.0152 199.868 91.5814 200.724 90.2118C201.142 89.0835 201.708 88.2854 202.376 87.7181C202.721 87.2918 203.103 86.899 203.548 86.5662C204.726 85.6857 206.103 85.6605 207.39 86.1762C209.912 85.9501 212.458 85.7959 213.926 83.2632Z" fill="#F7CDA3"/>
<path d="M198.25 127.075C192.084 138.774 184.344 129.207 180.914 150.798C184.737 144.788 151.115 149.204 149.923 147.922C147.869 140.271 140.07 136.94 134.645 133.667C135.264 130.845 132.224 127.286 136.293 125.05C139.617 122.416 148.582 126.249 148.017 119.722C137.033 98.1039 167.774 115.642 177.553 108.69C181.748 107.072 188.377 106.042 190.167 111.448C191.295 114.287 187.334 118.195 190.274 120.311C195.193 120.376 199.127 120.863 198.25 127.075Z" fill="#FAF1DD"/>
<path d="M177.139 89.1535C173.224 91.4622 167.802 87.6534 166.009 84.0196C164.673 79.7873 159.662 96.153 152.709 91.3855C155.837 86.3996 159.655 80.6441 157.707 74.1679C164.219 76.4201 163.331 82.1923 169.736 72.9043C170.467 78.8747 178.18 83.5878 177.139 89.1535Z" fill="#FAF1DD"/>
<path d="M179.862 92.1148C176.632 88.8628 166.452 92.0081 165.46 83.4136C163.047 87.7757 159.301 92.4344 153.341 92.5739C148.966 122.411 187.697 123.369 179.862 92.1148Z" fill="#EAAC8E"/>
<path d="M180.461 89.5099C172.717 92.5359 163.927 85.6509 165.081 77.3989C164.502 77.5566 163.874 77.4617 163.302 77.3208C165.744 84.2094 160.667 92.1334 153.391 92.8129C152.684 92.8925 152.65 93.9104 153.391 93.9446C157.78 94.1539 162.09 92.7962 165.603 90.1944C170.02 93.9272 176.434 94.0409 181.01 90.4546C181.457 90.1037 180.976 89.3229 180.461 89.5099Z" fill="#49312C"/>
<path d="M125.098 24.7993C122.98 23.3697 120.402 24.2872 118.609 25.8173C116.467 27.6453 115.674 30.4767 114.564 32.9564C112.323 37.9611 107.841 41.1713 103.688 44.5057C99.6751 47.7285 95.4804 51.7822 94.438 57.0465C93.3629 62.4754 96.2821 67.4557 99.8879 71.2695C103.56 75.153 108.271 78.1692 110.988 82.8865C112.482 85.4806 113.03 88.4864 114.477 91.1035C115.688 93.2951 117.693 95.3596 120.263 95.7768C125.862 96.686 129.937 90.5942 131.919 86.2104C134.2 81.1666 134.982 75.5074 134.074 70.0429C132.132 58.3582 122.154 47.8401 125.415 35.4619C125.767 34.125 126.3 32.8622 127.01 31.6767C127.455 30.9351 126.334 30.2981 125.86 31.0048C122.856 35.4961 122.704 41.1497 123.896 46.2695C125.24 52.0397 128.176 57.2349 130.311 62.7182C132.347 67.9518 133.484 73.4184 132.358 79.0079C131.845 81.5573 130.966 84.0286 129.722 86.313C128.506 88.5422 126.991 90.8293 124.93 92.365C122.936 93.8525 120.517 94.3046 118.444 92.6985C116.364 91.0875 115.478 88.4808 114.607 86.1065C113.664 83.5389 112.51 81.2106 110.763 79.0909C109.107 77.0808 107.139 75.3567 105.184 73.6473C101.468 70.3973 97.1243 66.7441 95.996 61.6863C94.8302 56.4618 98.032 51.8087 101.655 48.3927C105.312 44.9452 109.726 42.3288 112.999 38.4704C114.723 36.4373 115.83 34.1927 116.839 31.7437C117.798 29.4182 118.967 26.8716 121.49 25.9241C122.5 25.5452 123.628 25.4894 124.64 25.8843C125.299 26.1396 125.623 25.1531 125.098 24.7993Z" fill="#49312C"/>
<path d="M126.668 92.1313C126.782 93.2232 127.441 94.3319 128.065 95.2138C128.754 96.1885 129.538 97.0802 130.406 97.9001C132.124 99.5236 134.056 100.907 135.975 102.28C137.891 103.649 139.791 105.052 141.445 106.738C142.281 107.591 143.048 108.51 143.68 109.526C144.321 110.557 144.667 111.645 145.129 112.753C145.397 113.396 146.581 113.426 146.49 112.569C146.251 110.31 144.739 108.149 143.284 106.483C141.698 104.669 139.793 103.159 137.857 101.739C135.877 100.286 133.836 98.9104 132.004 97.2672C131.111 96.4662 130.254 95.6046 129.494 94.6752C128.754 93.7689 128.218 92.6783 127.446 91.8104C127.197 91.5292 126.627 91.7378 126.668 92.1313Z" fill="#49312C"/>
<path d="M143.563 103.525C145.631 106.453 148.912 108.562 152.418 109.309C153.263 109.489 153.627 108.199 152.776 108.007C149.438 107.252 146.557 105.514 144.236 103.006C143.912 102.655 143.279 103.123 143.563 103.525Z" fill="#49312C"/>
<path d="M142.896 85.8951C143.333 87.9241 144.852 89.6635 146.472 90.8929C148.346 92.3162 150.6 93.1361 152.942 93.3196C157.776 93.6977 162.594 91.5641 164.385 86.8412C165.433 84.0769 165.435 81.0376 165.006 78.156C164.847 77.0941 163.348 77.4744 163.259 78.3926C162.992 81.166 163.205 84.0622 162.054 86.6703C161.028 88.9951 159.031 90.6006 156.625 91.3506C153.988 92.1725 151.145 91.8753 148.717 90.5545C146.528 89.3642 145.14 87.5048 143.671 85.5686C143.388 85.196 142.789 85.3991 142.896 85.8951Z" fill="#49312C"/>
<path d="M155.765 53.0835C156.665 52.7619 157.674 52.5686 158.608 52.3558C159.537 52.1437 160.481 51.9728 161.431 51.8849C163.362 51.7055 165.304 51.8179 167.2 52.2288C168.081 52.42 168.457 51.0629 167.573 50.8746C165.522 50.4378 163.414 50.2983 161.326 50.5111C160.288 50.6164 159.259 50.788 158.255 51.0748C157.236 51.3651 156.37 51.8214 155.428 52.2846C154.987 52.5002 155.296 53.251 155.765 53.0835Z" fill="#49312C"/>
<path d="M194.115 19.4137C196.163 18.1459 198.811 19.0697 200.407 20.6403C202.275 22.4787 203.369 24.9396 205.016 26.9595C208.236 30.9065 212.996 33.082 217.382 35.443C221.497 37.659 225.88 40.4199 227.853 44.8615C230.171 50.0819 227.418 55.4697 224.337 59.6985C221.21 63.9909 217.324 67.8828 215.689 73.064C214.82 75.8179 214.813 78.7916 213.772 81.496C212.968 83.5835 211.319 85.6202 208.907 85.6599C206.384 85.7018 204.098 83.9631 202.36 82.3109C200.537 80.5799 198.975 78.5928 197.725 76.4124C195.08 71.8012 194.028 66.5571 194.499 61.2754C195.046 55.1222 197.204 49.2621 198.106 43.1682C198.882 37.9374 198.769 32.2168 195.99 27.5421C195.368 26.4948 194.619 25.5278 193.769 24.6556C193.165 24.0361 192.265 24.9591 192.827 25.5968C196.615 29.8934 197.351 35.9384 196.757 41.4309C196.067 47.8213 193.772 53.9158 193.031 60.3007C192.382 65.8915 193.23 71.4432 195.728 76.5045C196.909 78.8983 198.448 81.1338 200.285 83.0735C202.127 85.0201 204.382 86.9144 207.048 87.5542C209.626 88.1724 212.227 87.3498 213.929 85.3062C215.766 83.1014 216.349 80.358 216.8 77.5957C217.053 76.051 217.312 74.5083 217.828 73.0257C218.275 71.7398 218.9 70.5243 219.596 69.3571C221.018 66.9743 222.776 64.8177 224.459 62.6192C227.865 58.1691 231.118 52.7646 230.095 46.9205C229.22 41.9228 225.114 38.2458 221.028 35.6579C216.606 32.8573 211.505 31.0391 207.659 27.3844C205.612 25.4406 204.398 22.9392 202.676 20.7414C201.167 18.8129 198.983 17.2159 196.429 17.2333C195.249 17.241 194.24 17.654 193.396 18.4822C192.922 18.949 193.536 19.7723 194.115 19.4137Z" fill="#49312C"/>
<path d="M203.247 84.8058C202.662 85.7701 202.337 86.915 201.794 87.9149C201.239 88.9363 200.583 89.9145 199.879 90.8383C198.406 92.7703 196.67 94.4825 195 96.24C193.348 97.9795 191.747 99.8047 190.484 101.853C189.328 103.731 188.113 106.249 188.287 108.52C188.344 109.252 189.471 109.516 189.649 108.704C189.901 107.547 190.032 106.409 190.452 105.289C190.872 104.169 191.463 103.114 192.122 102.118C193.466 100.085 195.146 98.3123 196.832 96.5652C198.472 94.8676 200.104 93.1533 201.499 91.2437C202.187 90.3018 202.789 89.3082 203.27 88.2442C203.703 87.2869 204.181 86.1043 204.097 85.0368C204.063 84.5979 203.493 84.3998 203.247 84.8058Z" fill="#49312C"/>
<path d="M188.766 98.8596C187.869 100.279 186.78 101.601 185.51 102.703C184.237 103.808 182.794 104.662 181.245 105.324C180.55 105.62 181.056 106.85 181.764 106.557C185.088 105.186 187.993 102.574 189.506 99.2921C189.734 98.7981 189.066 98.3851 188.766 98.8596Z" fill="#49312C"/>
<path d="M186.211 81.512C185.329 83.2543 184.547 84.9804 183.181 86.4191C181.801 87.8711 180.048 88.8995 178.112 89.4081C174.152 90.4491 169.837 88.8214 167.832 85.2253C166.593 83.0045 166.289 80.4138 165.598 78.0004C165.327 77.0564 163.817 77.212 163.851 78.237C164.016 83.1433 165.759 88.5939 170.68 90.5859C174.935 92.3085 180.227 91.1636 183.597 88.1208C185.372 86.5182 186.929 84.1766 187.001 81.7263C187.013 81.316 186.402 81.1339 186.211 81.512Z" fill="#49312C"/>
<path d="M176.214 66.7596C175.736 69.2162 174.131 71.3931 172.042 72.7704C170.845 73.5581 169.462 74.1303 168.541 75.2215C167.904 75.9743 167.537 76.9197 166.948 77.7137C166.358 78.5015 165.401 79.1671 164.444 78.9452L162.793 79.0506C162.355 78.8929 161.941 78.6187 161.603 78.3033C160.879 77.6321 160.348 76.7683 159.59 76.1439C158.481 75.2396 157.022 74.9243 155.703 74.364C153.393 73.3893 151.42 71.5452 150.51 69.2114C149.594 66.8768 149.833 64.0761 151.303 62.0451C152.517 60.3761 154.443 59.3372 156.444 58.8237C158.353 58.3332 160.127 58.2048 162.081 58.2048C164.281 57.8957 166.954 57.5106 168.495 57.6215C170.555 57.7618 172.638 58.4386 174.132 59.8563C175.946 61.5832 176.687 64.2966 176.214 66.7596Z" fill="#49312C"/>
<path d="M126.147 24.9852C127.082 24.247 128.166 23.6337 129.141 22.9388C130.091 22.2613 131.072 21.6264 132.067 21.0173C134.005 19.8298 136.043 18.7992 138.146 17.9369C142.415 16.187 146.963 15.1572 151.571 14.9241C152.528 14.876 152.534 13.3801 151.571 13.4289C146.747 13.6731 141.986 14.7357 137.524 16.5875C135.304 17.5092 133.169 18.622 131.143 19.9156C130.145 20.5533 129.182 21.2524 128.256 21.9913C127.295 22.7595 126.539 23.6575 125.688 24.5275C125.39 24.8338 125.828 25.2371 126.147 24.9852Z" fill="#49312C"/>
<path d="M193.087 17.7295C191.293 15.644 188.498 14.3413 185.997 13.2976C183.405 12.2168 180.682 11.4863 177.9 11.1123C174.973 10.7188 172.086 10.8039 169.158 11.127C166.161 11.4577 162.969 11.8721 160.081 10.7432C157.171 9.60593 155.477 6.84785 155.285 3.79463C155.23 2.91621 153.971 2.91341 153.918 3.79463C153.758 6.42922 155.072 9.08403 157.106 10.7397C159.367 12.5817 162.356 13.0708 165.198 12.985C168.441 12.8873 171.623 12.2349 174.879 12.364C177.826 12.4812 180.744 13.038 183.536 13.9862C185.096 14.5165 186.602 15.1758 188.061 15.9412C189.578 16.7366 190.964 17.7406 192.507 18.4809C193 18.7181 193.448 18.1495 193.087 17.7295Z" fill="#49312C"/>
<path d="M155.74 11.1268C152.408 8.66179 150.45 4.78875 150.002 0.723845C149.898 -0.214586 148.492 -0.267613 148.497 0.723845C148.518 5.33088 151.325 9.68953 155.253 11.9613C155.804 12.2809 156.229 11.4882 155.74 11.1268Z" fill="#49312C"/>
<path d="M153.05 11.6145C150.592 11.4764 148.124 10.6544 146.082 9.28133C145.746 9.05597 145.254 9.21644 145.059 9.54925C144.845 9.91625 144.99 10.3474 145.327 10.5721C147.624 12.1043 150.291 12.8571 153.049 12.6988C153.747 12.6597 153.748 11.6536 153.05 11.6145Z" fill="#49312C"/>
<path d="M135.184 135.045C134.207 133.265 132.825 131.79 131.102 130.714C130.263 130.19 129.361 129.764 128.428 129.434C127.512 129.11 126.364 128.757 125.384 128.858C124.567 128.944 124.329 130.071 125.183 130.336C126.035 130.6 126.935 130.671 127.791 130.947C128.648 131.224 129.463 131.59 130.238 132.049C131.766 132.954 133.179 134.167 134.239 135.598C134.65 136.151 135.532 135.678 135.184 135.045Z" fill="#49312C"/>
<path d="M127.638 135.792C126.204 135.377 124.86 135.119 123.354 135.172C121.9 135.222 120.432 135.514 119.058 135.986C116.321 136.928 113.891 138.631 112.083 140.892C108.685 145.142 107.148 152.149 110.651 156.812C112.516 159.294 115.904 160.596 118.805 159.171C119.586 158.788 119.04 157.517 118.215 157.771C116.069 158.431 113.685 157.562 112.298 155.831C110.733 153.88 110.382 151.22 110.64 148.801C111.16 143.918 114.338 139.503 118.877 137.598C121.474 136.508 124.627 136.142 127.41 136.618C127.945 136.71 128.178 135.949 127.638 135.792Z" fill="#49312C"/>
<path d="M120.871 150.223C120.419 150.548 119.997 150.853 119.647 151.293C119.27 151.767 118.989 152.26 118.784 152.831C118.385 153.942 118.329 155.138 118.565 156.291C119.05 158.657 121.022 160.473 123.347 161.001C124.689 161.306 126.082 161.238 127.315 160.599C128.174 160.154 127.579 158.788 126.661 159.049C124.567 159.645 122.123 159.161 120.883 157.221C120.271 156.263 120.091 155.159 120.2 154.038C120.299 153.006 120.736 151.735 121.422 150.941C121.738 150.575 121.319 149.902 120.871 150.223Z" fill="#49312C"/>
<path d="M130.349 152.313C129.659 152.98 129.077 153.662 128.745 154.574C128.413 155.486 128.417 156.525 128.625 157.465C129.062 159.433 130.621 160.92 132.522 161.491C133.46 161.772 134.435 161.845 135.396 161.642C136.503 161.408 137.456 160.761 138.428 160.217C140.559 159.022 143.045 158.8 145.281 157.871C147.354 157.009 149.189 155.1 149.267 152.776C149.29 152.083 148.159 152.084 148.191 152.776C148.316 155.537 145.376 156.526 143.175 156.959C142.001 157.19 140.809 157.302 139.647 157.605C138.443 157.919 137.43 158.539 136.352 159.137C134.618 160.1 132.588 160.035 131.179 158.519C129.925 157.17 129.818 154.419 131.032 152.998C131.432 152.529 130.802 151.874 130.349 152.313Z" fill="#49312C"/>
<path d="M150.007 150.166C150.05 149.176 150.204 148.258 150.085 147.261C149.975 146.341 149.774 145.431 149.464 144.558C148.825 142.754 147.861 141.11 146.608 139.663C144.271 136.965 140.771 134.904 137.174 134.634C136.232 134.564 136.06 136.033 136.953 136.264C140.132 137.087 142.993 138.398 145.203 140.904C146.294 142.141 147.155 143.619 147.746 145.157C148.038 145.916 148.277 146.691 148.473 147.479C148.686 148.335 148.986 149.284 149.005 150.166C149.018 150.814 149.979 150.81 150.007 150.166Z" fill="#49312C"/>
<path d="M130.41 102.615C129.572 104.667 128.409 106.655 127.25 108.543C126.055 110.49 124.709 112.335 123.407 114.211C120.884 117.849 118.443 121.748 117.602 126.161C117.155 128.501 116.999 131.246 118.045 133.455C118.37 134.14 119.606 133.83 119.515 133.058C119.357 131.713 119.115 130.425 119.148 129.062C119.181 127.695 119.412 126.351 119.783 125.037C120.552 122.322 121.928 119.839 123.446 117.478C124.974 115.102 126.648 112.824 128.146 110.428C129.636 108.043 130.791 105.643 131.386 102.884C131.527 102.232 130.652 102.022 130.41 102.615Z" fill="#49312C"/>
<path d="M128.724 101.189C128.461 101.916 128.069 102.635 127.686 103.307C127.307 103.971 126.88 104.62 126.427 105.236C125.53 106.456 124.385 107.506 123.131 108.351C122.417 108.831 123.072 109.984 123.812 109.516C125.269 108.595 126.495 107.396 127.506 106.002C128.004 105.314 128.394 104.589 128.72 103.806C129.052 103.008 129.23 102.216 129.392 101.372C129.477 100.933 128.876 100.768 128.724 101.189Z" fill="#49312C"/>
<path d="M152.184 93.7409C152.415 95.9652 152.785 98.1777 153.044 100.401C153.29 102.516 153.514 104.639 154.072 106.699C155.079 110.421 157.12 113.856 160.847 115.319C164.441 116.728 168.753 116.153 172.296 114.869C176.005 113.524 179.451 110.976 180.749 107.109C181.571 104.662 181.343 102.018 181.209 99.4866C181.063 96.7264 180.945 93.9614 180.682 91.2096C180.611 90.4707 179.5 90.4386 179.506 91.2096C179.522 93.4946 179.644 95.7782 179.758 98.0598C179.863 100.17 180.081 102.32 179.881 104.431C179.503 108.396 176.778 111.313 173.27 112.94C169.961 114.476 165.881 115.269 162.341 114.105C158.95 112.99 156.969 109.916 156.005 106.635C155.398 104.569 155.134 102.42 154.837 100.293C154.514 97.9865 154.195 95.5487 152.921 93.5399C152.73 93.2357 152.141 93.3244 152.184 93.7409Z" fill="#49312C"/>
<path d="M164.863 86.9826C165.145 88.9104 165.539 90.8208 165.788 92.7541C166.032 94.6617 166.139 96.5853 166.15 98.5082C166.156 99.3825 167.514 99.3839 167.509 98.5082C167.484 94.5682 167.041 90.3686 165.488 86.7189C165.324 86.3309 164.813 86.6372 164.863 86.9826Z" fill="#49312C"/>
<path d="M146.329 53.5684C147.031 60.3705 138.023 61.1938 137.482 54.3764C136.779 47.5757 145.788 46.7524 146.329 53.5684Z" fill="#49312C"/>
<path d="M187.467 49.7533C188.17 56.5554 179.161 57.3787 178.62 50.5613C177.917 43.7599 186.925 42.9366 187.467 49.7533Z" fill="#49312C"/>
<path d="M135.305 46.0302C135.662 45.9716 135.945 45.7567 136.224 45.5383C136.502 45.3207 136.723 45.1588 137.009 44.9306C137.425 44.6006 137.967 44.228 138.488 43.9259C138.757 43.7696 139.033 43.6231 139.313 43.4864C139.453 43.418 139.593 43.3503 139.734 43.2847C139.813 43.2484 139.892 43.2129 139.971 43.178C140.005 43.1626 140.116 43.1159 140.019 43.1563C140.323 43.0307 140.631 42.9184 140.943 42.8172C141.305 42.7007 141.683 42.6275 142.022 42.4523C142.894 42.0023 142.491 40.5608 141.52 40.5999C140.755 40.6313 139.943 41.0332 139.252 41.3367C138.633 41.6088 138.044 41.9339 137.482 42.3086C136.887 42.7042 136.306 43.1431 135.781 43.6294C135.261 44.1115 134.64 44.7562 134.606 45.4979C134.589 45.8886 134.972 46.0847 135.305 46.0302Z" fill="#49312C"/>
<path d="M186.973 41.0193C187.184 40.3202 186.35 39.8276 185.845 39.5562C185.289 39.2576 184.719 39.0008 184.119 38.8041C183.584 38.6289 183.039 38.4845 182.487 38.3729C181.86 38.2459 181.18 38.121 180.537 38.1315C180.022 38.1405 179.593 38.5166 179.525 39.0246C179.464 39.4837 179.756 40.076 180.264 40.1549C180.599 40.2072 180.936 40.2302 181.273 40.2686C181.336 40.2756 181.425 40.2874 181.311 40.2721C181.381 40.2818 181.45 40.2923 181.52 40.3028C181.658 40.3244 181.798 40.3474 181.937 40.3705C182.51 40.4674 183.076 40.5979 183.633 40.7626C184.169 40.9209 184.71 41.0772 185.238 41.2642C185.743 41.4456 186.748 41.7631 186.973 41.0193Z" fill="#49312C"/>
<path d="M200.664 133.515C201.497 133.207 202.37 133.021 203.245 132.876C203.655 132.808 204.069 132.771 204.483 132.741C204.95 132.707 205.426 132.741 205.881 132.619C206.484 132.457 206.439 131.624 205.881 131.441C205.406 131.285 204.88 131.337 204.388 131.372C203.902 131.408 203.415 131.484 202.937 131.58C201.998 131.768 201.113 132.122 200.246 132.523C199.693 132.779 200.086 133.729 200.664 133.515Z" fill="#49312C"/>
<path d="M203.14 135.197C205.578 134.779 208.329 135.028 210.668 135.802C213.07 136.597 215.221 138.047 216.819 140.012C219.716 143.569 221.277 149.379 218.82 153.572C217.519 155.793 214.874 157.131 212.336 156.349C211.52 156.098 210.957 157.362 211.745 157.749C214.259 158.983 217.233 158.178 219.17 156.245C221.252 154.168 221.985 151.025 221.825 148.164C221.506 142.437 217.814 137.205 212.539 134.968C211.056 134.34 209.497 133.953 207.894 133.796C206.156 133.626 204.571 133.888 202.912 134.369C202.374 134.526 202.605 135.288 203.14 135.197Z" fill="#49312C"/>
<path d="M209.128 149.517C209.813 150.312 210.251 151.583 210.35 152.615C210.457 153.736 210.279 154.84 209.666 155.798C208.426 157.739 205.982 158.223 203.888 157.626C202.981 157.368 202.367 158.727 203.235 159.176C205.392 160.294 208.102 159.708 209.938 158.228C211.812 156.718 212.536 154.127 211.9 151.832C211.729 151.213 211.472 150.627 211.088 150.11C210.686 149.568 210.224 149.191 209.679 148.8C209.236 148.483 208.809 149.149 209.128 149.517Z" fill="#49312C"/>
<path d="M199.518 151.574C200.733 152.995 200.626 155.746 199.371 157.096C197.963 158.611 195.932 158.675 194.198 157.713C193.12 157.115 192.109 156.494 190.903 156.182C189.741 155.88 188.55 155.767 187.375 155.536C185.174 155.102 182.235 154.115 182.359 151.353C182.391 150.661 181.26 150.658 181.284 151.353C181.355 153.467 182.748 154.921 184.439 156.01C186.441 157.3 189.054 157.417 191.225 158.345C192.3 158.805 193.238 159.522 194.326 159.957C195.271 160.334 196.253 160.415 197.254 160.248C199.203 159.923 200.94 158.679 201.679 156.822C202.076 155.824 202.174 154.696 201.95 153.643C201.711 152.518 201.006 151.67 200.201 150.89C199.749 150.453 199.119 151.107 199.518 151.574Z" fill="#49312C"/>
<path d="M181.547 148.744C181.566 147.896 181.852 146.998 182.051 146.175C182.251 145.346 182.5 144.532 182.805 143.735C183.394 142.197 184.257 140.718 185.348 139.482C187.558 136.976 190.419 135.665 193.598 134.841C194.482 134.612 194.329 133.14 193.377 133.211C189.776 133.481 186.285 135.544 183.943 138.241C182.716 139.654 181.767 141.262 181.127 143.021C180.797 143.931 180.583 144.878 180.466 145.839C180.345 146.839 180.502 147.751 180.544 148.744C180.571 149.387 181.532 149.392 181.547 148.744Z" fill="#49312C"/>
<path d="M200.95 107.484C201.754 108.26 202.436 109.151 203.205 109.963C203.944 110.743 204.703 111.504 205.439 112.288C206.942 113.887 208.421 115.493 209.751 117.243C212.327 120.634 214.335 124.452 215.053 128.687C215.441 130.979 215.429 133.458 214.923 135.729C214.707 136.695 216.114 137.089 216.409 136.138C219.189 127.148 213.721 118.29 207.657 112.073C206.727 111.118 205.747 110.216 204.755 109.326C203.757 108.429 202.633 107.69 201.635 106.8C201.172 106.389 200.499 107.048 200.95 107.484Z" fill="#49312C"/>
</g>
</g>
<defs>
<filter id="filter0_d_8_1275" x="165.394" y="-27.229" width="218.169" height="236.472" filterUnits="userSpaceOnUse" color-interpolation-filters="sRGB">
<feFlood flood-opacity="0" result="BackgroundImageFix"/>
<feColorMatrix in="SourceAlpha" type="matrix" values="0 0 0 0 0 0 0 0 0 0 0 0 0 0 0 0 0 0 127 0" result="hardAlpha"/>
<feOffset dx="5.6229"/>
<feGaussianBlur stdDeviation="28.1145"/>
<feComposite in2="hardAlpha" operator="out"/>
<feColorMatrix type="matrix" values="0 0 0 0 0 0 0 0 0 0 0 0 0 0 0 0 0 0 0.25 0"/>
<feBlend mode="normal" in2="BackgroundImageFix" result="effect1_dropShadow_8_1275"/>
<feBlend mode="normal" in="SourceGraphic" in2="effect1_dropShadow_8_1275" result="shape"/>
</filter>
<filter id="filter1_d_8_1275" x="-50.6061" y="-46.1079" width="223.791" height="258.195" filterUnits="userSpaceOnUse" color-interpolation-filters="sRGB">
<feFlood flood-opacity="0" result="BackgroundImageFix"/>
<feColorMatrix in="SourceAlpha" type="matrix" values="0 0 0 0 0 0 0 0 0 0 0 0 0 0 0 0 0 0 127 0" result="hardAlpha"/>
<feOffset dx="5.6229"/>
<feGaussianBlur stdDeviation="28.1145"/>
<feComposite in2="hardAlpha" operator="out"/>
<feColorMatrix type="matrix" values="0 0 0 0 0 0 0 0 0 0 0 0 0 0 0 0 0 0 0.25 0"/>
<feBlend mode="normal" in2="BackgroundImageFix" result="effect1_dropShadow_8_1275"/>
<feBlend mode="normal" in="SourceGraphic" in2="effect1_dropShadow_8_1275" result="shape"/>
</filter>
<filter id="filter2_d_8_1275" x="43.6061" y="-56.229" width="248.532" height="274.215" filterUnits="userSpaceOnUse" color-interpolation-filters="sRGB">
<feFlood flood-opacity="0" result="BackgroundImageFix"/>
<feColorMatrix in="SourceAlpha" type="matrix" values="0 0 0 0 0 0 0 0 0 0 0 0 0 0 0 0 0 0 127 0" result="hardAlpha"/>
<feOffset dx="5.6229"/>
<feGaussianBlur stdDeviation="28.1145"/>
<feComposite in2="hardAlpha" operator="out"/>
<feColorMatrix type="matrix" values="0 0 0 0 0 0 0 0 0 0 0 0 0 0 0 0 0 0 0.25 0"/>
<feBlend mode="normal" in2="BackgroundImageFix" result="effect1_dropShadow_8_1275"/>
<feBlend mode="normal" in="SourceGraphic" in2="effect1_dropShadow_8_1275" result="shape"/>
</filter>
<clipPath id="clip0_8_1275">
<rect width="321.71" height="161.757" fill="white"/>
</clipPath>
</defs>
</svg>
